<svg width="165" height="68" viewBox="0 0 165 68" fill="none" xmlns="http://www.w3.org/2000/svg">
<path fill-rule="evenodd" clip-rule="evenodd" d="M0.90625 9.61491V19.042L3.88021 18.9274L6.85417 18.818L7.04687 13.8232L7.23958 8.83366L8.34896 10.7503C8.95833 11.8076 10.1458 13.9691 10.9844 15.5524C11.8281 17.1357 12.7083 18.5576 12.9479 18.7139C13.1875 18.8701 14.1875 19.0003 15.1667 19.0003L16.9531 19.0107L22.9844 8.83366L23.1771 13.8232L23.3698 18.818H28.7448L28.849 9.50553L28.9479 0.193034H21.4219L18.2187 5.77116C16.4531 8.84408 14.9583 11.3024 14.8906 11.2347C14.5573 10.9014 9.77604 2.36491 9.35937 1.3597L8.875 0.193034H0.90625V9.61491ZM37.349 2.00553C36.8906 3.01595 35.9063 5.13574 35.1667 6.71908C31.9896 13.5212 29.8177 18.6097 30.0104 18.8024C30.3229 19.1149 35.9844 19.0368 36.4323 18.7139C36.651 18.5576 37.151 17.6982 37.5469 16.8024L38.2708 15.167H42.5313L46.7917 15.1722L47.75 16.9951L48.7135 18.818L51.3646 18.9326C52.8177 18.9951 54.2344 18.9587 54.5052 18.8545C55.0677 18.641 53.1979 13.7243 49.3802 5.37533L47.0938 0.385742L42.6354 0.276367L38.1823 0.166992L37.349 2.00553ZM55.8177 9.36491C55.8177 19.8232 55.5052 19.0107 59.4948 19.0107H61.9583V16.7451C61.9583 14.1566 62.1198 14.016 65.0677 14.016C66.9531 14.016 66.9688 14.0264 68.3646 16.2243C69.1354 17.4378 69.9531 18.5576 70.1823 18.7139C70.6719 19.042 76.7031 19.1097 77.026 18.792C77.1458 18.6722 76.5677 17.4639 75.7448 16.1097C74.9219 14.7555 74.25 13.5732 74.25 13.4847C74.25 13.3962 74.8385 12.7347 75.5573 12.016C79.1146 8.45866 77.5417 1.91178 72.8177 0.599284C72.0208 0.375325 67.8698 0.198243 63.5938 0.193034H55.8177V9.36491ZM78.1771 9.50553L78.2813 18.818H84.0417L84.1406 9.50553L84.2448 0.193034H78.0729L78.1771 9.50553ZM85 2.88053V5.56803H93.4323L93.6406 18.818H99.401L99.4844 13.2503C99.526 10.1878 99.5677 7.20345 99.5781 6.62533L99.5938 5.56803H107.656V0.193034H85V2.88053ZM108.516 9.50553L108.615 18.818L110.708 18.9326C111.859 19.0003 113.198 18.9535 113.682 18.8337L114.568 18.6097V0.193034H108.411L108.516 9.50553ZM115.51 0.682617C115.406 0.948243 115.37 5.14095 115.427 9.99512L115.526 18.818H121.672L121.865 13.9222L122.057 9.03158L123.208 11.2139C125.365 15.3076 127.208 18.3649 127.703 18.6826C128.464 19.1618 130.859 19.068 131.552 18.5264C131.891 18.266 133.385 15.9743 134.875 13.4378L137.583 8.83366L137.693 13.8232L137.802 18.818L140.297 18.8389C141.667 18.8493 143.01 18.792 143.271 18.7035C143.641 18.5785 143.75 16.3649 143.75 9.35449V0.166992L135.979 0.385742L134.536 2.88053C129.109 12.2607 129.667 11.4899 129.047 10.4951C127.359 7.80241 124.479 2.68262 123.995 1.52637L123.438 0.193034H119.568C116.792 0.193034 115.641 0.328451 115.51 0.682617ZM144.781 0.443034C144.641 0.588867 144.521 4.71908 144.521 9.62533C144.521 17.4014 144.599 18.5732 145.125 18.7764C145.464 18.9014 149.76 19.0107 154.682 19.0107C161.38 19.0107 163.719 18.8857 164 18.5264C164.208 18.266 164.354 17.1826 164.323 16.1305L164.276 14.2087L157.635 14.1045L151 14.0003L151.24 11.5212L157.396 11.6566C164.432 11.818 164.615 11.7451 164.417 8.95866L164.297 7.2972L151.047 7.08887V5.20345L157.672 5.09928L164.297 4.98991V0.385742L154.672 0.281576C149.375 0.224284 144.927 0.297201 144.781 0.443034ZM41.099 7.68783C40.5365 9.06283 40.0729 10.3597 40.0729 10.568C40.0729 11.0055 44.5469 11.0889 44.8073 10.6566C45.0208 10.3024 42.7604 5.18262 42.3906 5.18262C42.2448 5.18262 41.6667 6.31283 41.099 7.68783ZM62.125 6.50033C61.9948 7.01074 62.0052 7.79199 62.1406 8.22949C62.375 8.95866 62.6927 9.02637 66.0417 9.02637C70.2604 9.02637 71.1771 8.68783 71.1771 7.13053C71.1771 5.70345 70.7396 5.56803 66.1615 5.56803C62.4583 5.56803 62.3542 5.59408 62.125 6.50033ZM12.4167 23.7764C7.74479 24.8024 4.60417 27.2243 2.66667 31.2972C1.57292 33.5941 1.47917 34.1097 1.47917 37.8232C1.47917 44.6774 3.10416 47.693 8.01041 49.943C11.0833 51.3545 14.4948 51.9951 19.7187 52.1305L23.3698 52.2243L23.4792 50.0732L23.5938 47.917L21.5625 47.6774C20.4427 47.542 18.6563 47.4274 17.5937 47.4274C14.3542 47.4222 11.2656 46.417 9.64583 44.8389C7.83854 43.0785 7.30208 41.4639 7.29687 37.8024C7.28646 31.1566 11.151 27.8493 18.4062 28.292C21.5052 28.4795 23.651 29.391 24.2917 30.7868C24.8958 32.1149 24.6458 32.2503 23.1146 31.4326C21.1875 30.4014 15.849 30.4899 13.7187 31.5941C11.4115 32.792 10.5052 34.5628 10.5052 37.8649C10.5052 41.0107 11.0677 42.3285 13.0677 43.8545C14.3958 44.8649 14.6979 44.9274 18.3646 44.9274C21.4167 44.9274 22.4688 44.7868 23.276 44.2555C24.5469 43.4222 24.5781 43.4222 24.8073 44.292C24.9635 44.8857 25.4323 45.016 27.7344 45.0785L30.474 45.1618V38.2972C30.474 33.0472 30.3281 31.016 29.8646 29.6514C29.1927 27.6774 27.5313 25.8337 25.4688 24.7712C22.6042 23.292 16.6719 22.8389 12.4167 23.7764ZM140.38 24.5785C138.995 25.1774 137.63 27.5993 137.615 29.4847C137.604 30.8962 138.453 32.8441 139.474 33.7555C140.042 34.2607 140.297 34.9378 140.297 35.9482V37.4118L133.578 37.6305L133.339 40.0993L136.719 40.2087L140.104 40.318L140.208 49.6774L140.307 59.0316L139.245 58.766C136.62 58.1149 133.443 56.193 131.344 53.9951C130.141 52.7347 129.161 51.5212 129.161 51.292C129.161 51.068 129.781 50.8805 130.536 50.8805C132.146 50.8805 132.161 50.9535 129.927 48.0837L128.198 45.8597L126.557 47.6982C123.995 50.5576 123.885 50.8805 125.464 50.8805C126.734 50.8805 126.813 50.9639 127.474 53.0732C129.021 57.9899 132.917 62.0576 137.359 63.3962C138.938 63.8753 140.266 64.6097 141.37 65.6253L143.016 67.1357L144.63 65.5993C145.792 64.4951 146.948 63.8597 148.724 63.3389C150.724 62.7555 151.661 62.1878 153.604 60.3649C156.068 58.0628 158.094 54.7243 158.568 52.1826C158.792 51.0055 158.938 50.8805 160.115 50.8805C161.693 50.8805 161.724 50.6305 160.359 49.1045C159.781 48.4535 158.953 47.443 158.531 46.8545L157.755 45.7868L155.938 47.9951C154.938 49.2087 154.12 50.3545 154.12 50.542C154.12 50.7295 154.641 50.8805 155.271 50.8805C157.005 50.8805 156.729 51.7764 154.214 54.292C152.13 56.3857 149.167 58.1305 146.729 58.7087L145.672 58.9587V40.1305H152.583V37.4378H145.672V35.943C145.672 34.8232 145.953 34.1514 146.797 33.2451C150.948 28.8024 146.01 22.1305 140.38 24.5785ZM32.0104 35.5212V44.7347H35.0729C38.4948 44.7347 38.6979 44.5524 38.4583 41.6618L38.3438 40.318L43.7188 40.1305C50.9271 39.8701 52.3542 39.0993 53.2135 35.0003C53.5729 33.292 53.5677 32.443 53.1823 31.0107C52.5938 28.8128 51.8802 27.9535 49.8646 27.0264C48.5313 26.4118 47.2604 26.318 40.1667 26.3128L32.0104 26.3024V35.5212ZM54.2813 35.5212V44.7347H73.901L73.7865 42.3389L73.6719 39.9378L67.1458 39.8649L60.6146 39.7972V37.6305L73.8646 37.4222V33.5993H60.4219V31.3128L73.6719 31.1045L73.901 26.3024H54.2813V35.5212ZM74.474 26.9743C74.2135 27.8024 74.2448 41.3024 74.5104 43.2972L74.6979 44.7347H80.776V33.4066L81.7917 34.5628C82.3438 35.193 84.4271 37.7451 86.4167 40.2243L90.0313 44.7347H98.0573V26.3024H92.2969V31.8701C92.2969 34.9326 92.1615 37.4378 91.9948 37.4378C91.7083 37.4378 89.6719 35.0785 84.8073 29.0889L82.5417 26.3024H78.6146C75.2083 26.3024 74.6563 26.3962 74.474 26.9743ZM99.2083 35.5212V44.7347H105.354V39.167C105.354 36.1045 105.438 33.5993 105.542 33.5993C105.927 33.5993 107.391 35.2712 109.87 38.5316C111.26 40.3597 112.917 42.5055 113.547 43.2972L114.698 44.7347H123.016V26.3024H116.87V31.9691L116.865 37.6305L115.24 35.9326C113.667 34.2868 111.526 31.6462 108.859 28.0472L107.568 26.3024H99.2083V35.5212ZM141.135 27.4691C140.083 28.4535 140.01 30.5368 141 31.4274C142.094 32.417 143.943 32.2399 144.875 31.0524C145.922 29.7243 145.88 28.7816 144.729 27.6305C143.583 26.4847 142.26 26.4222 141.135 27.4691ZM38.3229 33.2243L38.3438 34.7712L47.1771 34.5628L47.3021 33.4482C47.375 32.818 47.2083 32.1982 46.9167 32.016C46.6406 31.8389 44.5833 31.6878 42.3594 31.6878L38.3073 31.6826L38.3229 33.2243ZM16.8698 36.1253C16.0521 36.9378 16.1042 38.7139 16.9687 39.4951C17.9427 40.3753 23.2344 40.4014 24.1094 39.5264C24.9792 38.6514 24.8958 36.4118 23.9688 35.917C22.75 35.266 17.5781 35.417 16.8698 36.1253Z" fill="white"/>
</svg>
