<svg width="3137" height="627" viewBox="0 0 3137 627" fill="none" xmlns="http://www.w3.org/2000/svg">
<path d="M0 485.456C0 456.899 0.500312 427.986 1.11527 421.177C7.71303 348.167 50.0617 299.702 112.569 293.614C119.844 292.903 122.679 292.964 123.231 293.817C123.658 294.458 124.013 330.037 124.013 372.873C124.034 456.766 123.961 458.138 118.437 473.962C108.691 501.9 84.3221 524.105 54.0016 532.672C41.692 536.158 31.4775 537.367 14.5193 537.367H0V485.456ZM163.766 390.231L151.905 389.937L152.478 367.873C153.26 337.679 157.356 320.179 167.936 301.886C173.96 291.459 186.916 278.583 195.431 274.569L201.685 271.612L231.39 270.961C279.92 269.894 309.647 265.677 338.227 255.809C365.805 246.296 388.143 230.554 402.192 210.727C411.865 197.077 417.139 183.896 419.453 167.515L420.683 158.805L422.403 165.919C425.623 179.252 427.343 196.61 427.343 215.889C427.343 255.392 419.244 284.711 400.129 314.397C373.488 355.769 327.814 382.619 274.125 388.463C260.669 389.926 194.795 390.984 163.766 390.231ZM0.552418 354.488C-0.104231 353.452 0.135486 201.377 0.833828 170.238L1.15694 156.264H16.0306C50.489 156.264 72.9402 163.957 94.6197 183.196C106.784 193.999 116.154 209.578 120.542 226.316C122.47 233.663 123.252 239.945 123.721 251.987L124.347 267.943L121.845 268.451C120.469 268.726 115.351 269.477 110.484 270.098C88.0536 272.984 67.812 280.158 51.5001 291.002C28.2464 306.449 11.6842 326.541 3.60635 349.072C2.3139 352.669 0.948489 355.109 0.552418 354.488ZM300.683 236.174C304.602 227.546 306.811 215.177 306.009 206.468C303.747 182.108 289.593 164.699 265.682 156.874C252.206 152.463 239.521 151.904 169.895 152.636C99.3629 153.378 85.6459 152.809 71.8249 148.56C40.9728 139.079 17.3022 116.335 6.72285 85.9887C2.981 75.2467 1.0006 62.4315 0.740025 47.2483L0.521151 33.803L127.682 33.4981C259.564 33.1932 270.331 33.4473 293.001 37.4209C329.753 43.8743 365.639 63.8441 384.744 88.4786C397.804 105.318 403.756 122.666 403.631 143.561C403.506 164.323 397.773 180.614 384.422 198.185C368.182 219.537 335.507 236.773 303.08 241.092L298.16 241.743L300.683 236.174Z" fill="#0A0A0A"/>
<path d="M652.5 495V99H816.125C819.975 99 824.925 99.1833 830.975 99.55C837.025 99.7333 842.617 100.283 847.75 101.2C870.667 104.683 889.55 112.292 904.4 124.025C919.433 135.758 930.525 150.608 937.675 168.575C945.008 186.358 948.675 206.158 948.675 227.975C948.675 249.608 945.008 269.408 937.675 287.375C930.342 305.158 919.158 319.917 904.125 331.65C889.275 343.383 870.483 350.992 847.75 354.475C842.617 355.208 836.933 355.758 830.7 356.125C824.65 356.492 819.792 356.675 816.125 356.675H718.775V495H652.5ZM718.775 294.8H813.375C817.042 294.8 821.167 294.617 825.75 294.25C830.333 293.883 834.55 293.15 838.4 292.05C849.4 289.3 858.017 284.442 864.25 277.475C870.667 270.508 875.158 262.625 877.725 253.825C880.475 245.025 881.85 236.408 881.85 227.975C881.85 219.542 880.475 210.925 877.725 202.125C875.158 193.142 870.667 185.167 864.25 178.2C858.017 171.233 849.4 166.375 838.4 163.625C834.55 162.525 830.333 161.883 825.75 161.7C821.167 161.333 817.042 161.15 813.375 161.15H718.775V294.8ZM1100.96 503.25C1070.89 503.25 1044.49 496.742 1021.76 483.725C999.027 470.708 981.244 452.65 968.411 429.55C955.761 406.45 949.436 379.867 949.436 349.8C949.436 317.35 955.669 289.208 968.136 265.375C980.602 241.358 997.927 222.75 1020.11 209.55C1042.29 196.35 1067.96 189.75 1097.11 189.75C1127.91 189.75 1154.04 196.992 1175.49 211.475C1197.12 225.775 1213.16 246.033 1223.61 272.25C1234.06 298.467 1238 329.358 1235.44 364.925H1169.71V340.725C1169.53 308.458 1163.84 284.9 1152.66 270.05C1141.48 255.2 1123.88 247.775 1099.86 247.775C1072.73 247.775 1052.56 256.208 1039.36 273.075C1026.16 289.758 1019.56 314.233 1019.56 346.5C1019.56 376.567 1026.16 399.85 1039.36 416.35C1052.56 432.85 1071.81 441.1 1097.11 441.1C1113.43 441.1 1127.45 437.525 1139.19 430.375C1151.1 423.042 1160.27 412.5 1166.69 398.75L1232.14 418.55C1220.77 445.317 1203.17 466.125 1179.34 480.975C1155.69 495.825 1129.56 503.25 1100.96 503.25ZM998.661 364.925V314.875H1202.99V364.925H998.661ZM1461.16 495V352C1461.16 342.65 1460.52 332.292 1459.24 320.925C1457.95 309.558 1454.93 298.65 1450.16 288.2C1445.58 277.567 1438.61 268.858 1429.26 262.075C1420.1 255.292 1407.63 251.9 1391.86 251.9C1383.43 251.9 1375.09 253.275 1366.84 256.025C1358.59 258.775 1351.07 263.542 1344.29 270.325C1337.69 276.925 1332.37 286.092 1328.34 297.825C1324.3 309.375 1322.29 324.225 1322.29 342.375L1282.96 325.6C1282.96 300.3 1287.82 277.383 1297.54 256.85C1307.44 236.317 1321.92 220 1340.99 207.9C1360.05 195.617 1383.52 189.475 1411.39 189.475C1433.39 189.475 1451.54 193.142 1465.84 200.475C1480.14 207.808 1491.5 217.158 1499.94 228.525C1508.37 239.892 1514.6 251.992 1518.64 264.825C1522.67 277.658 1525.24 289.85 1526.34 301.4C1527.62 312.767 1528.26 322.025 1528.26 329.175V495H1461.16ZM1255.19 495V198H1314.31V290.125H1322.29V495H1255.19ZM1772.45 495V352C1772.45 342.65 1771.81 332.292 1770.53 320.925C1769.24 309.558 1766.22 298.65 1761.45 288.2C1756.87 277.567 1749.9 268.858 1740.55 262.075C1731.38 255.292 1718.92 251.9 1703.15 251.9C1694.72 251.9 1686.38 253.275 1678.13 256.025C1669.88 258.775 1662.36 263.542 1655.58 270.325C1648.98 276.925 1643.66 286.092 1639.63 297.825C1635.59 309.375 1633.58 324.225 1633.58 342.375L1594.25 325.6C1594.25 300.3 1599.11 277.383 1608.83 256.85C1618.73 236.317 1633.21 220 1652.28 207.9C1671.34 195.617 1694.81 189.475 1722.68 189.475C1744.68 189.475 1762.83 193.142 1777.13 200.475C1791.43 207.808 1802.79 217.158 1811.23 228.525C1819.66 239.892 1825.89 251.992 1829.93 264.825C1833.96 277.658 1836.53 289.85 1837.63 301.4C1838.91 312.767 1839.55 322.025 1839.55 329.175V495H1772.45ZM1566.48 495V198H1625.6V290.125H1633.58V495H1566.48ZM1906.62 627L1963.82 469.975L1964.92 516.175L1835.4 198H1904.42L1996.27 433.4H1978.67L2068.05 198H2134.32L1968.77 627H1906.62ZM2309.81 503.25C2270.21 503.25 2236.29 494.633 2208.06 477.4C2179.83 459.983 2158.1 435.783 2142.88 404.8C2127.85 373.817 2120.33 337.883 2120.33 297C2120.33 256.117 2127.85 220.183 2142.88 189.2C2158.1 158.217 2179.83 134.108 2208.06 116.875C2236.29 99.4583 2270.21 90.75 2309.81 90.75C2349.41 90.75 2383.33 99.4583 2411.56 116.875C2439.98 134.108 2461.7 158.217 2476.73 189.2C2491.95 220.183 2499.56 256.117 2499.56 297C2499.56 337.883 2491.95 373.817 2476.73 404.8C2461.7 435.783 2439.98 459.983 2411.56 477.4C2383.33 494.633 2349.41 503.25 2309.81 503.25ZM2309.81 440.825C2336.39 441.008 2358.48 435.142 2376.08 423.225C2393.87 411.308 2407.16 394.533 2415.96 372.9C2424.94 351.267 2429.43 325.967 2429.43 297C2429.43 268.033 2424.94 242.917 2415.96 221.65C2407.16 200.2 2393.87 183.517 2376.08 171.6C2358.48 159.683 2336.39 153.542 2309.81 153.175C2283.23 152.992 2261.13 158.858 2243.53 170.775C2225.93 182.692 2212.64 199.467 2203.66 221.1C2194.86 242.733 2190.46 268.033 2190.46 297C2190.46 325.967 2194.86 351.175 2203.66 372.625C2212.46 393.892 2225.66 410.483 2243.26 422.4C2261.04 434.317 2283.23 440.458 2309.81 440.825ZM2726.72 495V352C2726.72 342.65 2726.08 332.292 2724.8 320.925C2723.51 309.558 2720.49 298.65 2715.72 288.2C2711.14 277.567 2704.17 268.858 2694.82 262.075C2685.66 255.292 2673.19 251.9 2657.42 251.9C2648.99 251.9 2640.65 253.275 2632.4 256.025C2624.15 258.775 2616.63 263.542 2609.85 270.325C2603.25 276.925 2597.93 286.092 2593.9 297.825C2589.86 309.375 2587.85 324.225 2587.85 342.375L2548.52 325.6C2548.52 300.3 2553.38 277.383 2563.1 256.85C2573 236.317 2587.48 220 2606.55 207.9C2625.61 195.617 2649.08 189.475 2676.95 189.475C2698.95 189.475 2717.1 193.142 2731.4 200.475C2745.7 207.808 2757.06 217.158 2765.5 228.525C2773.93 239.892 2780.16 251.992 2784.2 264.825C2788.23 277.658 2790.8 289.85 2791.9 301.4C2793.18 312.767 2793.82 322.025 2793.82 329.175V495H2726.72ZM2520.75 495V198H2579.87V290.125H2587.85V495H2520.75ZM2962.78 503.25C2932.71 503.25 2906.31 496.742 2883.58 483.725C2860.84 470.708 2843.06 452.65 2830.23 429.55C2817.58 406.45 2811.25 379.867 2811.25 349.8C2811.25 317.35 2817.48 289.208 2829.95 265.375C2842.42 241.358 2859.74 222.75 2881.93 209.55C2904.11 196.35 2929.78 189.75 2958.93 189.75C2989.73 189.75 3015.85 196.992 3037.3 211.475C3058.93 225.775 3074.98 246.033 3085.43 272.25C3095.88 298.467 3099.82 329.358 3097.25 364.925H3031.53V340.725C3031.34 308.458 3025.66 284.9 3014.48 270.05C3003.29 255.2 2985.69 247.775 2961.68 247.775C2934.54 247.775 2914.38 256.208 2901.18 273.075C2887.98 289.758 2881.38 314.233 2881.38 346.5C2881.38 376.567 2887.98 399.85 2901.18 416.35C2914.38 432.85 2933.63 441.1 2958.93 441.1C2975.24 441.1 2989.27 437.525 3001 430.375C3012.92 423.042 3022.08 412.5 3028.5 398.75L3093.95 418.55C3082.58 445.317 3064.98 466.125 3041.15 480.975C3017.5 495.825 2991.38 503.25 2962.78 503.25ZM2860.48 364.925V314.875H3064.8V364.925H2860.48Z" fill="#0A0A0A"/>
</svg>
