<svg width="3137" height="580" viewBox="0 0 3137 580" fill="none" xmlns="http://www.w3.org/2000/svg">
<path d="M660.418 483.381V52.2203H728.527V483.381H660.418ZM760.689 289.359V224.684H805.464C815.134 224.684 823.753 223.247 831.321 220.373C839.309 217.499 845.615 212.161 850.24 204.359C855.285 196.557 857.807 185.059 857.807 169.865C857.807 155.494 855.285 144.612 850.24 137.221C845.615 129.419 839.309 124.081 831.321 121.206C823.753 118.332 815.134 116.895 805.464 116.895H760.689V52.2203H811.771C838.678 52.6309 860.54 57.3532 877.357 66.387C894.174 75.4209 906.577 88.7664 914.565 106.424C922.553 124.081 926.547 146.049 926.547 172.329C926.547 199.842 922.342 222.221 913.934 239.467C905.526 256.714 892.702 269.238 875.465 277.041C858.648 284.843 837.417 288.948 811.771 289.359H760.689ZM963.404 483.381V52.2203H1192.95V117.51H1031.51V236.388H1133.68V302.294H1031.51V417.476H1192.95V483.381H963.404ZM1492.09 483.381L1244.25 95.3369V52.2203H1301.01L1524.88 403.309V483.381H1492.09ZM1244.25 483.381V159.395H1249.29L1312.36 257.945V483.381H1244.25ZM1519.84 338.635L1456.78 239.467V52.2203H1524.88V338.635H1519.84ZM1825.89 483.381L1578.04 95.3369V52.2203H1634.8L1858.68 403.309V483.381H1825.89ZM1578.04 483.381V159.395H1583.09L1646.16 257.945V483.381H1578.04ZM1853.63 338.635L1790.57 239.467V52.2203H1858.68V338.635H1853.63ZM1990.04 483.381V328.163L1896.7 52.2203H1967.33L2060.04 327.547V483.381H1990.04ZM2078.33 283.816L2046.79 177.873L2095.98 52.2203H2165.99L2082.74 283.816H2078.33ZM2365.2 486.461V419.94C2371.92 419.94 2378.65 418.502 2385.38 415.628C2392.53 412.753 2399.05 408.647 2404.93 403.309C2411.23 397.56 2416.28 390.99 2420.07 383.599C2423.85 375.797 2425.74 367.173 2425.74 357.729V178.489C2425.74 170.687 2424.27 163.09 2421.32 155.699C2418.8 148.307 2414.81 141.532 2409.35 135.373C2404.3 129.213 2397.99 124.285 2390.43 120.59C2383.28 116.895 2374.87 115.046 2365.2 115.046V49.1406C2384.12 49.1406 2401.35 52.6309 2416.91 59.6117C2432.47 66.5924 2445.92 76.0369 2457.27 87.9451C2469.05 99.4426 2478.08 112.378 2484.39 126.749C2490.7 140.711 2493.85 154.672 2493.85 168.634V359.577C2493.85 378.877 2490.28 396.328 2483.13 411.932C2475.98 427.536 2466.31 440.881 2454.12 451.968C2442.35 463.056 2428.68 471.679 2413.13 477.838C2397.57 483.587 2381.59 486.461 2365.2 486.461ZM2330.51 486.461C2315.38 486.461 2300.25 483.587 2285.11 477.838C2270.39 471.679 2256.73 463.056 2244.12 451.968C2231.5 440.471 2221.41 426.92 2213.85 411.316C2206.28 395.712 2202.49 378.465 2202.49 359.577V168.634C2202.49 154.262 2205.64 140.095 2211.95 126.134C2218.26 111.762 2227.09 98.8264 2238.44 87.3292C2250.22 75.8316 2263.88 66.5924 2279.44 59.6117C2294.99 52.6309 2312.22 49.1406 2331.14 49.1406V115.046C2321.47 115.046 2312.86 116.895 2305.29 120.59C2298.14 124.285 2291.83 129.419 2286.37 135.989C2281.32 142.148 2277.33 148.924 2274.39 156.315C2271.86 163.706 2270.6 171.098 2270.6 178.489V357.729C2270.6 367.173 2272.49 375.797 2276.28 383.599C2280.07 391.401 2284.9 397.971 2290.78 403.309C2296.67 408.647 2302.98 412.753 2309.71 415.628C2316.85 418.502 2323.79 419.94 2330.51 419.94V486.461ZM2793.4 483.381L2545.56 95.3369V52.2203H2602.32L2826.19 403.309V483.381H2793.4ZM2545.56 483.381V159.395H2550.6L2613.66 257.945V483.381H2545.56ZM2821.14 338.635L2758.08 239.467V52.2203H2826.19V338.635H2821.14ZM2878.72 483.381V52.2203H3108.27V117.51H2946.83V236.388H3048.99V302.294H2946.83V417.476H3108.27V483.381H2878.72Z" fill="white"/>
<path d="M0 478.447C0 448.222 0.528622 417.621 1.17838 410.414C8.14947 333.141 52.8945 281.846 118.939 275.402C126.625 274.65 129.62 274.714 130.204 275.617C130.655 276.295 131.031 313.953 131.031 359.29C131.053 448.082 130.975 449.534 125.138 466.281C114.841 495.851 89.0935 519.353 57.0573 528.42C44.0512 532.11 33.2586 533.39 15.3408 533.39H0V478.447ZM173.033 377.661L160.5 377.35L161.106 353.997C161.932 322.041 166.26 303.519 177.438 284.158C183.804 273.122 197.493 259.494 206.49 255.245L213.097 252.115L244.484 251.426C295.76 250.298 327.168 245.834 357.365 235.389C386.504 225.321 410.106 208.66 424.95 187.675C435.171 173.229 440.742 159.278 443.187 141.94L444.487 132.721L446.304 140.251C449.707 154.362 451.524 172.734 451.524 193.139C451.524 234.948 442.967 265.98 422.77 297.399C394.622 341.187 346.363 369.605 289.636 375.79C275.419 377.338 205.818 378.458 173.033 377.661ZM0.583677 339.832C-0.110129 338.735 0.143152 177.779 0.88101 144.822L1.2224 130.032H16.9377C53.3459 130.032 77.0675 138.174 99.9737 158.536C112.826 169.97 122.727 186.459 127.363 204.174C129.4 211.951 130.226 218.599 130.721 231.345L131.383 248.232L128.74 248.77C127.286 249.061 121.879 249.856 116.736 250.513C93.0361 253.567 71.6492 261.161 54.4142 272.638C29.8447 288.987 12.3453 310.252 3.81042 334.099C2.44483 337.906 1.00216 340.488 0.583677 339.832ZM317.697 214.608C321.837 205.476 324.172 192.386 323.324 183.168C320.935 157.385 305.979 138.96 280.716 130.677C266.477 126.01 253.074 125.418 179.508 126.192C104.985 126.977 90.4921 126.375 75.8891 121.879C43.2912 111.844 18.2812 87.771 7.10326 55.653C3.14967 44.2837 1.05722 30.7202 0.781899 14.6504L0.55064 0.419914L134.907 0.0972412C274.251 -0.225445 285.628 0.043444 309.581 4.24912C348.412 11.0793 386.328 32.2152 406.515 58.2883C420.314 76.1113 426.602 94.4718 426.47 116.587C426.338 138.561 420.281 155.804 406.174 174.401C389.016 197 354.491 215.242 320.23 219.814L315.032 220.503L317.697 214.608Z" fill="white"/>
</svg>
