<svg width="389" height="85" viewBox="0 0 389 85" fill="none" xmlns="http://www.w3.org/2000/svg">
<path d="M106.055 0.0593456C106.685 0.153095 106.685 0.153095 107.268 0.351012C108.013 0.955178 108.482 1.67914 108.914 2.54372C108.94 2.9708 108.951 3.4031 108.951 3.83539V5.5906L108.956 6.56976C108.956 7.46039 108.956 8.35622 108.956 9.25205C108.956 10.2208 108.961 11.1843 108.961 12.1479C108.966 14.2573 108.966 16.3718 108.966 18.4812L108.971 22.4343C108.977 27.0281 108.977 31.6218 108.977 36.2156V36.9291C108.982 40.7416 108.987 44.5541 108.992 48.3666C108.997 52.2833 109.003 56.1948 109.003 60.1062C109.003 62.3041 109.003 64.5021 109.008 66.7C109.013 68.5698 109.013 70.4448 109.013 72.3146C109.013 73.2677 109.013 74.226 109.013 75.1791C109.018 76.2156 109.018 77.2468 109.013 78.2833L109.018 79.2C109.013 80.4239 108.977 81.3198 108.523 82.4656C108.044 83.1896 107.763 83.5385 106.992 83.9396C106.159 84.2625 105.424 84.5073 104.529 84.4916C102.805 83.8718 101.362 82.7416 99.9193 81.6479L98.5391 80.6114L97.8307 80.0802C96.7266 79.2573 95.6172 78.4396 94.5078 77.6218L93.8568 77.1427C91.3724 75.3093 88.8672 73.5073 86.362 71.7104C84.1745 70.1375 81.9922 68.5541 79.8464 66.9291C78.3724 65.8198 76.8828 64.7364 75.3724 63.6791L74.7943 63.2729L73.6224 62.4448L73.0078 62.0177L72.3568 61.5541C71.6901 61.0906 71.0286 60.6166 70.3724 60.1479L69.763 59.7208C66.763 57.575 66.763 57.575 65.862 56.0281C65.5911 55.3927 65.5391 54.9604 65.5339 54.2729L65.5234 53.5698L65.5182 52.8093L65.513 52.0073C65.5026 51.1218 65.5026 50.2416 65.4974 49.3614L65.487 47.5229C65.4818 46.2364 65.4818 44.95 65.4766 43.6635C65.4766 42.0177 65.4609 40.3718 65.4453 38.7312C65.4349 37.4604 65.4297 36.1948 65.4297 34.9291C65.4297 34.3198 65.4245 33.7156 65.4193 33.1114C65.4089 32.2625 65.4089 31.4083 65.4141 30.5593L65.3984 29.8093C65.4141 28.7677 65.487 27.9968 65.9557 27.0593C66.8307 25.7156 67.6901 24.8302 69.0182 23.9343L69.5234 23.5906C70.0443 23.2416 70.5651 22.8927 71.0911 22.5489C71.3984 22.3406 71.7057 22.1375 72.013 21.9291C72.6693 21.4916 73.3307 21.0541 73.9922 20.6166C75.5026 19.6114 77.0078 18.5854 78.5078 17.5646L79.4036 16.9552C80.8047 16.0021 82.2057 15.0437 83.6016 14.0906C86.4922 12.1114 89.3984 10.1583 92.3151 8.2208C93.888 7.17393 95.4505 6.11664 97.0078 5.04372C98.4245 4.06455 99.8464 3.0906 101.273 2.13226L101.773 1.78851C104.586 -0.0916958 104.586 -0.0916971 106.049 0.0593456" fill="#121213"/>
<path d="M3.07813 0.00195312C6.03646 0.251953 9.33333 3.40299 11.7188 5.05924C12.9635 5.91341 14.2083 6.76237 15.4583 7.61133C17.3281 8.88737 19.2031 10.1686 21.0729 11.4499C22.9271 12.7155 24.7865 13.9863 26.6406 15.252L27.401 15.7676L31.276 18.4082C32.2917 19.1009 33.3073 19.7936 34.3229 20.4863C35.224 21.1009 36.1198 21.7155 37.0208 22.3249L38.1875 23.1113L38.7031 23.4603C39.0104 23.6738 39.3177 23.8874 39.625 24.1061C39.9531 24.3457 40.2865 24.5697 40.625 24.7884C41.1875 25.1895 41.6146 25.5645 42.0417 26.1113C42.3229 27.1009 42.3073 28.0592 42.2917 29.0853L42.3073 29.9863C42.3177 30.9655 42.3125 31.9395 42.3073 32.9186C42.3073 33.6009 42.3125 34.2832 42.3125 34.9655C42.3177 36.5749 42.3125 38.1842 42.3021 39.7936C42.2969 41.4395 42.3073 43.0853 42.3229 44.7311C42.3281 46.1374 42.3281 47.5436 42.3229 48.9499C42.3229 49.6217 42.3281 50.2988 42.3333 50.9707C42.3385 51.9134 42.3333 52.8561 42.3229 53.7988L42.3333 54.6374C42.3177 55.4186 42.2708 56.0592 42.0417 56.8092C41.4063 57.6009 40.6875 58.1582 39.849 58.7259C39.4948 58.9863 39.1406 59.2467 38.7865 59.5072C38.4219 59.7624 38.0573 60.0176 37.6927 60.2676L36.4583 61.127L35.8229 61.5697C34.7969 62.2936 33.776 63.0228 32.7552 63.7624L32.1406 64.2051C30.3958 65.4759 28.6563 66.7572 26.9219 68.0384C25.3542 69.1947 23.776 70.3353 22.1875 71.4603C19.3125 73.5124 16.4479 75.5853 13.6042 77.6895C5.10938 83.9603 5.10938 83.9603 3.49479 84.4238L2.84896 84.4915C1.84375 84.0228 1.10938 83.403 0.380208 82.5697C0.114584 81.7676 0.0729167 81.2572 0.0729167 80.4238L0.0677083 79.5905V77.7051C0.062499 76.8145 0.0625 75.9238 0.0625 75.0332C0.0625 74.0697 0.0624997 73.1113 0.0572917 72.1478C0.0572917 70.0488 0.0520833 67.9447 0.0520833 65.8457V61.9082C0.046874 58.278 0.0416667 54.6426 0.0416667 51.0124V47.4759C0.0416667 43.679 0.036458 39.8822 0.03125 36.0905C0.0208327 32.1895 0.0208333 28.2936 0.0208333 24.3978C0.0208333 22.2103 0.0156247 20.0228 0.0104167 17.8353C0.0104167 15.9707 0.00520733 14.1061 0.0104167 12.2467C0.0104167 11.2936 0.0104177 10.3457 0.00520833 9.39258C0.00520833 8.36133 0.00520833 7.33008 0.00520833 6.29883L0 5.39258C0.0104173 3.76758 0.135417 2.60091 0.932292 1.16862C1.65104 0.408203 2.03125 0.100912 3.07813 0.00195312Z" fill="#131314"/>
<path d="M261.57 6.92871C287.711 6.92871 287.711 6.92871 292.461 9.52246C294.596 10.8818 296.138 12.512 297.383 14.71C299.081 17.9912 299.482 21.1527 299.477 24.8141L299.482 25.8454C299.482 26.5589 299.482 27.2725 299.482 27.986C299.482 29.0693 299.487 30.1527 299.492 31.236C299.492 31.9339 299.492 32.6318 299.492 33.3298L299.503 34.2933C299.482 37.5173 298.961 40.5693 297.419 43.4287C296.195 45.3506 294.721 46.9339 292.742 48.0798C292.268 48.3089 292.268 48.3089 291.445 48.585C291.617 50.5277 292.268 52.3037 292.883 54.1423L293.237 55.2256C293.492 55.9912 293.742 56.7568 293.997 57.5225C294.393 58.71 294.789 59.9027 295.18 61.0954C295.701 62.6787 296.227 64.2568 296.747 65.8402C297.633 68.5173 298.513 71.1943 299.388 73.8766C299.612 74.5589 299.836 75.2412 300.065 75.9287L300.461 77.1475L300.805 78.1839C301.039 79.0068 301.039 79.0068 301.039 79.8298H288.159C285.117 70.0641 282.081 60.2933 279.112 50.5016L274.18 50.2308V79.8298H261.57V6.92871ZM274.18 17.887V39.5433C280.461 39.9652 280.461 39.9652 283.773 38.4443C284.503 37.8818 284.503 37.8818 285.008 37.2308L285.529 36.611C286.091 35.7933 286.466 35.0745 286.57 34.0693C286.602 33.4183 286.612 32.7673 286.617 32.111C286.617 31.8714 286.622 31.6318 286.622 31.3818C286.628 30.8714 286.628 30.361 286.628 29.8558C286.633 29.0798 286.648 28.3089 286.659 27.5381C286.727 24.5381 286.727 24.5381 285.878 21.7048C285.195 20.5693 284.346 19.6839 283.227 18.986C280.263 17.5537 277.602 17.887 274.18 17.887ZM349.003 6.92871C373.482 6.92871 373.482 6.92871 376.872 8.19434L377.456 8.40788C379.893 9.34538 382.143 10.7725 383.924 12.6943C386.013 15.2777 387.482 18.335 388.091 21.611C388.477 24.0954 388.508 26.6058 388.508 29.1162L388.513 30.1423C388.513 31.0641 388.513 31.9808 388.513 32.9027L388.518 34.6318C388.518 36.6527 388.518 38.6735 388.518 40.6891C388.518 42.5641 388.523 44.4339 388.529 46.3037C388.529 47.9183 388.534 49.5381 388.534 51.1527C388.534 52.1162 388.534 53.0745 388.534 54.0381C388.57 65.5068 388.57 65.5068 386.102 70.2829C385.643 71.0277 385.159 71.7308 384.633 72.4287L384.216 73.012C382.414 75.335 379.617 76.8037 376.992 78.012C368.555 81.4391 356.857 79.8298 349.003 79.8298V6.92871ZM361.336 18.4391C361.331 24.8662 361.326 31.2933 361.32 37.7204C361.32 40.7048 361.32 43.6891 361.315 46.6735C361.31 49.2725 361.31 51.8714 361.31 54.4704C361.31 55.8506 361.31 57.2256 361.305 58.6058C361.305 59.9027 361.305 61.1943 361.305 62.4912C361.305 62.9652 361.305 63.4443 361.305 63.9183C361.299 64.5693 361.299 65.2152 361.305 65.8662L361.299 66.4443C361.299 66.887 361.315 67.3298 361.336 67.7725L361.612 68.0433C364.784 68.3506 367.992 68.2673 370.93 66.9495C372.451 66.2048 373.518 65.3402 374.492 63.9339C375.398 62.2048 375.893 60.6423 375.898 58.6787L375.904 57.8298V55.9339C375.904 55.0537 375.909 54.1683 375.909 53.2881C375.909 52.736 375.909 52.1839 375.909 51.6318C375.914 49.6995 375.914 47.7725 375.914 45.8454C375.914 44.0485 375.914 42.2568 375.919 40.46C375.924 38.9183 375.924 37.3766 375.924 35.8298C375.924 34.9131 375.924 33.9912 375.93 33.0693C375.93 32.0433 375.93 31.0173 375.93 29.986C375.93 29.6839 375.93 29.3818 375.935 29.0745C375.924 26.9079 375.784 24.8037 374.68 22.8923C374.091 21.8975 373.445 21.1214 372.57 20.3558L371.992 19.7725C370.581 18.8558 368.971 18.4964 367.299 18.3714C366.388 18.3558 365.482 18.3662 364.576 18.387L363.622 18.3975C362.862 18.4079 362.096 18.4183 361.336 18.4391ZM147.831 6.92871H163.727C164.159 8.00684 164.43 8.89225 164.659 10.0173L164.872 11.0537L165.102 12.1787L165.341 13.361C165.555 14.4027 165.768 15.4443 165.982 16.486C166.19 17.512 166.398 18.5329 166.607 19.5589C166.898 20.986 167.19 22.4183 167.482 23.8506C168.758 30.1058 170.049 36.3558 171.346 42.6058C172.643 48.8662 173.935 55.1266 175.227 61.387L175.758 63.9756C176.607 68.0745 177.445 72.1683 178.237 76.2777L178.414 77.1839L178.57 78.0016L178.706 78.7152C178.799 79.2829 178.799 79.2829 178.799 79.8298H165.372C164.31 74.111 164.31 74.111 163.977 72.3193L163.711 70.8923L163.576 70.1631L163.445 69.4391L163.331 68.8193C163.102 67.6475 162.867 66.4756 162.633 65.3037H148.93L148.654 68.0433C148.586 68.512 148.508 68.9756 148.419 69.4391L148.284 70.1631L148.148 70.8923L148.018 71.585C147.862 72.4235 147.701 73.2673 147.539 74.111L146.461 79.8298H132.758C133.237 76.9495 133.716 74.1006 134.326 71.2464L134.534 70.2516C134.716 69.3766 134.904 68.4964 135.091 67.6162C135.289 66.6787 135.487 65.7464 135.685 64.8089C136.049 63.0693 136.419 61.335 136.784 59.5954C137.471 56.3558 138.154 53.111 138.836 49.8714L139.044 48.9027C140.065 44.0381 141.07 39.1787 142.06 34.3089C142.966 29.8558 143.893 25.4079 144.846 20.96C145.122 19.6527 145.398 18.3402 145.674 17.0277L145.826 16.3089C146.195 14.5485 146.565 12.7881 146.935 11.0277C147.227 9.65788 147.529 8.29329 147.831 6.92871ZM155.508 28.5798C155.055 29.8245 154.779 31.0537 154.56 32.3558L154.451 32.9912C154.336 33.6787 154.216 34.3662 154.102 35.0537C153.935 36.0381 153.763 37.0173 153.591 38.0016L153.461 38.7777C153.122 40.7152 152.773 42.6475 152.414 44.585L152.263 45.4235C152.06 46.512 151.857 47.6058 151.654 48.6943C151.513 49.4495 151.372 50.21 151.232 50.9652L151.102 51.6527C151.008 52.1839 150.919 52.7152 150.846 53.2464L151.122 53.5173C151.789 53.5433 152.456 53.5485 153.128 53.5433H153.732C154.372 53.5433 155.018 53.5381 155.659 53.5381C156.096 53.5329 156.529 53.5329 156.961 53.5329C158.029 53.5277 159.096 53.5225 160.164 53.5173L160.44 52.9704C160.331 52.2256 160.206 51.4808 160.065 50.7464L159.935 50.0485C159.789 49.2881 159.643 48.5225 159.497 47.762L159.195 46.1787C158.987 45.0798 158.779 43.9756 158.565 42.8714C158.305 41.4808 158.039 40.0902 157.784 38.6943C157.586 37.637 157.388 36.5798 157.19 35.5225C157.096 35.0173 157.003 34.512 156.909 34.0068C156.779 33.2985 156.643 32.5902 156.508 31.887L156.393 31.2516C156.211 30.2829 156.013 29.4287 155.508 28.5798Z" fill="#111112"/>
<path d="M308.445 6.92871H341.06V18.986H321.326V37.3506H338.044V48.3089H321.326V68.0433H341.06V79.8298H308.445V6.92871Z" fill="#141415"/>
<path d="M222.932 6.92871H253.901V18.986H235.536L235.813 37.8975L251.984 38.1683V48.3089L235.813 48.585V79.8298H222.656L222.932 6.92871Z" fill="#111112"/>
<path d="M185.109 6.92871H197.99L198.266 67.7725L215.802 68.0433V79.8298H185.109V6.92871Z" fill="#151516"/>
<path d="M49.513 27.4339L50.2422 27.4235L51.0339 27.4183L51.8516 27.4079C52.4245 27.4079 52.9922 27.4027 53.5651 27.4027C54.4349 27.3975 55.3047 27.3818 56.1745 27.3714C56.7266 27.3714 57.2839 27.3662 57.8359 27.3662L58.6224 27.3506C60.3984 27.3558 60.3984 27.3558 61.2057 27.7256C61.7109 28.0537 62.1693 28.4287 62.5964 28.8506C62.6276 29.6579 62.638 30.4548 62.6432 31.2568L62.6484 32.0225C62.6536 32.861 62.6589 33.6995 62.6589 34.5381L62.6641 35.4027C62.6693 36.9131 62.6745 38.4235 62.6745 39.9391C62.6797 41.5016 62.6901 43.0641 62.7005 44.6266C62.7057 45.8298 62.7057 47.0277 62.7109 48.2308C62.7109 48.8089 62.7109 49.3818 62.7161 49.96C62.7266 50.7673 62.7266 51.5745 62.7214 52.3766L62.7318 53.1058C62.7266 53.7152 62.7109 54.2881 62.5964 54.887C62.1068 55.5798 62.1068 55.5798 61.4974 55.986C60.7578 56.262 60.0651 56.2933 59.2734 56.2985L58.612 56.3037H57.9036L57.1693 56.3089C56.6536 56.3089 56.138 56.3089 55.6224 56.3089C54.8411 56.3089 54.0547 56.3141 53.2734 56.3193C52.7734 56.3245 52.2734 56.3245 51.7734 56.3245L51.0651 56.3298C49.7109 56.3245 48.5234 56.2204 47.2474 55.71C46.7891 55.2933 46.7891 55.2933 46.4245 54.6162C46.3411 53.8037 46.3047 52.9912 46.3099 52.1735L46.2995 51.4235C46.2943 50.611 46.2943 49.7933 46.2943 48.9808L46.2891 47.2829C46.2839 46.0954 46.2839 44.9079 46.2891 43.7152C46.2891 42.1943 46.2786 40.6735 46.2682 39.1527C46.263 37.9808 46.263 36.8141 46.263 35.6423C46.263 35.0798 46.2578 34.5173 46.2526 33.96C46.2474 33.1735 46.2526 32.387 46.2578 31.6058L46.2422 30.9027C46.2526 30.2829 46.2786 29.7308 46.4245 29.1266C47.3724 27.9443 48.0234 27.4548 49.513 27.4339Z" fill="#111112"/>
<path d="M43.1328 27.7568H43.4089V55.71H43.1328V27.7568Z" fill="#020003"/>
</svg>
