<svg xmlns="http://www.w3.org/2000/svg" xmlns:xlink="http://www.w3.org/1999/xlink" width="552" zoomAndPan="magnify" viewBox="0 0 414 103.5" height="138" preserveAspectRatio="xMidYMid meet" version="1.2"><defs><clipPath id="bed257fd5e"><path d="M 0.996094 0 L 413.003906 0 L 413.003906 103.003906 L 0.996094 103.003906 Z M 0.996094 0 "/></clipPath><clipPath id="b9a83ef4ca"><path d="M 1 0 L 412.257812 0 L 412.257812 103.003906 L 1 103.003906 Z M 1 0 "/></clipPath><clipPath id="5070ff7075"><path d="M 1 101 L 412.257812 101 L 412.257812 103.003906 L 1 103.003906 Z M 1 101 "/></clipPath><clipPath id="dd3e4bb553"><path d="M 1 101 L 151 101 L 151 103.003906 L 1 103.003906 Z M 1 101 "/></clipPath><clipPath id="8c40376ccb"><path d="M 149 101 L 264 101 L 264 103.003906 L 149 103.003906 Z M 149 101 "/></clipPath><clipPath id="e35aa2d4df"><path d="M 1 101 L 69 101 L 69 103.003906 L 1 103.003906 Z M 1 101 "/></clipPath><clipPath id="beac5d5d90"><path d="M 212 101 L 264 101 L 264 103.003906 L 212 103.003906 Z M 212 101 "/></clipPath><clipPath id="d4a452ba9d"><path d="M 122 101 L 151 101 L 151 103.003906 L 122 103.003906 Z M 122 101 "/></clipPath><clipPath id="600fa9253a"><path d="M 97 101 L 124 101 L 124 103.003906 L 97 103.003906 Z M 97 101 "/></clipPath><clipPath id="f6c354489c"><path d="M 149 101 L 175 101 L 175 103.003906 L 149 103.003906 Z M 149 101 "/></clipPath><clipPath id="305f0ee5d3"><path d="M 262 101 L 283 101 L 283 103.003906 L 262 103.003906 Z M 262 101 "/></clipPath><clipPath id="596ebdcae5"><path d="M 173 101 L 195 101 L 195 103.003906 L 173 103.003906 Z M 173 101 "/></clipPath><clipPath id="95f5c57cab"><path d="M 139 101 L 151 101 L 151 103.003906 L 139 103.003906 Z M 139 101 "/></clipPath><clipPath id="4e4c48e49d"><path d="M 162 101 L 175 101 L 175 103.003906 L 162 103.003906 Z M 162 101 "/></clipPath><clipPath id="61c9c5dc09"><path d="M 254 101 L 264 101 L 264 103.003906 L 254 103.003906 Z M 254 101 "/></clipPath><clipPath id="f1ba6a632e"><path d="M 262 101 L 272 101 L 272 103.003906 L 262 103.003906 Z M 262 101 "/></clipPath><clipPath id="a64a286521"><path d="M 173 101 L 184 101 L 184 103.003906 L 173 103.003906 Z M 173 101 "/></clipPath></defs><g id="99758cc258"><g clip-rule="nonzero" clip-path="url(#bed257fd5e)"><path style=" stroke:none;fill-rule:nonzero;fill:#ffffff;fill-opacity:1;" d="M 0.996094 0 L 413.003906 0 L 413.003906 103.003906 L 0.996094 103.003906 Z M 0.996094 0 "/></g><g clip-rule="nonzero" clip-path="url(#b9a83ef4ca)"><path style=" stroke:none;fill-rule:nonzero;fill:#fdfdfd;fill-opacity:1;" d="M 1 0 L 412.253906 0 L 412.253906 103.003906 L 1 103.003906 Z M 1 0 "/></g><g clip-rule="nonzero" clip-path="url(#5070ff7075)"><path style=" stroke:none;fill-rule:nonzero;fill:#ab2ea0;fill-opacity:1;" d="M 360.78125 101.167969 C 363.71875 101.167969 366.652344 101.167969 369.585938 101.167969 L 370.46875 101.167969 L 372.230469 101.164062 C 378.039062 101.164062 383.847656 101.164062 389.65625 101.164062 L 390.429688 101.164062 C 392.203125 101.164062 393.972656 101.164062 395.746094 101.164062 C 397.855469 101.164062 399.96875 101.164062 402.078125 101.164062 C 403.140625 101.167969 404.203125 101.167969 405.269531 101.164062 C 406.234375 101.164062 407.199219 101.164062 408.164062 101.167969 C 408.679688 101.167969 409.195312 101.167969 409.707031 101.164062 L 410.621094 101.167969 L 411.414062 101.167969 L 411.996094 101.199219 L 412.253906 101.457031 L 412.253906 103.003906 L 1 103.003906 L 1 101.457031 C 17.304688 101.453125 33.605469 101.449219 49.910156 101.445312 L 50.640625 101.445312 L 74.113281 101.441406 L 74.890625 101.441406 C 83.1875 101.441406 91.480469 101.441406 99.777344 101.4375 C 109.511719 101.433594 119.25 101.429688 128.980469 101.433594 L 129.703125 101.433594 C 133.511719 101.433594 137.324219 101.429688 141.136719 101.429688 C 144.976562 101.429688 148.8125 101.425781 152.652344 101.429688 C 154.929688 101.429688 157.207031 101.429688 159.484375 101.425781 C 161.007812 101.425781 162.535156 101.425781 164.058594 101.425781 C 164.925781 101.425781 165.792969 101.425781 166.660156 101.425781 C 170.445312 101.421875 174.21875 101.480469 178 101.65625 C 179.992188 101.746094 181.980469 101.753906 183.972656 101.75 C 184.371094 101.75 184.769531 101.75 185.167969 101.75 C 185.984375 101.75 186.804688 101.75 187.621094 101.75 C 188.667969 101.746094 189.714844 101.746094 190.761719 101.75 C 191.578125 101.75 192.390625 101.75 193.207031 101.75 C 193.59375 101.75 193.980469 101.75 194.367188 101.75 C 194.902344 101.75 195.433594 101.75 195.96875 101.75 L 196.886719 101.746094 C 197.648438 101.75 197.648438 101.75 198.402344 101.457031 C 198.898438 101.433594 199.394531 101.421875 199.890625 101.421875 L 200.84375 101.417969 L 201.894531 101.417969 L 203.007812 101.414062 C 204.039062 101.410156 205.066406 101.40625 206.09375 101.40625 C 207.210938 101.402344 208.328125 101.402344 209.441406 101.398438 C 211.65625 101.390625 213.875 101.386719 216.089844 101.382812 C 217.929688 101.375 219.773438 101.371094 221.613281 101.367188 L 222.417969 101.367188 L 224.039062 101.363281 C 230.441406 101.34375 236.839844 101.332031 243.238281 101.316406 L 252.304688 101.296875 C 283.691406 101.226562 315.078125 101.179688 360.78125 101.167969 "/></g><g clip-rule="nonzero" clip-path="url(#dd3e4bb553)"><path style=" stroke:none;fill-rule:nonzero;fill:#0d97c1;fill-opacity:1;" d="M 1 101.457031 L 149.824219 101.457031 L 149.824219 102.230469 L 150.59375 103.003906 L 1 103.003906 Z M 1 101.457031 "/></g><g clip-rule="nonzero" clip-path="url(#8c40376ccb)"><path style=" stroke:none;fill-rule:nonzero;fill:#ec891b;fill-opacity:1;" d="M 149.824219 101.457031 C 152.726562 101.453125 155.632812 101.445312 158.539062 101.445312 C 159.886719 101.441406 161.238281 101.441406 162.585938 101.4375 C 172.941406 101.414062 172.941406 101.414062 177.046875 101.621094 C 180.566406 101.789062 184.09375 101.753906 187.621094 101.75 C 188.667969 101.746094 189.714844 101.746094 190.761719 101.75 C 191.578125 101.75 192.390625 101.75 193.207031 101.75 C 193.59375 101.75 193.980469 101.75 194.367188 101.75 C 194.902344 101.75 195.433594 101.75 195.96875 101.75 L 196.886719 101.746094 C 197.648438 101.75 197.648438 101.75 198.402344 101.457031 C 198.769531 101.433594 199.140625 101.425781 199.507812 101.425781 L 201.757812 101.425781 C 202.648438 101.425781 203.542969 101.425781 204.433594 101.429688 L 206.351562 101.429688 C 207.726562 101.429688 209.101562 101.429688 210.480469 101.429688 C 212.46875 101.433594 214.457031 101.433594 216.449219 101.433594 C 219.675781 101.433594 222.90625 101.433594 226.132812 101.4375 C 229.269531 101.441406 232.40625 101.441406 235.542969 101.441406 L 236.128906 101.441406 L 239.035156 101.445312 C 247.082031 101.445312 255.128906 101.453125 263.175781 101.457031 L 263.175781 102.746094 L 263.945312 103.003906 C 247.820312 103.011719 231.695312 103.023438 215.574219 103.03125 L 214.546875 103.03125 C 209.054688 103.035156 203.566406 103.039062 198.074219 103.042969 C 192.445312 103.046875 186.816406 103.050781 181.1875 103.050781 C 177.710938 103.050781 174.234375 103.054688 170.757812 103.058594 C 168.375 103.0625 165.996094 103.0625 163.613281 103.0625 C 162.238281 103.058594 160.863281 103.0625 159.488281 103.0625 C 158.230469 103.066406 156.972656 103.066406 155.714844 103.066406 C 155.257812 103.066406 154.800781 103.066406 154.34375 103.066406 C 153.726562 103.070312 153.109375 103.066406 152.492188 103.066406 L 151.949219 103.070312 C 151.214844 103.066406 150.644531 103.023438 149.960938 102.742188 L 149.566406 102.488281 Z M 149.824219 101.457031 "/></g><path style=" stroke:none;fill-rule:nonzero;fill:#000000;fill-opacity:1;" d="M 165.246094 46.867188 C 165.886719 47.113281 166.21875 47.355469 166.6875 47.847656 C 167.304688 48.820312 167.648438 49.886719 167.984375 50.980469 C 168.285156 51.804688 168.285156 51.804688 169.007812 52.375 L 169.613281 52.789062 L 169.355469 53.820312 L 168.769531 53.832031 C 167.882812 53.847656 166.996094 53.875 166.113281 53.898438 L 165.183594 53.917969 C 163.945312 53.953125 162.902344 53.992188 161.734375 54.425781 C 160.902344 55.011719 160.445312 55.570312 159.847656 56.394531 C 159.539062 57.320312 159.523438 57.992188 159.589844 58.96875 C 159.90625 59.902344 160.222656 60.601562 160.84375 61.367188 C 161.453125 61.851562 161.925781 62.101562 162.675781 62.316406 C 163.433594 62.445312 163.433594 62.445312 164.214844 62.316406 C 165.035156 61.835938 165.035156 61.835938 165.757812 61.285156 L 166.53125 61.027344 L 166.53125 66.179688 C 165.5 65.921875 165.5 65.921875 165.03125 65.542969 C 164.296875 65.023438 163.652344 64.945312 162.769531 64.796875 C 160.882812 64.414062 159.328125 63.875 157.792969 62.695312 C 156.566406 61.574219 155.800781 60.261719 155.21875 58.710938 C 154.765625 57.125 154.59375 55.582031 154.800781 53.941406 C 155.042969 52.984375 155.503906 52.175781 155.964844 51.308594 C 156.292969 50.703125 156.292969 50.703125 156.410156 49.875 C 156.292969 49.117188 156.292969 49.117188 155.605469 48.476562 L 154.964844 47.894531 L 154.964844 47.382812 C 155.589844 47.066406 155.984375 47.097656 156.679688 47.109375 L 157.402344 47.113281 L 158.914062 47.132812 L 159.636719 47.140625 L 160.300781 47.148438 C 161.992188 47.074219 163.484375 46.671875 165.246094 46.867188 "/><g clip-rule="nonzero" clip-path="url(#e35aa2d4df)"><path style=" stroke:none;fill-rule:nonzero;fill:#076ccf;fill-opacity:1;" d="M 1 101.457031 L 68.859375 101.457031 L 68.601562 102.230469 C 66.988281 103.023438 65.585938 103.109375 63.808594 103.09375 L 62.992188 103.097656 C 62.09375 103.097656 61.195312 103.09375 60.292969 103.089844 L 58.355469 103.089844 C 56.96875 103.089844 55.578125 103.089844 54.1875 103.085938 C 52.179688 103.078125 50.171875 103.074219 48.164062 103.074219 C 44.902344 103.074219 41.644531 103.066406 38.386719 103.0625 C 34.042969 103.050781 29.703125 103.042969 25.359375 103.042969 C 17.242188 103.035156 9.121094 103.019531 1 103.003906 Z M 1 101.457031 "/></g><path style=" stroke:none;fill-rule:nonzero;fill:#000000;fill-opacity:1;" d="M 252.398438 53.671875 C 253.191406 53.917969 253.769531 54.191406 254.382812 54.757812 C 255.011719 55.46875 255.417969 56.003906 255.71875 56.910156 C 255.769531 57.273438 255.8125 57.636719 255.847656 58 L 255.914062 58.640625 L 255.976562 59.308594 C 256.109375 60.664062 256.246094 62.003906 256.492188 63.347656 L 253.664062 63.347656 L 253.664062 62.316406 C 253.175781 62.390625 253.175781 62.390625 252.636719 62.574219 L 252.292969 62.964844 L 251.863281 63.347656 C 250.691406 63.550781 249.582031 63.441406 248.457031 63.074219 C 247.53125 62.417969 246.839844 61.714844 246.210938 60.769531 C 245.773438 59.742188 245.65625 58.894531 245.726562 57.792969 C 245.847656 56.980469 246.007812 56.546875 246.402344 55.796875 C 247.179688 54.867188 247.878906 54.25 248.988281 53.753906 C 250.167969 53.476562 251.21875 53.425781 252.398438 53.671875 M 190.175781 53.820312 L 190.175781 55.878906 L 190.5625 55.503906 C 191.351562 54.769531 192.0625 54.160156 193.035156 53.691406 C 194.578125 53.492188 196.085938 53.660156 197.628906 53.820312 L 197.886719 56.394531 C 196.789062 56.6875 195.773438 56.644531 194.648438 56.585938 C 194.011719 56.613281 194.011719 56.613281 193.449219 56.96875 C 192.964844 57.390625 192.964844 57.390625 192.859375 57.980469 L 192.859375 58.582031 L 192.84375 59.1875 L 193.003906 59.742188 C 193.535156 60.238281 193.535156 60.238281 194.289062 60.515625 C 195.210938 60.605469 195.210938 60.605469 196.167969 60.5625 L 197.144531 60.539062 L 197.886719 60.515625 L 197.886719 63.089844 C 196.269531 63.597656 194.929688 63.710938 193.261719 63.347656 C 192.5 63.09375 191.851562 62.792969 191.203125 62.316406 C 190.589844 61.542969 190.230469 60.933594 189.917969 60 C 189.894531 59.480469 189.886719 58.957031 189.886719 58.4375 L 189.886719 57.609375 C 189.917969 56.910156 189.917969 56.910156 190.175781 56.394531 L 187.347656 56.910156 C 187.144531 57.738281 187.046875 58.382812 187.011719 59.222656 L 186.976562 59.953125 L 186.949219 60.707031 L 186.914062 61.472656 C 186.886719 62.097656 186.859375 62.722656 186.835938 63.347656 L 184.007812 63.347656 C 183.878906 57.3125 183.878906 57.3125 184.789062 55.648438 C 185.296875 54.972656 185.859375 54.558594 186.578125 54.125 C 187.90625 53.597656 188.773438 53.523438 190.175781 53.820312 M 177.871094 51.484375 L 178.582031 51.492188 L 179.125 51.5 C 179.808594 52.839844 180.425781 54.175781 180.976562 55.574219 L 181.195312 56.128906 C 181.34375 56.511719 181.492188 56.894531 181.644531 57.277344 C 181.871094 57.859375 182.101562 58.441406 182.332031 59.027344 L 182.773438 60.148438 L 182.980469 60.671875 C 183.332031 61.574219 183.558594 62.386719 183.75 63.347656 L 180.667969 63.347656 L 179.894531 61.285156 L 175.527344 61.285156 L 174.753906 63.347656 L 171.671875 63.347656 C 172.167969 61.8125 172.707031 60.289062 173.285156 58.785156 L 173.519531 58.171875 C 173.683594 57.75 173.847656 57.328125 174.007812 56.90625 C 174.257812 56.261719 174.507812 55.613281 174.753906 54.964844 C 174.910156 54.550781 175.070312 54.140625 175.230469 53.730469 L 175.453125 53.140625 C 175.636719 52.675781 175.835938 52.214844 176.039062 51.757812 C 176.6875 51.433594 177.148438 51.476562 177.871094 51.484375 M 198.914062 49.957031 L 201.742188 49.957031 L 201.742188 54.078125 L 203.542969 53.5625 C 204.265625 53.523438 204.902344 53.625 205.597656 53.820312 C 206.566406 54.320312 207.078125 54.765625 207.734375 55.636719 C 208.171875 56.402344 208.414062 56.941406 208.453125 57.820312 L 208.453125 58.59375 L 208.449219 59.429688 L 208.441406 60.304688 L 208.4375 61.1875 C 208.433594 61.90625 208.429688 62.625 208.425781 63.347656 L 205.597656 63.347656 L 205.5625 62.078125 L 205.503906 60.433594 L 205.476562 59.597656 L 205.449219 58.792969 L 205.421875 58.054688 C 205.378906 57.359375 205.378906 57.359375 204.828125 56.652344 C 204.277344 56.539062 204.277344 56.539062 203.671875 56.570312 L 203.050781 56.574219 L 202.515625 56.652344 L 202 57.167969 C 201.910156 57.757812 201.910156 57.757812 201.902344 58.4375 L 201.875 59.199219 L 201.855469 60 C 201.839844 60.519531 201.824219 61.039062 201.804688 61.558594 L 201.789062 62.261719 C 201.742188 62.832031 201.742188 62.832031 201.484375 63.347656 L 198.914062 63.347656 Z M 218.191406 51.4375 L 218.726562 51.429688 C 219.84375 51.433594 220.753906 51.605469 221.792969 52.015625 L 221.792969 54.332031 C 220.984375 54.535156 220.457031 54.621094 219.652344 54.617188 L 219.027344 54.613281 L 218.386719 54.609375 L 217.730469 54.605469 C 217.199219 54.601562 216.667969 54.597656 216.136719 54.589844 L 215.878906 55.621094 L 216.472656 55.753906 C 219.914062 56.5625 219.914062 56.5625 221.277344 57.425781 C 221.71875 57.890625 221.71875 57.890625 222.046875 58.453125 C 222.238281 59.59375 222.167969 60.679688 221.792969 61.769531 C 221.035156 62.574219 220.265625 62.996094 219.222656 63.347656 C 217.273438 63.734375 215.265625 63.640625 213.308594 63.347656 L 213.050781 63.089844 L 213.050781 60.515625 L 219.222656 60.515625 L 219.222656 59.484375 L 218.253906 59.191406 L 216.988281 58.792969 C 216.777344 58.730469 216.570312 58.664062 216.351562 58.601562 C 215.328125 58.273438 214.65625 57.988281 213.820312 57.289062 C 213.308594 56.652344 213.308594 56.652344 213.050781 55.878906 C 212.960938 55.101562 212.90625 54.570312 213.050781 53.820312 C 213.460938 53.089844 213.929688 52.523438 214.59375 52.015625 C 215.789062 51.496094 216.90625 51.421875 218.191406 51.4375 M 235.671875 53.820312 C 236.378906 54.246094 236.9375 54.730469 237.46875 55.363281 C 237.726562 55.878906 237.726562 55.878906 237.824219 56.714844 C 237.726562 57.679688 237.726562 57.679688 237.230469 58.519531 C 236.65625 59.125 236.09375 59.429688 235.316406 59.726562 C 234.253906 60.03125 233.417969 60.003906 232.328125 59.742188 L 231.558594 59.484375 L 231.816406 60 C 233.496094 60.550781 235.207031 60.5625 236.957031 60.515625 L 236.957031 63.089844 C 235.9375 63.597656 234.738281 63.574219 233.613281 63.605469 C 232.523438 63.527344 231.648438 63.292969 230.703125 62.738281 C 230.171875 62.363281 229.6875 62.019531 229.246094 61.542969 L 229.246094 60.769531 L 228.730469 60.769531 C 228.324219 57.824219 228.324219 57.824219 228.730469 56.554688 C 229.15625 55.625 229.757812 55 230.5625 54.382812 C 232.132812 53.382812 233.910156 53.367188 235.671875 53.820312 "/><g clip-rule="nonzero" clip-path="url(#beac5d5d90)"><path style=" stroke:none;fill-rule:nonzero;fill:#e21d13;fill-opacity:1;" d="M 223.847656 101.457031 C 224.355469 101.433594 224.863281 101.425781 225.371094 101.425781 L 226.375 101.425781 L 227.488281 101.429688 L 228.648438 101.429688 C 229.703125 101.429688 230.761719 101.429688 231.816406 101.429688 C 232.917969 101.433594 234.019531 101.433594 235.121094 101.433594 C 237.207031 101.433594 239.292969 101.4375 241.382812 101.4375 C 243.757812 101.441406 246.132812 101.445312 248.507812 101.445312 C 253.398438 101.445312 258.285156 101.453125 263.175781 101.457031 L 263.175781 102.746094 L 263.945312 103.003906 L 212.539062 103.003906 L 212.539062 102.746094 L 213.25 102.734375 C 214.132812 102.71875 215.015625 102.699219 215.898438 102.675781 C 216.277344 102.667969 216.65625 102.660156 217.035156 102.65625 C 219.292969 102.621094 221.453125 102.53125 223.589844 101.714844 Z M 223.847656 101.457031 "/></g><path style=" stroke:none;fill-rule:nonzero;fill:#000000;fill-opacity:1;" d="M 222.820312 51.5 L 225.390625 51.5 L 225.648438 54.078125 L 226.789062 54.058594 C 227.179688 54.054688 227.570312 54.058594 227.960938 54.078125 L 228.21875 54.332031 C 228.25 54.800781 228.25 54.800781 228.25 55.363281 L 228.25 55.925781 L 228.21875 56.394531 L 227.960938 56.652344 C 227.570312 56.667969 227.179688 56.671875 226.789062 56.667969 L 226.144531 56.660156 L 225.648438 56.652344 C 225.609375 57.527344 225.640625 58.402344 225.742188 59.273438 L 226.160156 60 C 226.988281 60.441406 227.839844 60.75 228.730469 61.027344 L 228.730469 63.347656 C 227.460938 63.425781 226.472656 63.457031 225.308594 62.910156 C 224.269531 62.324219 223.671875 61.59375 223.0625 60.574219 C 221.972656 57.976562 222.542969 54.238281 222.820312 51.5 "/><g clip-rule="nonzero" clip-path="url(#d4a452ba9d)"><path style=" stroke:none;fill-rule:nonzero;fill:#29b15b;fill-opacity:1;" d="M 124.664062 101.425781 L 125.332031 101.425781 L 126.070312 101.429688 L 126.84375 101.429688 C 127.695312 101.429688 128.542969 101.429688 129.390625 101.433594 L 131.152344 101.433594 C 132.699219 101.433594 134.246094 101.4375 135.792969 101.441406 C 137.371094 101.441406 138.949219 101.445312 140.527344 101.445312 C 143.625 101.449219 146.722656 101.453125 149.824219 101.457031 L 149.824219 102.230469 L 150.59375 103.003906 L 122.578125 103.003906 L 123.089844 101.714844 C 123.679688 101.417969 124.007812 101.425781 124.664062 101.425781 "/></g><g clip-rule="nonzero" clip-path="url(#600fa9253a)"><path style=" stroke:none;fill-rule:nonzero;fill:#1da78b;fill-opacity:1;" d="M 98.160156 101.457031 C 98.949219 101.433594 99.734375 101.425781 100.523438 101.429688 L 101.277344 101.429688 C 102.101562 101.429688 102.925781 101.429688 103.75 101.433594 L 105.460938 101.433594 C 106.964844 101.433594 108.46875 101.4375 109.972656 101.441406 C 111.507812 101.441406 113.039062 101.445312 114.574219 101.445312 C 117.582031 101.449219 120.59375 101.453125 123.605469 101.457031 L 123.089844 101.714844 C 122.996094 102.054688 122.910156 102.398438 122.835938 102.746094 L 122.578125 103.003906 C 121.792969 103.027344 121.019531 103.035156 120.234375 103.03125 L 119.492188 103.03125 C 118.675781 103.03125 117.859375 103.03125 117.042969 103.027344 L 115.347656 103.027344 C 113.859375 103.023438 112.371094 103.023438 110.882812 103.019531 C 109.363281 103.019531 107.847656 103.015625 106.328125 103.015625 C 103.347656 103.011719 100.367188 103.007812 97.386719 103.003906 C 97.871094 101.746094 97.871094 101.746094 98.160156 101.457031 "/></g><path style=" stroke:none;fill-rule:nonzero;fill:#000000;fill-opacity:1;" d="M 241.070312 49.957031 L 241.070312 63.347656 L 238.242188 63.347656 L 238.242188 50.214844 C 239.785156 49.699219 239.785156 49.699219 241.070312 49.957031 "/><g clip-rule="nonzero" clip-path="url(#f6c354489c)"><path style=" stroke:none;fill-rule:nonzero;fill:#7fcd2f;fill-opacity:1;" d="M 149.824219 101.457031 C 152.824219 101.445312 155.828125 101.4375 158.832031 101.429688 C 160.226562 101.429688 161.621094 101.425781 163.015625 101.417969 C 164.359375 101.414062 165.703125 101.410156 167.046875 101.410156 C 167.5625 101.40625 168.074219 101.40625 168.589844 101.402344 C 169.308594 101.398438 170.027344 101.398438 170.746094 101.398438 L 171.390625 101.394531 C 171.914062 101.394531 172.433594 101.425781 172.957031 101.457031 L 174.496094 102.488281 L 174.496094 103.003906 C 171.398438 103.015625 168.300781 103.023438 165.199219 103.027344 C 163.761719 103.03125 162.324219 103.035156 160.882812 103.042969 C 159.496094 103.046875 158.109375 103.050781 156.71875 103.050781 C 156.1875 103.050781 155.660156 103.054688 155.128906 103.058594 C 154.386719 103.0625 153.644531 103.0625 152.90625 103.0625 L 152.238281 103.066406 L 151.09375 103.066406 C 150.5 102.992188 150.082031 102.777344 149.566406 102.488281 Z M 149.824219 101.457031 "/></g><path style=" stroke:none;fill-rule:nonzero;fill:#000000;fill-opacity:1;" d="M 242.609375 49.699219 C 243.078125 49.664062 243.078125 49.664062 243.640625 49.667969 L 244.203125 49.664062 L 244.667969 49.699219 L 244.925781 49.957031 C 244.957031 50.355469 244.972656 50.757812 244.980469 51.160156 L 245 51.933594 L 245.015625 52.78125 L 245.03125 53.640625 C 245.046875 54.242188 245.058594 54.847656 245.066406 55.449219 C 245.085938 56.371094 245.105469 57.296875 245.125 58.222656 C 245.136719 58.804688 245.148438 59.390625 245.160156 59.972656 L 245.179688 60.816406 L 245.191406 61.59375 L 245.203125 62.28125 C 245.179688 62.832031 245.179688 62.832031 244.925781 63.347656 L 242.355469 63.347656 C 242.347656 61.445312 242.34375 59.542969 242.339844 57.640625 C 242.339844 56.992188 242.335938 56.34375 242.335938 55.695312 C 242.332031 54.769531 242.332031 53.839844 242.328125 52.910156 L 242.324219 52.027344 L 242.324219 50.496094 L 242.355469 49.957031 Z M 242.609375 49.699219 "/><g clip-rule="nonzero" clip-path="url(#305f0ee5d3)"><path style=" stroke:none;fill-rule:nonzero;fill:#c92989;fill-opacity:1;" d="M 263.175781 101.457031 C 265.496094 101.421875 267.820312 101.394531 270.144531 101.378906 C 271.222656 101.371094 272.304688 101.359375 273.382812 101.339844 C 274.421875 101.324219 275.464844 101.316406 276.507812 101.3125 C 276.902344 101.308594 277.300781 101.300781 277.699219 101.292969 C 278.253906 101.28125 278.8125 101.28125 279.367188 101.28125 L 280.328125 101.273438 C 281.167969 101.457031 281.167969 101.457031 281.5625 101.8125 C 281.921875 102.242188 281.921875 102.242188 282.453125 103.003906 C 280.050781 103.007812 277.652344 103.011719 275.253906 103.015625 C 274.136719 103.015625 273.023438 103.019531 271.910156 103.023438 C 270.835938 103.023438 269.761719 103.027344 268.683594 103.027344 C 268.273438 103.027344 267.863281 103.027344 267.453125 103.03125 C 266.878906 103.03125 266.304688 103.03125 265.730469 103.03125 L 264.738281 103.035156 C 263.945312 103.003906 263.945312 103.003906 263.175781 102.746094 L 262.917969 101.972656 Z M 263.175781 101.457031 "/></g><path style=" stroke:none;fill-rule:nonzero;fill:#000000;fill-opacity:1;" d="M 209.453125 53.820312 L 212.023438 53.820312 L 212.28125 54.078125 C 212.308594 54.519531 212.316406 54.964844 212.316406 55.410156 L 212.316406 56.25 L 212.3125 57.132812 L 212.316406 57.988281 C 212.3125 59.792969 212.210938 61.554688 212.023438 63.347656 L 209.195312 63.347656 Z M 209.453125 53.820312 "/><g clip-rule="nonzero" clip-path="url(#596ebdcae5)"><path style=" stroke:none;fill-rule:nonzero;fill:#f4be20;fill-opacity:1;" d="M 173.726562 101.714844 C 176.398438 101.703125 179.070312 101.695312 181.742188 101.6875 C 182.984375 101.6875 184.222656 101.683594 185.464844 101.675781 C 186.660156 101.671875 187.859375 101.667969 189.054688 101.664062 C 189.511719 101.664062 189.96875 101.664062 190.425781 101.660156 C 191.066406 101.65625 191.703125 101.65625 192.34375 101.65625 L 192.921875 101.652344 C 193.378906 101.652344 193.832031 101.679688 194.289062 101.714844 L 194.804688 102.230469 C 194.40625 102.609375 194.40625 102.609375 193.773438 103.003906 C 193.125 103.074219 192.539062 103.101562 191.890625 103.089844 L 191.320312 103.089844 C 190.699219 103.089844 190.078125 103.085938 189.457031 103.078125 C 189.027344 103.078125 188.597656 103.074219 188.164062 103.074219 C 187.035156 103.070312 185.902344 103.0625 184.769531 103.054688 C 183.613281 103.046875 182.457031 103.042969 181.300781 103.039062 C 179.03125 103.03125 176.765625 103.019531 174.496094 103.003906 L 174.496094 102.488281 L 173.46875 102.230469 Z M 173.726562 101.714844 "/></g><path style=" stroke:none;fill-rule:nonzero;fill:#fbf784;fill-opacity:1;" d="M 179.300781 100.652344 L 179.964844 100.65625 C 182.511719 100.671875 185.058594 100.734375 187.605469 100.796875 L 188.269531 100.8125 C 188.898438 100.828125 189.53125 100.84375 190.160156 100.859375 L 190.734375 100.875 C 191.695312 100.902344 192.582031 100.996094 193.519531 101.199219 C 193.914062 101.234375 194.3125 101.261719 194.710938 101.28125 L 195.367188 101.3125 L 196.039062 101.34375 L 196.726562 101.378906 C 197.285156 101.40625 197.84375 101.433594 198.402344 101.457031 C 197.628906 101.972656 197.628906 101.972656 196.886719 102.035156 L 195.460938 102.035156 C 194.902344 102.039062 194.347656 102.035156 193.789062 102.03125 L 192.613281 102.03125 C 191.785156 102.03125 190.957031 102.027344 190.128906 102.027344 C 189.089844 102.019531 188.046875 102.019531 187.007812 102.019531 C 183.210938 102.019531 179.417969 102.003906 175.625 101.890625 L 174.824219 101.871094 L 174.101562 101.84375 L 173.484375 101.824219 C 172.957031 101.714844 172.957031 101.714844 172.5 101.320312 L 172.183594 100.941406 L 172.664062 100.953125 L 173.324219 100.957031 L 173.964844 100.96875 C 174.609375 100.945312 175.222656 100.890625 175.859375 100.816406 C 177.011719 100.679688 178.140625 100.644531 179.300781 100.652344 "/><g clip-rule="nonzero" clip-path="url(#95f5c57cab)"><path style=" stroke:none;fill-rule:nonzero;fill:#3dbe41;fill-opacity:1;" d="M 142.71875 101.433594 L 143.335938 101.433594 C 143.984375 101.433594 144.628906 101.4375 145.277344 101.441406 C 145.714844 101.441406 146.15625 101.445312 146.597656 101.445312 C 147.671875 101.449219 148.746094 101.453125 149.824219 101.457031 L 149.824219 102.230469 L 150.59375 103.003906 L 139.027344 103.003906 L 139.285156 101.714844 C 140.429688 101.429688 141.546875 101.425781 142.71875 101.433594 "/></g><path style=" stroke:none;fill-rule:nonzero;fill:#fefefe;fill-opacity:1;" d="M 249.550781 56.394531 C 250.113281 56.339844 250.113281 56.339844 250.804688 56.328125 L 251.492188 56.308594 C 252.121094 56.394531 252.121094 56.394531 252.582031 56.703125 C 252.894531 57.167969 252.894531 57.167969 253.011719 57.769531 C 253.019531 58.445312 253.007812 59.074219 252.894531 59.742188 C 252.347656 60.417969 252.347656 60.417969 251.609375 60.769531 C 250.816406 60.867188 250.277344 60.847656 249.527344 60.578125 L 249.035156 60.257812 C 248.6875 59.511719 248.5625 58.757812 248.523438 57.9375 C 248.8125 57.277344 249.050781 56.894531 249.550781 56.394531 "/><g clip-rule="nonzero" clip-path="url(#4e4c48e49d)"><path style=" stroke:none;fill-rule:nonzero;fill:#b7dc2c;fill-opacity:1;" d="M 162.160156 101.457031 C 163.683594 101.445312 165.207031 101.433594 166.730469 101.429688 C 167.25 101.425781 167.765625 101.421875 168.285156 101.417969 C 169.03125 101.414062 169.773438 101.410156 170.519531 101.40625 L 171.222656 101.398438 L 171.878906 101.398438 L 172.453125 101.394531 C 173.261719 101.496094 173.828125 102.039062 174.496094 102.488281 L 174.496094 103.003906 L 163.445312 103.003906 L 163.703125 102.230469 L 162.160156 101.714844 Z M 162.160156 101.457031 "/></g><path style=" stroke:none;fill-rule:nonzero;fill:#ea5b0b;fill-opacity:1;" d="M 219.285156 101.410156 C 219.730469 101.414062 220.175781 101.417969 220.617188 101.417969 C 221.695312 101.429688 222.769531 101.441406 223.847656 101.457031 L 223.589844 101.972656 C 221.539062 102.851562 219.316406 102.886719 217.125 102.925781 C 216.574219 102.9375 216.023438 102.953125 215.476562 102.972656 C 213.191406 103.035156 210.957031 102.953125 208.683594 102.746094 L 208.683594 102.488281 L 209.136719 102.457031 C 210.339844 102.363281 211.425781 102.191406 212.578125 101.835938 C 214.792969 101.265625 217.015625 101.375 219.285156 101.410156 "/><g clip-rule="nonzero" clip-path="url(#61c9c5dc09)"><path style=" stroke:none;fill-rule:nonzero;fill:#dd1843;fill-opacity:1;" d="M 254.691406 101.457031 L 263.175781 101.457031 L 263.175781 102.746094 L 263.945312 103.003906 C 262.75 103.007812 261.558594 103.011719 260.363281 103.015625 C 259.957031 103.019531 259.550781 103.019531 259.144531 103.023438 C 258.5625 103.023438 257.976562 103.027344 257.394531 103.027344 L 256.84375 103.03125 C 256.054688 103.03125 255.449219 102.996094 254.691406 102.746094 Z M 254.691406 101.457031 "/></g><g clip-rule="nonzero" clip-path="url(#f1ba6a632e)"><path style=" stroke:none;fill-rule:nonzero;fill:#d6206a;fill-opacity:1;" d="M 263.175781 101.457031 L 271.140625 101.457031 L 271.65625 103.003906 C 270.570312 103.007812 269.488281 103.011719 268.402344 103.015625 C 268.035156 103.019531 267.667969 103.019531 267.296875 103.023438 C 266.765625 103.023438 266.238281 103.027344 265.707031 103.027344 L 264.742188 103.03125 C 263.945312 103.003906 263.945312 103.003906 263.175781 102.746094 L 262.917969 101.972656 Z M 263.175781 101.457031 "/></g><g clip-rule="nonzero" clip-path="url(#a64a286521)"><path style=" stroke:none;fill-rule:nonzero;fill:#e6e025;fill-opacity:1;" d="M 173.726562 101.714844 C 177.078125 101.683594 180.40625 101.722656 183.75 101.972656 L 183.492188 103.003906 L 174.496094 103.003906 L 174.496094 102.488281 L 173.46875 102.230469 Z M 173.726562 101.714844 "/></g><path style=" stroke:none;fill-rule:nonzero;fill:#000000;fill-opacity:1;" d="M 210.882812 49.34375 C 211.511719 49.441406 211.511719 49.441406 211.976562 49.714844 C 212.28125 50.214844 212.28125 50.214844 212.394531 51.113281 L 212.28125 52.015625 C 211.863281 52.53125 211.863281 52.53125 211.253906 52.789062 C 210.449219 52.757812 210.449219 52.757812 209.710938 52.53125 C 209.195312 51.757812 209.195312 51.757812 209.101562 50.984375 L 209.195312 50.214844 C 209.742188 49.609375 210.082031 49.460938 210.882812 49.34375 "/><path style=" stroke:none;fill-rule:nonzero;fill:#fdfdba;fill-opacity:1;" d="M 180.921875 100.683594 L 181.179688 101.972656 C 180.023438 101.953125 178.867188 101.933594 177.707031 101.90625 C 177.316406 101.894531 176.921875 101.890625 176.527344 101.882812 C 175.960938 101.875 175.394531 101.863281 174.832031 101.847656 L 174.296875 101.839844 C 173.796875 101.824219 173.796875 101.824219 172.957031 101.714844 C 172.453125 101.320312 172.453125 101.320312 172.183594 100.941406 L 172.664062 100.953125 C 173.734375 100.960938 174.773438 100.957031 175.832031 100.8125 C 177.519531 100.597656 179.226562 100.664062 180.921875 100.683594 "/><path style=" stroke:none;fill-rule:nonzero;fill:#fefefe;fill-opacity:1;" d="M 157.277344 53.046875 C 157.839844 53.144531 157.839844 53.144531 158.304688 53.304688 C 158.316406 53.679688 158.328125 54.054688 158.335938 54.429688 L 158.355469 55.0625 L 158.304688 55.621094 L 157.789062 56.136719 C 157.261719 56.070312 157.261719 56.070312 156.761719 55.878906 C 156.503906 55.363281 156.503906 55.363281 156.441406 54.460938 L 156.503906 53.5625 Z M 177.582031 55.105469 L 178.097656 55.105469 C 178.226562 55.476562 178.355469 55.847656 178.480469 56.21875 L 178.699219 56.839844 C 178.867188 57.425781 178.867188 57.425781 178.867188 58.195312 L 176.554688 58.195312 C 176.675781 57.777344 176.800781 57.359375 176.921875 56.941406 L 177.132812 56.234375 C 177.324219 55.621094 177.324219 55.621094 177.582031 55.105469 "/><path style=" stroke:none;fill-rule:nonzero;fill:#000000;fill-opacity:1;" d="M 161.902344 55.363281 L 162.929688 55.878906 L 162.929688 57.425781 C 162.335938 57.585938 162.335938 57.585938 161.644531 57.679688 L 160.875 57.167969 C 160.957031 56.554688 160.957031 56.554688 161.132812 55.878906 Z M 161.902344 55.363281 "/><path style=" stroke:none;fill-rule:nonzero;fill:#fefefe;fill-opacity:1;" d="M 234.386719 56.394531 L 234.898438 56.652344 L 234.898438 57.425781 C 234.195312 57.660156 233.78125 57.710938 233.054688 57.699219 L 232.074219 57.679688 L 231.816406 56.910156 C 232.691406 56.371094 233.371094 56.328125 234.386719 56.394531 "/></g></svg>