<svg width="3628" height="1006" viewBox="0 0 3628 1006" fill="none" xmlns="http://www.w3.org/2000/svg">
<path d="M1547.6 863.6C1498.53 863.6 1459.6 854.8 1430.8 837.2C1402.53 819.067 1382.53 794 1370.8 762C1359.07 729.467 1353.2 691.333 1353.2 647.6V414C1353.2 369.2 1359.07 330.8 1370.8 298.8C1382.53 266.267 1402.53 241.2 1430.8 223.6C1459.6 206 1498.53 197.2 1547.6 197.2C1595.6 197.2 1632.93 205.2 1659.6 221.2C1686.8 236.667 1706 258.533 1717.2 286.8C1728.4 315.067 1734 347.6 1734 384.4V440.4H1594V375.6C1594 362.8 1593.2 350.533 1591.6 338.8C1590.53 327.067 1586.8 317.467 1580.4 310C1574 302 1563.07 298 1547.6 298C1532.67 298 1521.47 302 1514 310C1507.07 318 1502.53 328.133 1500.4 340.4C1498.8 352.133 1498 364.667 1498 378V682.8C1498 697.2 1499.07 710.533 1501.2 722.8C1503.87 734.533 1508.67 744.133 1515.6 751.6C1523.07 758.533 1533.73 762 1547.6 762C1562.53 762 1573.2 758.267 1579.6 750.8C1586 742.8 1590 732.667 1591.6 720.4C1593.2 708.133 1594 695.6 1594 682.8V614.8H1734V670.8C1734 707.6 1728.4 740.667 1717.2 770C1706.53 798.8 1687.6 821.733 1660.4 838.8C1633.73 855.333 1596.13 863.6 1547.6 863.6ZM1957.58 862C1924.51 862 1895.71 856.4 1871.18 845.2C1847.18 834 1828.51 817.2 1815.18 794.8C1802.38 772.4 1795.98 744.4 1795.98 710.8V534.8C1795.98 501.2 1802.38 473.2 1815.18 450.8C1828.51 428.4 1847.18 411.6 1871.18 400.4C1895.71 389.2 1924.51 383.6 1957.58 383.6C1990.65 383.6 2019.18 389.2 2043.18 400.4C2067.71 411.6 2086.65 428.4 2099.98 450.8C2113.31 473.2 2119.98 501.2 2119.98 534.8V710.8C2119.98 744.4 2113.31 772.4 2099.98 794.8C2086.65 817.2 2067.71 834 2043.18 845.2C2019.18 856.4 1990.65 862 1957.58 862ZM1958.38 775.6C1966.91 775.6 1973.58 773.467 1978.38 769.2C1983.18 764.4 1986.38 758 1987.98 750C1990.11 741.467 1991.18 731.333 1991.18 719.6V526C1991.18 514.267 1990.11 504.4 1987.98 496.4C1986.38 487.867 1983.18 481.467 1978.38 477.2C1973.58 472.4 1966.91 470 1958.38 470C1949.85 470 1943.18 472.4 1938.38 477.2C1933.58 481.467 1930.11 487.867 1927.98 496.4C1925.85 504.4 1924.78 514.267 1924.78 526V719.6C1924.78 731.333 1925.85 741.467 1927.98 750C1930.11 758 1933.58 764.4 1938.38 769.2C1943.18 773.467 1949.85 775.6 1958.38 775.6ZM2421.9 862C2404.83 862 2387.77 858.267 2370.7 850.8C2354.17 842.8 2338.17 832.133 2322.7 818.8V854H2192.3V206H2322.7V425.2C2338.7 411.333 2355.23 400.933 2372.3 394C2389.9 387.067 2406.97 383.6 2423.5 383.6C2441.1 383.6 2456.03 387.067 2468.3 394C2481.1 400.933 2491.5 410.8 2499.5 423.6C2507.5 435.867 2513.37 450.267 2517.1 466.8C2520.83 483.333 2522.7 500.933 2522.7 519.6V718.8C2522.7 747.6 2518.7 772.667 2510.7 794C2503.23 815.333 2492.03 832.133 2477.1 844.4C2462.17 856.133 2443.77 862 2421.9 862ZM2358.7 778C2367.23 778 2373.9 775.6 2378.7 770.8C2383.5 766 2386.97 759.867 2389.1 752.4C2391.23 744.4 2392.3 735.6 2392.3 726V510C2392.3 500.933 2391.23 492.933 2389.1 486C2386.97 478.533 2383.5 472.667 2378.7 468.4C2374.43 464.133 2368.3 462 2360.3 462C2353.37 462 2346.7 463.6 2340.3 466.8C2334.43 469.467 2328.57 472.933 2322.7 477.2V765.2C2328.57 768.933 2334.43 772.133 2340.3 774.8C2346.7 776.933 2352.83 778 2358.7 778ZM2596.99 1006V391.6H2727.39V425.2C2742.85 411.333 2759.39 400.933 2776.99 394C2794.59 387.067 2811.39 383.6 2827.39 383.6C2844.99 383.6 2859.92 387.067 2872.19 394C2884.99 400.933 2895.39 410.8 2903.39 423.6C2911.39 435.867 2917.25 450.267 2920.99 466.8C2924.72 483.333 2926.59 500.933 2926.59 519.6V718.8C2926.59 747.6 2922.59 772.667 2914.59 794C2907.12 815.333 2895.92 832.133 2880.99 844.4C2866.05 856.133 2847.65 862 2825.79 862C2809.25 862 2792.45 858.267 2775.39 850.8C2758.85 842.8 2742.85 832.133 2727.39 818.8V1006H2596.99ZM2761.79 778C2770.32 778 2776.99 775.6 2781.79 770.8C2786.59 766 2790.05 759.867 2792.19 752.4C2794.85 744.4 2796.19 735.6 2796.19 726V510C2796.19 500.933 2795.12 492.933 2792.99 486C2790.85 478.533 2787.39 472.667 2782.59 468.4C2777.79 464.133 2771.65 462 2764.19 462C2757.25 462 2750.59 463.6 2744.19 466.8C2738.32 469.467 2732.72 473.2 2727.39 478V766C2733.25 769.733 2738.85 772.667 2744.19 774.8C2750.05 776.933 2755.92 778 2761.79 778ZM3152.89 862C3119.83 862 3091.03 856.4 3066.49 845.2C3042.49 834 3023.83 817.2 3010.49 794.8C2997.69 772.4 2991.29 744.4 2991.29 710.8V534.8C2991.29 501.2 2997.69 473.2 3010.49 450.8C3023.83 428.4 3042.49 411.6 3066.49 400.4C3091.03 389.2 3119.83 383.6 3152.89 383.6C3185.96 383.6 3214.49 389.2 3238.49 400.4C3263.03 411.6 3281.96 428.4 3295.29 450.8C3308.63 473.2 3315.29 501.2 3315.29 534.8V710.8C3315.29 744.4 3308.63 772.4 3295.29 794.8C3281.96 817.2 3263.03 834 3238.49 845.2C3214.49 856.4 3185.96 862 3152.89 862ZM3153.69 775.6C3162.23 775.6 3168.89 773.467 3173.69 769.2C3178.49 764.4 3181.69 758 3183.29 750C3185.43 741.467 3186.49 731.333 3186.49 719.6V526C3186.49 514.267 3185.43 504.4 3183.29 496.4C3181.69 487.867 3178.49 481.467 3173.69 477.2C3168.89 472.4 3162.23 470 3153.69 470C3145.16 470 3138.49 472.4 3133.69 477.2C3128.89 481.467 3125.43 487.867 3123.29 496.4C3121.16 504.4 3120.09 514.267 3120.09 526V719.6C3120.09 731.333 3121.16 741.467 3123.29 750C3125.43 758 3128.89 764.4 3133.69 769.2C3138.49 773.467 3145.16 775.6 3153.69 775.6ZM3532.41 858.8C3497.75 858.8 3471.08 853.733 3452.41 843.6C3433.75 833.467 3420.68 818.8 3413.21 799.6C3406.28 779.867 3402.81 756.133 3402.81 728.4V477.2H3358.01V391.6H3402.81V250.8H3534.81V391.6H3600.41V477.2H3534.81V715.6C3534.81 728.933 3538.55 738.533 3546.01 744.4C3554.01 750.267 3563.88 753.2 3575.61 753.2C3582.55 753.2 3588.95 752.933 3594.81 752.4C3600.68 751.333 3606.01 750.533 3610.81 750V852.4C3603.88 853.467 3592.95 854.8 3578.01 856.4C3563.08 858 3547.88 858.8 3532.41 858.8Z" fill="white"/>
<path d="M512.183 54.1253C514.425 54.1588 516.685 54.1755 518.943 54.209C587.233 54.912 655.505 58.1926 847.253 89.6593C850.683 91.7181 853.762 93.894 856.724 96.572L858.213 97.844C862.581 101.828 864.974 106.564 866.781 112.155C869.893 124.474 866.346 138.048 864.271 150.266C863.819 152.995 863.384 155.723 862.932 158.451C862.313 162.301 861.677 166.15 861.058 169.983C853.561 215.694 847.537 261.756 842.517 307.784C842.216 310.613 841.898 313.425 841.563 316.253C835.857 366.266 831.741 416.395 829.214 466.675C829.03 470.256 828.829 473.855 828.629 477.437C826.487 513.992 826.453 550.564 826.47 587.169V593.027C826.47 601.161 826.487 609.296 826.503 617.43C826.503 619.154 826.503 620.895 826.503 622.619C826.52 636.244 826.754 649.851 827.424 663.459L829.315 663.241C831.875 662.94 834.452 662.639 837.029 662.354L839.689 662.036C852.658 660.563 865.626 660.178 878.661 659.894L881.021 659.844C912.262 659.191 943.704 660.111 971.95 674.857C981.589 680.23 990.742 687.595 996.883 696.867C1003.61 708.182 1007.71 720.082 1007.99 733.288C1008.18 749.658 1004.21 765.609 996.297 779.919C990.758 789.56 983.831 798.03 976.251 806.147C975.665 806.767 975.079 807.403 974.477 808.039C969.741 812.96 964.621 817.127 959.199 821.228C957.743 822.349 956.288 823.471 954.849 824.609C946.967 830.735 938.651 835.89 929.983 840.844L928.226 841.865C924.21 844.142 920.177 846.385 916.111 848.56L914.019 849.682C903.845 855.138 893.571 860.243 882.945 864.763L881.556 865.348C866.864 871.625 852.122 877.416 836.945 882.421C835.188 883.007 833.448 883.592 831.691 884.178C791.832 897.652 750.802 907.243 709.453 914.892L707.362 915.277C659.738 924.114 611.011 929.169 562.601 931.01C561.212 931.06 559.823 931.127 558.434 931.194C540.429 931.964 522.458 932.014 504.452 931.998H502.126C478.934 931.998 455.792 931.914 432.633 930.324L430.307 930.156C417.957 929.32 405.642 928.315 393.309 927.227L391.217 927.06C356.546 924.047 322.259 918.808 288.106 912.197C286.299 911.846 284.475 911.494 282.668 911.143C252.866 905.485 223.465 897.987 194.382 889.434L191.973 888.748C167.308 881.517 143.095 872.847 119.584 862.453L117.057 861.331C90.9031 849.782 63.2762 836.175 42.4766 816.173C41.4726 815.303 40.4518 814.432 39.4478 813.562C32.219 807.219 26.0277 800.406 20.2714 792.724C19.4682 791.653 18.6482 790.581 17.8283 789.527C11.9716 781.61 7.65437 772.321 4.69256 762.948L3.87263 760.487C-0.29399 747.063 -1.18086 732.803 1.61362 718.994C4.50849 707.178 9.57871 696.7 17.9789 687.846C28.9225 676.799 42.6105 669.334 57.5701 665.233C87.9078 657.417 119.718 659.275 150.708 661.099L153.687 661.266C161.886 661.785 170.035 662.605 178.184 663.459C178.77 633.934 179.155 604.442 178.971 574.9L178.937 569.611C178.72 531.265 177.967 492.969 176.043 454.674C175.909 451.945 175.775 449.234 175.641 446.506C172.913 389.548 167.241 332.807 159.878 276.267C159.56 273.84 159.242 271.413 158.941 268.986C155.879 245.403 152.482 221.887 148.884 198.387L148.516 195.943C147.746 190.889 146.96 185.834 146.19 180.779C145.939 179.089 145.671 177.398 145.42 175.708C144.149 167.406 142.86 159.104 141.505 150.802C140.986 147.622 140.467 144.442 139.949 141.261C139.714 139.772 139.463 138.282 139.212 136.809C137.573 127.051 136.435 118.046 139.631 108.439C142.124 102.531 146.291 97.5428 151.193 93.4923C194.533 63.3478 270.57 65.7245 321.791 61.4062C341.536 59.7659 361.332 58.5608 381.11 57.4059C383.704 57.2553 386.298 57.1046 388.875 56.954C429.855 54.5605 471.136 53.6399 512.183 54.1253Z" fill="white"/>
<path d="M178 607C177.997 506.813 827.689 509.5 827.689 607V663.709L178 663.709C178 663.709 178.003 707.188 178 607Z" fill="#D9D9D9"/>
</svg>
