<svg width="760" height="760" viewBox="0 0 760 760" fill="none" xmlns="http://www.w3.org/2000/svg">
<path d="M419.124 545.019C428.149 545.083 437.293 545.302 445.597 545.507C453.895 545.711 461.364 545.902 467.02 545.908C533.768 545.976 600.601 546.55 667.362 545.689C668.85 545.693 670.394 545.661 671.9 545.816C673.405 545.971 674.769 546.305 675.871 546.981L675.872 546.982C677.738 548.124 678.83 550.076 679.378 552.342V552.343C680.568 557.262 681.251 566.182 680.914 575.035C680.746 579.452 680.326 583.821 679.599 587.637C678.9 591.304 677.929 594.381 676.682 596.501C676.451 596.569 676.099 596.651 675.596 596.736C674.873 596.858 673.926 596.976 672.76 597.09C670.429 597.317 667.274 597.52 663.4 597.7C655.655 598.061 645.078 598.332 632.549 598.529C607.493 598.925 574.665 599.03 541.149 598.993C474.159 598.921 404.328 598.284 388.584 598.285L386.856 598.258H385.138C381.321 598.277 378.253 598.34 374.972 596.566C373.181 594.443 372.425 592.748 372.077 589.989C371.495 585.375 370.844 576.556 371.033 567.931C371.128 563.618 371.432 559.38 372.053 555.751C372.645 552.287 373.508 549.496 374.665 547.716C384.008 545.375 401.251 544.89 419.124 545.019Z" fill="#F5F5F5" stroke="white" stroke-width="2"/>
<path d="M203.864 161.035C237.426 161.007 274.933 160.386 310.632 165.839C346.321 171.29 380.086 182.798 406.193 206.943C432.29 231.077 447.455 266.453 447.987 302.087C448.554 339.989 429.954 384.268 403.125 410.952C380.324 433.631 350.942 445.314 319.634 451.278C288.317 457.244 255.153 457.474 224.841 457.305C222.157 457.268 218.873 457.088 216.004 457.84L216.003 457.841C212.649 458.722 209.64 460.369 208.188 464.027V464.028C206.624 467.968 205.852 474.421 205.62 482.004C205.388 489.627 205.699 498.523 206.372 507.428C207.715 525.2 210.507 543.178 213.346 551.23C218.091 564.689 229.498 569.473 241.002 574.809C241.827 576.277 242.716 577.813 243.401 579.412C244.129 581.11 244.579 582.78 244.479 584.369C244.259 587.909 242.075 591.316 239.238 593.556C236.203 595.948 231.716 597.856 227.878 598.314C219.722 599.29 210.784 599.076 201.752 598.585C192.753 598.096 183.623 597.328 175.225 597.222C166.483 597.11 148.338 597.778 130.817 598.047C122.039 598.182 113.403 598.217 106.138 598.007C99.2943 597.809 93.7561 597.395 90.4551 596.669L89.8252 596.52C85.9541 595.528 82.4604 592.725 80.2803 589.308H80.2793C78.6137 586.698 78.6671 583.815 79.9033 580.664C81.1524 577.481 83.5733 574.135 86.4619 570.774C89.349 567.416 92.6125 564.143 95.5322 561.045C98.2306 558.182 100.668 555.435 102.069 553.002L102.336 552.52C103.825 549.695 104.529 546.442 105.01 543.229C105.503 539.938 105.751 536.822 106.326 533.89C106.97 530.604 107.645 527.274 108.092 523.901C110.061 509.025 109.21 493.169 109.236 478.329V478.327L109.245 403.567V403.566L109.147 294.445C109.146 282.535 109.707 268.627 109.575 255.035C109.443 241.38 108.618 227.77 105.819 216.104C103.953 208.326 100.262 202.733 95.9883 197.63C93.8626 195.092 91.5702 192.651 89.3057 190.148C87.0312 187.635 84.762 185.037 82.625 182.131C80.3364 179.018 78.7722 175.542 79.7021 172.007L79.7998 171.664C80.6148 169.021 82.2794 167.076 84.3857 165.432C86.4515 163.819 88.858 162.552 91.2676 161.187C128.74 161.89 166.416 161.065 203.864 161.035ZM235.97 191.318C234.212 191.327 232.453 191.379 230.696 191.471L230.515 191.48L230.349 191.553C223.432 194.571 215.828 197.994 212.48 205.829C211.226 208.763 210.222 213.732 209.4 220.136C208.575 226.573 207.924 234.563 207.414 243.606C206.395 261.696 205.939 284.056 205.805 306.751C205.535 352.143 206.547 398.924 206.892 415.661L206.898 415.981L207.09 416.239C210.448 420.735 213.342 424.047 216.875 426.448C220.426 428.861 224.549 430.305 230.298 431.206C242.583 433.134 256.855 431.457 270.434 427.465C284.017 423.471 296.987 417.138 306.67 409.677H306.671L306.678 409.671L308.437 408.29L308.472 408.262L308.505 408.23C337.568 380.766 350.068 348.498 351.448 308.952L351.506 307.063C352.285 276.833 350.623 242.467 328.095 218.938L327.559 218.384C304.391 194.712 267.055 191.071 235.97 191.318Z" fill="#F5F5F5" stroke="white" stroke-width="2"/>
</svg>
