<svg width="596" height="224" viewBox="0 0 596 224" fill="none" xmlns="http://www.w3.org/2000/svg">
<g clip-path="url(#clip0_1967_760)">
<path d="M443.019 57.5251C444.084 57.5351 444.847 57.6549 445.494 57.9236C446.052 58.1552 446.582 58.5217 447.164 59.1296L447.417 59.405C448.875 61.0592 449.829 63.2354 449.502 65.2498C449.252 66.7894 448.389 67.8937 447.054 68.7781C445.685 69.6845 443.871 70.3235 441.836 70.8953C439.876 71.4458 437.603 71.9582 435.664 72.573C433.824 73.1566 432.041 73.8984 430.726 75.0408L430.47 75.2751C429.888 75.8328 429.219 76.8181 429.255 77.9314L429.256 77.9324C429.284 78.7912 429.657 79.8891 430.114 80.991C430.588 82.1311 431.217 83.4218 431.862 84.714C433.183 87.357 434.536 89.939 435.04 91.597C435.841 94.23 436.07 97.176 436.099 100.059L436.1 101.291C436.027 111.475 431.396 121.798 424.084 128.911C412.317 140.357 397.992 140.117 382.166 139.998L381.865 139.996L381.612 140.16C379.809 141.336 377.355 142.386 374.811 143.704C372.375 144.967 369.873 146.473 368.453 148.491C368.173 148.889 367.858 149.309 367.74 149.81C367.622 150.314 367.715 150.833 367.798 151.347L367.839 151.605L368.002 151.81C368.583 152.542 369.158 153.185 369.864 153.696C370.585 154.218 371.397 154.571 372.421 154.795C374.332 155.213 376.405 155.276 378.416 155.248C380.228 155.223 381.912 155.129 383.542 155.121L384.237 155.123C391.899 155.219 400.928 154.924 409.712 155.717C418.493 156.509 426.835 158.378 433.087 162.693C439.125 166.86 443.652 173.037 444.859 180.284C446.177 188.198 442.952 196.087 438.269 202.62L437.812 203.248C427 217.847 410.515 221.311 393.285 223.817C389.841 224.032 386.347 223.988 382.834 224.009C376.461 224.045 368.674 223.564 361.326 221.873C353.961 220.177 347.15 217.291 342.608 212.605H342.607C339.058 208.943 336.38 203.517 336.352 198.445L336.358 197.956C336.554 191.157 339.201 187.27 342.84 184.09C344.693 182.47 346.794 181.043 349.018 179.497C351.223 177.963 353.53 176.324 355.69 174.324L355.695 174.319L356.205 173.84L357.167 172.936L356.038 172.255C353.393 170.657 350.978 168.87 349.206 166.477V166.476C346.945 163.425 346.287 159.059 346.905 155.21L346.97 154.839C347.729 150.709 351.079 147.605 355.385 144.874C357.519 143.52 359.82 142.298 362.059 141.099C364.28 139.911 366.454 138.739 368.251 137.512L369.524 136.642L368.211 135.835C358.399 129.797 350.884 126.097 346.814 114.993C343.216 105.178 344.309 92.176 348.829 82.7625C358.142 63.3691 381.95 57.6857 402.091 61.1931C404.193 61.5594 406.42 62.623 408.88 63.657C411.248 64.6522 413.834 65.6165 416.361 65.4548C420.14 65.2133 424.849 63.8211 429.443 62.2175C431.753 61.4113 434.06 60.5414 436.232 59.7214C438.364 58.9169 440.36 58.1626 442.125 57.5515C442.327 57.5341 442.386 57.5285 442.467 57.5251C442.559 57.5213 442.665 57.522 443.019 57.5251ZM392.647 178.472C384.597 177.782 376.423 177.441 372.079 177.646L372.048 177.647L372.017 177.651C368.244 178.068 364.63 180.586 362.33 183.344C359.782 186.401 358.81 190.56 359.196 194.389L359.237 194.76C359.877 199.894 362.896 204.581 367.005 207.573C371.307 210.705 377.043 212.324 382.853 212.948C388.677 213.573 394.672 213.21 399.572 212.299L399.58 212.297C402.412 211.744 405.203 210.996 407.933 210.06L407.992 210.04L408.049 210.011C413.657 207.259 419.979 204.263 422.36 197.345C422.828 195.987 423.118 194.564 423.399 193.254L423.45 193.019L423.389 192.787C422.853 190.772 422.36 188.532 421.584 186.462L421.492 186.217L421.291 186.048L420.808 185.651C418.38 183.709 415.8 182.372 412.81 181.457C408.738 180.21 400.676 179.161 392.647 178.472ZM390.63 69.7419C386.239 70.0087 381.842 70.8364 378.487 74.4705C374.597 78.6855 372.854 84.741 372.146 90.878C371.436 97.035 371.751 103.432 372.102 108.459C372.559 115.001 373.724 121.244 379.227 126.01C382.617 128.947 386.657 130.153 391.011 130.102L391.053 130.101L391.095 130.097C395.716 129.651 400.521 128.63 403.906 124.651C405.332 122.975 406.37 120.382 407.137 117.444C407.91 114.478 408.437 111.039 408.772 107.57C409.442 100.64 409.358 93.47 408.9 89.494C408.219 83.5679 406.153 76.4102 400.942 72.448C397.663 69.954 394.322 69.7731 390.7 69.74H390.665L390.63 69.7419Z" fill="#F5F5F5" stroke="white" stroke-width="2"/>
<path d="M61.5004 23.9776C60.8379 23.9807 60.1745 23.9995 59.5131 24.0343L59.3315 24.044L59.1654 24.1173C56.713 25.1897 53.7505 26.4959 52.3354 29.4659L52.2035 29.7589C51.7 30.939 51.319 32.8663 51.0141 35.2491C50.7049 37.6653 50.4616 40.6557 50.2719 44.0284C49.8924 50.7757 49.7233 59.1085 49.6733 67.5577C49.5732 84.4592 49.9496 101.875 50.0776 108.103L50.0834 108.424L50.2748 108.681C51.5313 110.366 52.657 111.669 54.059 112.624C55.4781 113.59 57.1069 114.151 59.3002 114.496C63.9817 115.232 69.3805 114.589 74.4825 113.086C79.5895 111.582 84.4785 109.192 88.1465 106.36L88.1545 106.354L88.8075 105.841L88.8435 105.812L88.8765 105.781C99.9805 95.2672 104.65 82.8725 105.042 67.6944C105.333 56.3704 104.73 43.208 95.9705 34.2384C87.4385 25.5043 73.9205 23.9761 62.5893 23.9727L61.5004 23.9776ZM15.0688 103.589L15.0326 62.9825C15.0321 58.6158 15.2404 53.3413 15.1918 48.3096C15.1426 43.2159 14.836 38.0942 13.7797 33.6827C13.0557 30.6601 11.6215 28.4923 9.99937 26.5518C9.19967 25.5952 8.33287 24.6687 7.50237 23.7491C6.66177 22.8183 5.83547 21.8701 5.06097 20.8145C4.26797 19.7339 3.83397 18.6803 4.05307 17.6759L4.10587 17.4757C4.35917 16.6524 4.87767 16.0271 5.59507 15.4659C6.27857 14.9314 7.06477 14.5084 7.92717 14.0216C21.7932 14.2775 35.751 13.9739 49.5815 13.963C62.065 13.9524 75.9395 13.724 89.1395 15.7442C102.122 17.7315 114.342 21.8813 123.847 30.4679L124.297 30.88C133.857 39.739 139.423 52.738 139.618 65.835C139.826 79.7643 132.988 96.0792 123.141 105.893C114.792 114.214 104.013 118.523 92.4595 120.728C80.8985 122.935 68.6415 123.023 57.3822 122.96H57.3832C56.4349 122.947 55.1018 122.872 53.9301 123.18C52.5878 123.533 51.2454 124.235 50.602 125.858C49.9771 127.435 49.691 129.934 49.6049 132.76C49.5176 135.625 49.6352 138.959 49.8861 142.287C50.354 148.491 51.2978 154.823 52.307 158.129L52.5092 158.749C54.346 163.969 58.7584 165.869 62.9223 167.798C63.201 168.293 63.473 168.775 63.6869 169.275C63.9393 169.866 64.0655 170.382 64.0375 170.834C63.9737 171.862 63.3644 172.907 62.5043 173.654L62.3285 173.8C61.2885 174.621 59.7309 175.283 58.4252 175.439C55.4534 175.795 52.179 175.718 48.8305 175.536C45.5158 175.355 42.0883 175.068 38.9526 175.028C35.6962 174.987 28.9214 175.235 22.4428 175.335C19.1856 175.385 15.9893 175.398 13.3051 175.32C10.5865 175.241 8.49427 175.071 7.38417 174.786C6.20407 174.483 5.09867 173.647 4.35687 172.589L4.21327 172.374C3.73487 171.623 3.71677 170.774 4.12827 169.723C4.55257 168.639 5.39507 167.46 6.45647 166.223C7.51637 164.987 8.70467 163.794 9.80607 162.623C10.8661 161.496 11.8859 160.349 12.4311 159.312C13.0348 158.165 13.3084 156.869 13.4897 155.656C13.6827 154.364 13.7612 153.291 13.9731 152.208C14.1514 151.296 14.3403 150.359 14.4945 149.408L14.6352 148.453C15.3735 142.863 15.056 136.886 15.0658 131.413V131.411L15.0688 103.589Z" fill="#F5F5F5" stroke="white" stroke-width="2"/>
<path d="M243.501 59.8604C243.892 60.1848 244.235 60.4559 244.575 60.7471L244.983 61.1113C246.467 62.5038 247.082 64.8217 247.283 67.5771C247.382 68.9303 247.378 70.3295 247.357 71.6914C247.335 73.035 247.296 74.3713 247.329 75.5234L247.403 78.0732L249.081 76.1523L250.437 74.6006L250.439 74.5977C251.149 73.7782 251.807 73.0002 252.528 72.2734C260.907 63.829 273.656 59.9668 285.463 59.9717C294.222 59.9761 301.706 62.1457 307.413 66.4346C313.109 70.7156 317.121 77.1729 318.834 85.924C320.315 93.489 320.05 101.248 320.038 109.092L319.968 136.244C319.948 143.109 319.469 151.029 322.283 157.839C323.633 161.104 325.789 162.992 327.983 165.215C328.875 166.118 329.798 167.129 330.459 168.225C331.118 169.316 331.468 170.411 331.334 171.507C331.241 172.265 330.817 172.88 330.119 173.398L329.804 173.614C328.399 174.503 326.586 174.852 324.747 175.022C322.664 175.216 313.809 175.329 305.047 175.288C300.681 175.268 296.363 175.209 292.957 175.104C291.253 175.052 289.785 174.988 288.657 174.912C287.485 174.834 286.788 174.748 286.543 174.679C285.341 174.339 284.414 173.892 283.65 173.292C282.938 172.732 282.33 172.006 281.769 171.033C281.764 170.771 281.754 170.454 281.751 170.236C281.748 170.046 281.751 169.881 281.761 169.751C281.772 169.596 281.788 169.58 281.767 169.633C281.836 169.464 281.995 169.203 282.279 168.831C282.556 168.47 282.914 168.052 283.342 167.578C283.769 167.105 284.249 166.592 284.769 166.033C285.286 165.477 285.838 164.882 286.396 164.257C288.595 161.793 291.027 158.728 291.878 155.543C292.408 153.562 292.765 149.568 293.001 144.682C293.239 139.752 293.358 133.8 293.382 127.824C293.43 115.9 293.099 103.78 292.565 99.497C292.15 96.169 291.485 93.215 289.75 90.154L289.725 90.109L289.694 90.066C289.526 89.83 289.332 89.549 289.139 89.289L289.138 89.288L288.775 88.814C284.972 83.9734 279.326 80.6104 273.127 79.9258C266.872 79.2341 259.35 81.3144 254.544 85.403C250.112 89.176 247.928 94.688 247.475 100.271C247.175 103.95 247.223 107.727 247.345 111.472C247.467 115.235 247.661 118.938 247.664 122.559C247.666 125.238 247.473 128.134 247.249 131.159C247.026 134.173 246.772 137.316 246.663 140.438C246.446 146.665 246.793 152.971 249.19 158.303C250.231 160.618 251.889 162.68 253.621 164.574C255.278 166.386 256.892 167.943 258.349 169.589C258.13 170.323 257.916 171.07 257.629 171.802C257.318 172.596 256.966 173.248 256.542 173.701L256.356 173.883C255.646 174.514 254.705 174.755 253.548 174.909L253.038 174.972C249.453 175.374 245.691 175.36 241.873 175.243C238.555 175.142 235.163 174.961 231.876 174.921L230.475 174.913C227.731 174.918 224.898 175.102 222.15 175.214C219.38 175.326 216.66 175.367 214.031 175.102C212.671 174.964 211.608 174.747 210.689 174.34C209.829 173.959 209.05 173.39 208.265 172.483C207.737 170.699 208.597 168.774 210.217 166.637C211.032 165.562 211.974 164.515 212.898 163.48C213.803 162.466 214.706 161.446 215.363 160.484L215.367 160.479C217.197 157.762 218.508 154.728 219.232 151.532V151.533C219.687 149.586 220.002 145.056 220.194 139.39C220.389 133.676 220.461 126.691 220.403 119.749C220.346 112.809 220.157 105.9 219.828 100.343C219.664 97.565 219.464 95.114 219.226 93.159C218.992 91.245 218.711 89.695 218.346 88.8C217.205 86.003 215.283 83.9948 213.439 82.1836C211.556 80.3345 209.797 78.7211 208.621 76.6016C208.192 75.8289 208.004 75.162 207.962 74.5C207.924 73.8961 208.004 73.2525 208.19 72.4785C208.562 72.1678 209.198 71.7563 210.113 71.2627C211.179 70.6881 212.537 70.0444 214.107 69.3613C217.243 67.996 221.171 66.4939 225.17 65.0908C229.168 63.6881 233.223 62.3897 236.611 61.4316C239.71 60.5555 242.156 59.9936 243.501 59.8604Z" fill="#F5F5F5" stroke="white" stroke-width="2"/>
<path d="M181.219 60.6703C181.99 60.5484 182.589 60.4822 183.141 60.599C184.02 60.7856 184.692 61.2299 185.322 61.8617C185.923 62.4631 186.417 63.1502 187.035 63.9466L186.983 122.217C186.982 126.45 186.761 131.466 186.683 136.555C186.61 141.282 186.663 146.02 187.156 149.989L187.261 150.772C188.004 155.968 191.066 159.921 193.784 163.138C195.171 164.78 196.434 166.19 197.376 167.542C198.26 168.809 198.753 169.881 198.817 170.863L198.824 171.058C198.831 171.98 198.416 172.918 197.733 173.479C197.442 173.719 196.744 174.012 195.527 174.28C194.36 174.537 192.863 174.742 191.12 174.9C187.638 175.217 183.274 175.34 178.807 175.363C174.344 175.386 169.8 175.308 165.966 175.222C162.145 175.137 159 175.044 157.379 175.04H157.363C156.147 175.056 154.971 175.073 153.81 175C153.025 174.95 152.051 174.661 151.139 174.184C150.222 173.705 149.467 173.088 149.044 172.464C148.495 171.652 148.447 170.76 148.814 169.702C149.194 168.605 149.997 167.413 151.034 166.173C152.065 164.94 153.254 163.742 154.357 162.6C155.426 161.495 156.465 160.394 157.059 159.438L157.06 159.437C158.881 156.504 159.342 152.865 159.634 149.754C160.055 145.257 160.4 131.956 160.333 119C160.3 112.514 160.163 106.092 159.88 100.88C159.738 98.2736 159.56 95.9596 159.337 94.0846C159.118 92.2396 158.847 90.7296 158.49 89.7916C157.588 87.4156 156.18 85.4676 154.676 83.6888C153.926 82.8021 153.137 81.9403 152.376 81.096C151.609 80.2454 150.863 79.4049 150.166 78.5296C148.826 76.8468 148.074 75.6385 148.222 73.8246C148.487 73.4211 148.965 72.9478 149.698 72.4193C150.516 71.8299 151.577 71.2242 152.831 70.6097C155.339 69.3807 158.519 68.163 161.844 66.9954C165.17 65.8275 168.588 64.7274 171.601 63.7142C174.581 62.7119 177.197 61.7844 178.816 60.9828L178.817 60.9818C178.884 60.9488 178.953 60.9129 179.021 60.8783C179.811 60.9148 180.596 60.7688 181.219 60.6703Z" fill="#F5F5F5" stroke="white" stroke-width="2"/>
<path d="M483.278 167.465C487.16 167.492 491.093 167.585 494.67 167.673C498.241 167.76 501.466 167.841 503.91 167.844C532.653 167.872 561.446 168.118 590.205 167.751C590.862 167.752 591.486 167.739 592.098 167.802C592.707 167.864 593.199 167.993 593.571 168.219L593.572 168.22C594.203 168.603 594.61 169.276 594.823 170.151C595.318 172.176 595.613 175.921 595.469 179.669C595.397 181.532 595.218 183.364 594.912 184.955C594.64 186.37 594.277 187.527 593.844 188.341C593.79 188.351 593.728 188.367 593.653 188.38C593.36 188.429 592.967 188.477 592.471 188.525C591.481 188.62 590.133 188.706 588.468 188.783C585.141 188.937 580.592 189.052 575.197 189.136C564.41 189.305 550.274 189.349 535.84 189.334C507.032 189.303 476.939 189.032 470.144 189.032H470.145L469.394 189.02H467.939C466.672 189.017 465.685 188.953 464.631 188.416C463.979 187.631 463.714 187.019 463.583 185.995C463.336 184.053 463.058 180.322 463.139 176.675C463.179 174.851 463.309 173.075 463.569 171.566C463.799 170.235 464.116 169.209 464.496 168.542C468.486 167.611 475.706 167.411 483.278 167.465Z" fill="#F5F5F5" stroke="white" stroke-width="2"/>
<path d="M167.795 12.7288C177.093 10.5333 186.419 16.2536 188.676 25.5374C190.932 34.8202 185.273 44.1836 176.004 46.5013C166.651 48.8405 157.18 43.1159 154.902 33.7474C152.625 24.3776 158.411 14.9453 167.795 12.7288Z" fill="#F5F5F5" stroke="white" stroke-width="2"/>
</g>
<defs>
<clipPath id="clip0_1967_760">
<rect width="596" height="224" fill="white"/>
</clipPath>
</defs>
</svg>
