<svg xmlns="http://www.w3.org/2000/svg" xmlns:xlink="http://www.w3.org/1999/xlink" width="192" zoomAndPan="magnify" viewBox="0 0 144 50.249999" height="67" preserveAspectRatio="xMidYMid meet" version="1.2"><defs><clipPath id="9bdc7de47c"><path d="M 77 3 L 131 3 L 131 48.773438 L 77 48.773438 Z M 77 3 "/></clipPath><clipPath id="53b18a1920"><path d="M 106 13 L 131 13 L 131 48.773438 L 106 48.773438 Z M 106 13 "/></clipPath></defs><g id="d48b6ea660"><path style=" stroke:none;fill-rule:nonzero;fill:#131313;fill-opacity:1;" d="M 55.023438 3.425781 C 55.464844 3.609375 55.6875 3.808594 56.015625 4.152344 C 56.394531 4.710938 56.53125 5.195312 56.585938 5.867188 C 56.585938 6.0625 56.589844 6.257812 56.585938 6.457031 L 56.585938 6.773438 C 56.566406 8.046875 56.351562 9.296875 56.128906 10.550781 L 56.371094 10.347656 C 56.679688 10.136719 56.679688 10.136719 56.960938 10.074219 C 57.242188 10.070312 57.242188 10.070312 57.785156 10.136719 C 58.023438 10.417969 58.023438 10.417969 58.199219 10.824219 C 58.246094 11.1875 58.265625 11.503906 58.261719 11.867188 L 58.253906 12.179688 C 58.128906 16.042969 56.320312 20.023438 54.757812 23.503906 C 54.609375 23.84375 54.46875 24.179688 54.335938 24.523438 C 54.773438 24.539062 55.214844 24.546875 55.65625 24.558594 L 56.03125 24.570312 C 56.722656 24.585938 56.722656 24.585938 57.378906 24.402344 C 57.609375 24.261719 57.835938 24.121094 58.0625 23.976562 C 58.476562 23.890625 58.734375 23.925781 59.164062 23.976562 L 59.441406 24.386719 L 59.441406 24.933594 L 59.769531 24.609375 L 60.40625 23.976562 C 60.699219 24.027344 60.699219 24.027344 60.960938 24.113281 C 60.898438 25.027344 60.535156 25.761719 60.132812 26.578125 C 60.417969 26.363281 60.703125 26.152344 60.984375 25.9375 L 61.226562 25.753906 C 61.902344 25.246094 62.515625 24.714844 62.976562 24 L 63.304688 23.5625 L 63.71875 23.5625 C 63.695312 24.003906 63.613281 24.332031 63.386719 24.714844 C 63.183594 25.019531 62.972656 25.320312 62.753906 25.617188 L 63.160156 25.257812 C 63.546875 24.929688 63.949219 24.621094 64.367188 24.324219 L 64.671875 24.113281 L 64.960938 23.976562 C 65.265625 24.011719 65.265625 24.011719 65.515625 24.113281 L 65.652344 24.25 C 65.660156 25.164062 65.371094 25.910156 64.960938 26.714844 L 65.222656 26.503906 L 65.566406 26.234375 L 65.90625 25.964844 C 66.003906 25.898438 66.101562 25.828125 66.203125 25.757812 L 66.480469 25.757812 C 66.675781 25.371094 66.859375 24.980469 67.023438 24.585938 L 67.171875 24.234375 L 67.324219 23.871094 L 67.480469 23.503906 L 67.859375 22.605469 L 68.410156 22.878906 C 68.214844 23.296875 68.015625 23.71875 67.816406 24.136719 L 67.648438 24.496094 C 67.375 25.070312 67.101562 25.632812 66.753906 26.167969 C 67.542969 25.953125 68.191406 25.566406 68.886719 25.15625 L 69.566406 24.757812 C 69.875 24.582031 70.183594 24.398438 70.488281 24.214844 C 70.714844 24.082031 70.941406 23.960938 71.171875 23.839844 C 71.558594 23.839844 71.558594 23.839844 71.863281 23.976562 C 72.042969 24.257812 72.042969 24.257812 72.136719 24.523438 C 71.910156 24.871094 71.703125 25.144531 71.328125 25.34375 C 70.761719 25.566406 70.421875 25.617188 69.792969 25.617188 L 69.652344 26.988281 C 71.320312 26.296875 72.5 25.039062 73.714844 23.746094 L 73.933594 23.5625 L 74.347656 23.5625 C 74.253906 24.054688 74.046875 24.410156 73.785156 24.832031 L 73.554688 25.203125 L 73.378906 25.480469 L 73.519531 25.617188 L 73.691406 25.433594 C 74.253906 24.847656 74.828125 24.296875 75.589844 23.976562 C 76.003906 24 76.003906 24 76.277344 24.113281 C 76.363281 24.34375 76.363281 24.34375 76.417969 24.660156 C 76.324219 24.988281 76.324219 24.988281 76.175781 25.335938 L 76.019531 25.699219 C 75.851562 26.054688 75.660156 26.382812 75.449219 26.714844 L 75.449219 26.988281 C 76.453125 26.402344 77.289062 25.789062 78.070312 24.933594 L 78.484375 25.070312 C 77.96875 25.730469 77.398438 26.28125 76.761719 26.828125 L 76.53125 27.027344 C 76.058594 27.425781 75.636719 27.65625 75.035156 27.8125 C 74.820312 27.648438 74.820312 27.648438 74.621094 27.398438 C 74.675781 26.78125 74.964844 26.269531 75.25 25.730469 C 75.59375 25.15625 75.59375 25.15625 75.726562 24.523438 C 75.09375 24.734375 74.578125 25.0625 74.070312 25.480469 C 73.925781 25.660156 73.789062 25.84375 73.65625 26.03125 L 73.378906 26.03125 L 73.269531 26.269531 C 73.097656 26.59375 72.898438 26.867188 72.671875 27.160156 L 72.449219 27.453125 L 72.277344 27.675781 L 71.863281 27.535156 C 72.082031 26.824219 72.378906 26.15625 72.691406 25.480469 L 72.363281 25.824219 C 72.214844 25.972656 72.070312 26.121094 71.921875 26.269531 L 71.707031 26.492188 C 71.203125 27.003906 70.71875 27.359375 70.066406 27.675781 C 69.609375 27.664062 69.609375 27.664062 69.238281 27.535156 C 68.964844 27.125 68.964844 27.125 68.921875 26.664062 C 68.964844 26.136719 69.09375 25.914062 69.378906 25.480469 L 68.925781 25.710938 L 68.324219 26.011719 L 68.027344 26.164062 C 67.582031 26.386719 67.1875 26.574219 66.699219 26.699219 L 66.339844 26.851562 C 66.171875 27.214844 66.171875 27.214844 66.066406 27.675781 C 65.886719 28.085938 65.691406 28.488281 65.496094 28.890625 L 65.339844 29.214844 C 65.214844 29.476562 65.089844 29.742188 64.960938 30.003906 L 64.824219 29.59375 C 64.949219 29.261719 65.078125 28.953125 65.230469 28.632812 C 65.546875 27.976562 65.546875 27.976562 65.652344 27.261719 L 65.433594 27.402344 C 64.566406 27.941406 63.667969 28.378906 62.738281 28.796875 C 62.242188 29.023438 61.792969 29.238281 61.375 29.59375 L 61.703125 29.824219 C 62.0625 30.140625 62.0625 30.140625 62.222656 30.429688 C 62.378906 30.953125 62.390625 31.457031 62.390625 31.996094 L 62.390625 32.339844 C 62.375 33.339844 62.207031 34.285156 61.972656 35.253906 C 61.855469 35.746094 61.773438 36.09375 61.863281 36.597656 C 61.925781 36.988281 61.925781 36.988281 61.785156 37.457031 C 61.71875 37.632812 61.644531 37.804688 61.570312 37.976562 C 61.21875 38.847656 60.914062 39.722656 60.632812 40.621094 L 60.523438 40.96875 C 60.4375 41.242188 60.351562 41.511719 60.269531 41.785156 L 59.578125 41.785156 C 59.667969 41.28125 59.808594 40.8125 59.976562 40.328125 C 60.878906 37.75 61.800781 35.082031 61.820312 32.324219 L 61.832031 32.039062 C 61.835938 31.566406 61.78125 31.214844 61.605469 30.769531 C 61.390625 30.375 61.390625 30.375 60.925781 30.183594 C 60.398438 30.078125 59.972656 30.207031 59.464844 30.367188 C 59.191406 30.464844 58.914062 30.5625 58.640625 30.664062 C 58.199219 30.824219 58.199219 30.824219 57.921875 30.824219 L 57.765625 31.328125 C 57.503906 32.113281 57.160156 32.863281 56.820312 33.617188 C 56.039062 35.359375 55.328125 37.125 54.65625 38.90625 L 54.527344 39.242188 C 53.996094 40.644531 53.996094 40.644531 53.507812 42.058594 L 53.09375 42.058594 L 53.140625 41.78125 C 53.21875 41.28125 53.296875 40.777344 53.371094 40.277344 L 53.421875 39.914062 C 53.949219 36.484375 53.949219 36.484375 53.390625 33.085938 C 53.191406 32.652344 53.011719 32.378906 52.644531 32.066406 C 52.144531 31.875 51.695312 31.828125 51.160156 31.785156 C 51.191406 31.523438 51.191406 31.523438 51.300781 31.234375 C 51.566406 31.101562 51.566406 31.101562 51.929688 30.996094 C 53.019531 30.636719 54.007812 30.117188 55.023438 29.59375 L 55.328125 29.4375 C 56.457031 28.859375 57.558594 28.269531 58.613281 27.566406 L 58.890625 27.398438 L 59.164062 27.398438 L 59.363281 26.800781 L 59.476562 26.464844 C 59.578125 26.167969 59.578125 26.167969 59.71875 25.894531 L 59.515625 26.074219 C 57.792969 27.59375 57.792969 27.59375 57.226562 27.753906 C 56.957031 27.792969 56.957031 27.792969 56.542969 27.8125 C 56.328125 27.613281 56.328125 27.613281 56.128906 27.261719 C 56.105469 26.832031 56.148438 26.445312 56.265625 26.03125 L 56.820312 25.070312 L 53.921875 25.070312 L 53.644531 25.894531 C 53.527344 26.144531 53.402344 26.394531 53.273438 26.640625 L 53.054688 27.066406 L 52.816406 27.511719 L 52.570312 27.976562 C 51.015625 30.90625 49.253906 33.722656 47.160156 36.304688 L 46.847656 36.699219 C 45.296875 38.628906 43.539062 40.269531 41.226562 41.238281 C 40.5 41.515625 39.824219 41.550781 39.0625 41.445312 C 38.578125 41.335938 38.285156 41.152344 37.914062 40.824219 C 37.363281 40.238281 37.105469 39.621094 36.886719 38.855469 C 35.90625 34.421875 37.121094 29.3125 38.464844 25.070312 L 38.230469 25.136719 C 37.882812 25.214844 37.570312 25.230469 37.214844 25.234375 L 36.78125 25.246094 L 36.308594 25.25 L 35.800781 25.261719 C 35.335938 25.265625 34.867188 25.273438 34.402344 25.28125 C 34.109375 25.285156 33.8125 25.289062 33.519531 25.292969 C 29.84375 25.347656 26.164062 25.363281 22.488281 25.371094 C 22.070312 25.371094 21.648438 25.371094 21.230469 25.375 C 20.5625 25.375 19.894531 25.375 19.222656 25.375 C 18.976562 25.375 18.730469 25.378906 18.484375 25.378906 C 15.496094 25.390625 15.496094 25.390625 14.453125 25.070312 C 14.058594 24.785156 14.058594 24.785156 13.761719 24.523438 C 13.777344 24.171875 13.777344 24.171875 13.898438 23.699219 C 14.359375 23.042969 14.945312 22.519531 15.597656 22.058594 L 15.863281 21.867188 C 18.414062 20.082031 21.1875 18.644531 23.972656 17.261719 L 24.296875 17.097656 C 29.328125 14.5625 35.117188 12.675781 40.800781 12.851562 C 41.882812 12.921875 42.933594 13.171875 43.984375 13.425781 L 44.257812 12.992188 C 46.363281 9.699219 49 5.773438 52.554688 3.882812 C 53.371094 3.515625 54.128906 3.257812 55.023438 3.425781 M 52.816406 4.65625 C 51.394531 5.421875 50.242188 6.414062 49.089844 7.535156 C 48.996094 7.621094 48.902344 7.710938 48.808594 7.800781 C 47.117188 9.410156 45.53125 11.523438 44.398438 13.5625 L 44.398438 13.835938 C 44.65625 14.03125 44.65625 14.03125 44.976562 14.222656 C 45.496094 14.554688 45.917969 14.882812 46.332031 15.34375 L 46.558594 15.589844 C 47.472656 16.648438 47.992188 17.949219 48.285156 19.304688 C 48.464844 20.359375 48.429688 21.425781 48.417969 22.492188 C 48.417969 22.703125 48.414062 22.914062 48.414062 23.125 C 48.410156 23.636719 48.40625 24.148438 48.402344 24.660156 L 48.816406 24.660156 L 48.933594 24.382812 C 52.84375 15.113281 52.84375 15.113281 55.042969 12.175781 C 55.539062 11.496094 55.742188 10.949219 55.828125 10.117188 L 55.851562 9.726562 L 55.898438 9.363281 C 56.074219 7.890625 56.089844 6.375 55.507812 4.984375 C 55.3125 4.648438 55.3125 4.648438 55.023438 4.382812 C 54.226562 4.125 53.5625 4.335938 52.816406 4.65625 M 56.957031 10.824219 C 55.5625 11.625 54.660156 13.363281 53.871094 14.703125 C 53.511719 15.324219 53.164062 15.949219 52.816406 16.578125 L 52.609375 16.949219 C 51.730469 18.554688 50.933594 20.1875 50.179688 21.851562 L 50.058594 22.109375 C 49.675781 22.960938 49.351562 23.761719 49.089844 24.660156 L 53.785156 24.660156 C 54.414062 23.410156 55 22.199219 55.507812 20.902344 L 55.703125 20.402344 C 56.875 17.367188 57.835938 14.375 57.648438 11.097656 L 57.507812 10.824219 Z M 22.441406 18.359375 C 22.167969 18.5 21.890625 18.640625 21.617188 18.777344 C 19.117188 20.050781 16.179688 21.578125 14.3125 23.699219 C 14.199219 24.066406 14.199219 24.066406 14.175781 24.386719 C 16.863281 25.691406 20.753906 25.09375 23.683594 25.089844 C 24.003906 25.089844 24.324219 25.085938 24.644531 25.085938 C 29.296875 25.085938 33.949219 25.019531 38.601562 24.933594 L 38.730469 24.605469 C 38.894531 24.191406 39.054688 23.78125 39.21875 23.371094 L 39.425781 22.84375 C 40.535156 20.019531 41.734375 17.054688 43.433594 14.523438 L 43.433594 14.109375 C 42.421875 13.777344 41.464844 13.464844 40.398438 13.425781 L 39.878906 13.40625 C 33.777344 13.234375 27.765625 15.605469 22.441406 18.359375 M 43.847656 14.386719 C 42.207031 17.183594 40.734375 20.027344 39.59375 23.066406 L 39.449219 23.449219 L 39.324219 23.796875 L 39.214844 24.105469 C 39.144531 24.429688 39.203125 24.617188 39.292969 24.933594 C 40.332031 24.917969 41.375 24.902344 42.414062 24.882812 C 42.769531 24.878906 43.125 24.871094 43.476562 24.867188 C 43.988281 24.859375 44.496094 24.847656 45.007812 24.839844 L 45.484375 24.832031 C 46.28125 24.820312 47.058594 24.777344 47.847656 24.660156 C 48.023438 22.058594 48.082031 19.703125 46.976562 17.277344 C 46.46875 16.273438 45.839844 15.507812 44.921875 14.851562 C 44.660156 14.683594 44.402344 14.519531 44.121094 14.386719 Z M 58.476562 24.523438 C 57.984375 24.855469 57.613281 25.296875 57.324219 25.8125 C 57.050781 26.378906 57.050781 26.378906 56.957031 26.988281 C 57.394531 26.789062 57.757812 26.546875 58.140625 26.253906 L 58.457031 26.007812 C 58.746094 25.757812 58.964844 25.53125 59.164062 25.207031 C 59.136719 24.839844 59.136719 24.839844 59.027344 24.523438 Z M 70.34375 24.933594 L 70.757812 25.070312 C 71.058594 24.882812 71.058594 24.882812 71.308594 24.660156 C 70.882812 24.660156 70.710938 24.734375 70.34375 24.933594 M 64.410156 24.933594 C 63.386719 25.675781 62.53125 26.664062 61.789062 27.675781 L 61.375 27.535156 L 61.671875 26.867188 C 61.816406 26.503906 61.941406 26.128906 62.0625 25.757812 C 61.691406 25.984375 61.320312 26.21875 60.953125 26.453125 C 60.71875 26.605469 60.476562 26.753906 60.234375 26.890625 C 59.835938 27.132812 59.542969 27.367188 59.300781 27.769531 C 58.726562 28.773438 58.726562 28.773438 58.476562 29.867188 C 59.921875 29.71875 61.148438 29.304688 62.46875 28.710938 L 62.917969 28.511719 L 63.335938 28.316406 L 63.710938 28.140625 L 63.996094 27.949219 C 64.136719 27.597656 64.144531 27.285156 64.183594 26.902344 C 64.265625 26.222656 64.472656 25.585938 64.6875 24.933594 Z M 48.832031 25.121094 C 47.890625 26.488281 47.59375 28.410156 47.15625 29.992188 C 46.730469 31.535156 46.242188 33.039062 45.640625 34.523438 L 45.226562 34.523438 C 45.429688 33.507812 45.746094 32.554688 46.089844 31.578125 C 46.527344 30.304688 46.914062 29.027344 47.226562 27.71875 L 47.328125 27.292969 C 47.5 26.554688 47.621094 25.824219 47.710938 25.070312 C 46.601562 25.066406 45.488281 25.066406 44.378906 25.0625 C 43.863281 25.0625 43.347656 25.0625 42.832031 25.0625 C 42.332031 25.058594 41.835938 25.058594 41.339844 25.058594 C 41.148438 25.058594 40.957031 25.058594 40.769531 25.058594 C 40.503906 25.054688 40.238281 25.054688 39.972656 25.054688 L 39.511719 25.054688 C 39.15625 25.046875 39.15625 25.046875 38.878906 25.207031 C 38.757812 25.515625 38.757812 25.515625 38.660156 25.894531 C 38.621094 26.039062 38.578125 26.183594 38.539062 26.332031 L 38.414062 26.808594 L 38.28125 27.292969 C 37.894531 28.773438 37.585938 30.269531 37.359375 31.785156 L 37.316406 32.066406 C 37.195312 32.996094 37.1875 33.933594 37.183594 34.871094 C 37.179688 35.058594 37.175781 35.25 37.171875 35.441406 C 37.144531 36.847656 37.265625 38.128906 37.773438 39.457031 C 38.042969 39.898438 38.246094 40.21875 38.65625 40.53125 C 39.195312 40.769531 39.644531 40.761719 40.226562 40.742188 C 41.457031 40.59375 42.503906 39.960938 43.492188 39.25 C 45.425781 37.78125 47.007812 35.941406 48.402344 33.976562 L 48.632812 33.652344 C 50.289062 31.292969 51.777344 28.808594 53.085938 26.242188 L 53.21875 25.980469 C 53.40625 25.601562 53.507812 25.363281 53.507812 24.933594 C 52.886719 24.925781 52.265625 24.917969 51.644531 24.910156 C 51.433594 24.910156 51.21875 24.90625 51.007812 24.902344 C 50.707031 24.898438 50.402344 24.894531 50.097656 24.894531 L 49.8125 24.886719 C 49.289062 24.886719 49.289062 24.886719 48.832031 25.121094 M 48.402344 25.070312 L 48.261719 25.480469 L 48.539062 25.480469 L 48.675781 25.070312 Z M 65.929688 26.578125 L 66.066406 26.851562 L 66.203125 26.578125 Z M 65.789062 26.851562 L 65.929688 27.125 Z M 58.316406 28.101562 L 57.949219 28.320312 L 57.539062 28.5625 L 57.09375 28.820312 C 55.683594 29.648438 54.257812 30.453125 52.816406 31.234375 L 52.988281 31.429688 L 53.441406 31.945312 C 53.953125 32.574219 54.09375 33.230469 54.230469 34.011719 C 54.390625 35.238281 54.296875 36.445312 54.199219 37.675781 C 54.183594 37.863281 54.167969 38.050781 54.15625 38.238281 C 54.125 38.644531 54.09375 39.050781 54.058594 39.457031 C 54.429688 39.015625 54.621094 38.585938 54.824219 38.050781 L 54.917969 37.796875 C 54.988281 37.617188 55.058594 37.433594 55.125 37.253906 C 55.769531 35.550781 56.449219 33.871094 57.191406 32.210938 L 57.375 31.796875 L 57.535156 31.4375 C 57.65625 31.074219 57.648438 30.792969 57.648438 30.414062 C 57.828125 30.183594 58.011719 29.953125 58.199219 29.730469 C 58.335938 29.421875 58.464844 29.109375 58.578125 28.796875 L 58.757812 28.3125 L 58.890625 27.949219 C 58.597656 27.925781 58.597656 27.925781 58.316406 28.101562 "/><g clip-rule="nonzero" clip-path="url(#9bdc7de47c)"><path style=" stroke:none;fill-rule:nonzero;fill:#161616;fill-opacity:1;" d="M 126.511719 3.699219 L 127.0625 3.835938 C 126.984375 4.417969 126.847656 4.894531 126.601562 5.429688 L 126.394531 5.886719 L 126.167969 6.378906 L 125.929688 6.902344 C 125.664062 7.480469 125.398438 8.054688 125.132812 8.632812 L 124.992188 8.9375 C 124.546875 9.898438 124.101562 10.859375 123.65625 11.820312 C 122.878906 13.492188 122.117188 15.171875 121.359375 16.855469 C 121.027344 17.597656 120.691406 18.339844 120.351562 19.078125 L 120.015625 19.820312 C 119.851562 20.1875 119.683594 20.550781 119.519531 20.914062 C 118.933594 22.203125 118.351562 23.488281 117.816406 24.796875 C 118.253906 24.796875 118.691406 24.789062 119.128906 24.78125 L 119.5 24.78125 C 120.027344 24.765625 120.433594 24.746094 120.894531 24.472656 C 121.078125 24.332031 121.261719 24.183594 121.433594 24.027344 C 121.714844 23.8125 121.910156 23.753906 122.261719 23.699219 C 122.769531 23.699219 123.023438 23.777344 123.476562 23.976562 L 123.617188 23.667969 C 124.835938 21.019531 126.078125 18.394531 127.597656 15.902344 L 127.78125 15.597656 C 128.148438 15.015625 128.53125 14.480469 128.996094 13.972656 C 129.316406 13.855469 129.316406 13.855469 129.546875 13.835938 L 129.824219 14.246094 C 129.429688 16.511719 127.605469 18.804688 126.375 20.6875 L 126.070312 21.152344 C 125.535156 21.96875 124.957031 22.757812 124.335938 23.515625 C 124.105469 23.804688 123.90625 24.066406 123.777344 24.414062 C 123.742188 24.742188 123.808594 25.023438 123.890625 25.34375 L 123.632812 25.40625 C 123.332031 25.472656 123.332031 25.472656 123.0625 25.617188 C 122.953125 25.851562 122.953125 25.851562 122.871094 26.140625 L 122.761719 26.476562 L 122.648438 26.851562 L 122.523438 27.25 C 122.394531 27.667969 122.265625 28.085938 122.140625 28.503906 L 122.003906 28.941406 C 121.898438 29.296875 121.789062 29.648438 121.683594 30.003906 C 122.089844 29.902344 122.089844 29.902344 122.285156 29.667969 L 122.480469 29.414062 L 122.699219 29.128906 L 122.933594 28.820312 L 123.171875 28.507812 C 123.691406 27.820312 124.191406 27.121094 124.675781 26.40625 L 124.847656 26.15625 C 125.070312 25.816406 125.261719 25.503906 125.398438 25.117188 C 125.546875 24.796875 125.546875 24.796875 125.886719 24.5 L 126.289062 24.222656 L 126.6875 23.945312 C 127.285156 23.558594 127.285156 23.558594 127.617188 23.425781 C 128.054688 23.46875 128.054688 23.46875 128.445312 23.5625 L 128.582031 23.699219 C 128.644531 24.042969 128.644531 24.042969 128.582031 24.523438 C 128.230469 25.179688 127.785156 25.828125 127.203125 26.304688 L 126.925781 26.304688 L 126.925781 26.714844 C 127.453125 26.640625 127.777344 26.503906 128.203125 26.191406 L 128.527344 25.953125 L 128.859375 25.703125 C 129.078125 25.542969 129.296875 25.382812 129.515625 25.222656 L 129.820312 24.996094 C 130.132812 24.773438 130.457031 24.570312 130.789062 24.386719 L 130.789062 24.933594 C 130.515625 25.152344 130.515625 25.152344 130.136719 25.371094 C 128.605469 26.214844 128.605469 26.214844 127.421875 27.441406 C 127.339844 27.644531 127.261719 27.851562 127.1875 28.058594 C 126.75 29.117188 125.59375 29.992188 124.71875 30.6875 C 124.394531 30.925781 124.0625 31.152344 123.726562 31.371094 L 123.488281 31.535156 C 122.9375 31.882812 122.46875 32.003906 121.820312 32.058594 C 121.859375 31.613281 121.960938 31.367188 122.214844 30.996094 C 122.667969 30.492188 123.203125 30.082031 123.734375 29.664062 C 124.042969 29.417969 124.34375 29.167969 124.640625 28.914062 L 124.878906 28.707031 C 125.03125 28.574219 125.1875 28.441406 125.339844 28.308594 C 125.753906 27.953125 126.125 27.707031 126.648438 27.535156 L 126.511719 27.261719 C 126.035156 27.324219 125.589844 27.386719 125.132812 27.535156 L 124.855469 27.261719 L 125.339844 26.84375 L 125.644531 26.578125 C 125.84375 26.402344 126.050781 26.230469 126.253906 26.0625 C 126.867188 25.550781 127.316406 25.050781 127.753906 24.386719 C 127.195312 24.472656 126.816406 24.730469 126.375 25.070312 C 126.082031 25.394531 125.828125 25.738281 125.570312 26.089844 L 125.355469 26.382812 C 124.914062 26.980469 124.492188 27.589844 124.070312 28.203125 C 123.527344 28.988281 122.964844 29.792969 122.234375 30.414062 C 121.859375 30.527344 121.859375 30.527344 121.542969 30.550781 L 121.40625 30.414062 C 121.324219 29.535156 121.578125 28.828125 121.871094 28.007812 L 122.003906 27.625 C 122.089844 27.382812 122.171875 27.140625 122.257812 26.898438 C 122.390625 26.519531 122.519531 26.136719 122.648438 25.757812 L 122.34375 26.070312 L 121.941406 26.484375 L 121.742188 26.691406 C 121.304688 27.136719 120.894531 27.433594 120.300781 27.675781 C 119.984375 27.648438 119.984375 27.648438 119.75 27.535156 C 119.613281 27.261719 119.613281 27.261719 119.609375 27 L 119.636719 26.6875 L 119.660156 26.382812 C 119.75 26.03125 119.75 26.03125 120.300781 25.070312 L 117.679688 25.070312 C 116.835938 26.871094 116.015625 28.679688 115.222656 30.503906 C 114.582031 31.984375 113.925781 33.460938 113.265625 34.9375 C 112.3125 37.070312 111.375 39.210938 110.453125 41.355469 C 109.757812 42.964844 109.066406 44.574219 108.351562 46.175781 C 108.238281 46.425781 108.125 46.679688 108.015625 46.929688 L 107.8125 47.378906 L 107.640625 47.765625 C 107.476562 48.074219 107.316406 48.269531 107.054688 48.5 L 106.363281 48.222656 C 106.667969 47.199219 107.117188 46.328125 107.640625 45.398438 C 109.316406 42.359375 110.773438 39.230469 112.179688 36.058594 C 112.746094 34.785156 113.324219 33.515625 113.917969 32.253906 C 114.519531 30.984375 115.105469 29.707031 115.679688 28.425781 L 115.878906 27.980469 C 116.308594 27.015625 116.722656 26.046875 117.128906 25.070312 C 116.390625 25.019531 115.652344 24.984375 114.910156 24.957031 C 114.660156 24.949219 114.410156 24.933594 114.160156 24.914062 C 112.9375 24.828125 112.9375 24.828125 111.746094 25.070312 C 111.117188 25.53125 110.742188 26.199219 110.371094 26.867188 C 110.179688 27.210938 109.949219 27.527344 109.714844 27.84375 C 109.566406 28.054688 109.417969 28.265625 109.269531 28.480469 L 108.53125 29.527344 C 107.96875 30.328125 107.402344 31.125 106.832031 31.921875 C 106.703125 32.105469 106.574219 32.285156 106.445312 32.46875 C 106.261719 32.726562 106.074219 32.988281 105.890625 33.25 L 105.570312 33.695312 C 105.25 34.125 104.917969 34.527344 104.570312 34.933594 L 104.15625 34.660156 C 104.195312 34.140625 104.308594 33.78125 104.59375 33.355469 C 105.035156 32.671875 105.410156 31.964844 105.785156 31.246094 L 106.003906 30.824219 C 106.804688 29.285156 107.566406 27.753906 108.175781 26.128906 L 108.289062 25.820312 L 108.570312 25.070312 L 108.144531 25.070312 C 104.707031 25.074219 101.265625 25.078125 97.828125 25.078125 C 96.164062 25.078125 94.503906 25.078125 92.839844 25.082031 C 91.390625 25.082031 89.941406 25.082031 88.488281 25.085938 C 87.722656 25.085938 86.957031 25.085938 86.1875 25.085938 C 85.464844 25.085938 84.742188 25.085938 84.019531 25.085938 C 83.753906 25.085938 83.488281 25.085938 83.226562 25.085938 C 78.894531 25.09375 78.894531 25.09375 78.070312 24.660156 L 77.933594 24.25 C 78.273438 23.742188 78.585938 23.417969 79.125 23.128906 C 79.324219 23.035156 79.527344 22.941406 79.726562 22.851562 L 80.070312 22.699219 C 87.28125 19.488281 96.675781 16.246094 104.671875 17.046875 C 106.0625 17.21875 107.253906 17.589844 108.433594 18.359375 C 108.792969 18.644531 109.03125 18.921875 109.261719 19.316406 L 109.433594 19.59375 C 109.949219 20.617188 109.90625 21.738281 109.84375 22.855469 C 109.777344 23.523438 109.609375 24.160156 109.398438 24.796875 C 110.019531 24.828125 110.585938 24.808594 111.195312 24.660156 C 111.679688 24.28125 111.96875 23.804688 112.296875 23.289062 C 112.453125 23.074219 112.609375 22.855469 112.765625 22.640625 C 112.941406 22.398438 113.117188 22.15625 113.289062 21.914062 C 113.722656 21.308594 114.164062 20.710938 114.609375 20.113281 L 114.855469 19.78125 L 115.609375 18.769531 C 116.789062 17.1875 117.957031 15.601562 119.113281 14.007812 C 119.339844 13.699219 119.5625 13.386719 119.789062 13.078125 C 120.722656 11.796875 121.648438 10.511719 122.566406 9.214844 C 122.71875 9 122.875 8.78125 123.027344 8.5625 C 124.207031 6.90625 124.207031 6.90625 125.347656 5.222656 C 125.707031 4.683594 126.078125 4.183594 126.511719 3.699219 M 125.269531 6.574219 L 125.136719 6.761719 C 124.03125 8.289062 122.914062 9.804688 121.785156 11.320312 C 121.546875 11.640625 121.308594 11.964844 121.070312 12.285156 C 120.226562 13.433594 119.367188 14.566406 118.5 15.695312 C 117.734375 16.6875 116.984375 17.691406 116.25 18.707031 C 115.769531 19.371094 115.28125 20.03125 114.78125 20.6875 C 114.167969 21.492188 113.5625 22.304688 112.960938 23.117188 L 112.726562 23.4375 L 112.507812 23.734375 L 112.3125 23.996094 C 112.121094 24.28125 112.121094 24.28125 112.023438 24.796875 L 117.402344 24.796875 C 118.5 22.464844 119.578125 20.132812 120.625 17.777344 C 120.875 17.210938 121.128906 16.644531 121.386719 16.078125 C 122.285156 14.074219 123.183594 12.066406 124.0625 10.050781 L 124.28125 9.550781 C 124.476562 9.109375 124.667969 8.664062 124.855469 8.21875 L 125.03125 7.8125 L 125.191406 7.4375 L 125.328125 7.113281 L 125.40625 6.851562 Z M 128.996094 14.523438 C 127.566406 16.136719 126.535156 18.292969 125.527344 20.183594 L 125.335938 20.539062 C 125.003906 21.175781 124.75 21.773438 124.582031 22.46875 C 125.148438 21.941406 125.5625 21.390625 125.976562 20.738281 L 126.175781 20.433594 C 127.324219 18.625 128.457031 16.78125 129.273438 14.796875 L 129.273438 14.523438 Z M 93.941406 18.496094 L 93.546875 18.582031 C 89.292969 19.535156 85.0625 20.925781 81.054688 22.628906 L 80.660156 22.796875 C 79.890625 23.132812 79.191406 23.515625 78.484375 23.976562 L 78.625 24.523438 C 79.25 24.636719 79.871094 24.699219 80.507812 24.734375 L 80.816406 24.753906 C 82.054688 24.816406 83.292969 24.816406 84.535156 24.8125 L 85.332031 24.8125 C 86.042969 24.8125 86.757812 24.8125 87.46875 24.8125 C 88.21875 24.808594 88.964844 24.808594 89.714844 24.808594 C 91.128906 24.808594 92.539062 24.808594 93.953125 24.808594 C 95.5625 24.804688 97.171875 24.804688 98.785156 24.804688 C 102.09375 24.800781 105.402344 24.800781 108.710938 24.796875 C 108.777344 24.578125 108.84375 24.359375 108.910156 24.144531 L 109.023438 23.773438 C 109.34375 22.664062 109.359375 21.542969 109.078125 20.425781 C 108.859375 19.753906 108.4375 19.296875 107.933594 18.820312 C 106.972656 18.027344 105.871094 17.738281 104.65625 17.519531 C 101.113281 16.964844 97.398438 17.726562 93.941406 18.496094 M 121.675781 24.703125 C 121.058594 25.214844 120.632812 25.710938 120.300781 26.441406 L 120.300781 26.988281 C 121.015625 26.785156 121.425781 26.34375 121.933594 25.832031 L 122.183594 25.589844 L 122.632812 25.140625 L 122.785156 24.933594 L 122.785156 24.523438 C 122.34375 24.445312 122.058594 24.460938 121.675781 24.703125 M 109.261719 25.070312 L 108.980469 25.78125 L 108.605469 26.714844 L 108.421875 27.183594 C 108.15625 27.847656 107.890625 28.5 107.550781 29.128906 L 107.328125 29.59375 L 107.46875 30.003906 C 107.898438 29.425781 108.324219 28.84375 108.753906 28.265625 C 108.910156 28.046875 109.070312 27.832031 109.230469 27.617188 C 109.476562 27.28125 109.722656 26.945312 109.96875 26.613281 L 110.207031 26.289062 L 110.425781 25.988281 L 110.625 25.722656 C 110.804688 25.464844 110.804688 25.464844 110.917969 25.070312 Z M 126.375 27.949219 C 125.351562 28.707031 124.382812 29.546875 123.414062 30.371094 C 123.265625 30.496094 123.113281 30.617188 122.960938 30.738281 C 122.761719 30.898438 122.566406 31.066406 122.371094 31.234375 L 122.371094 31.511719 C 123.042969 31.328125 123.535156 31.035156 124.070312 30.609375 C 124.148438 30.550781 124.226562 30.488281 124.304688 30.429688 C 125.539062 29.492188 125.539062 29.492188 126.40625 28.253906 L 126.511719 27.949219 Z M 126.375 27.949219 "/></g><g clip-rule="nonzero" clip-path="url(#53b18a1920)"><path style=" stroke:none;fill-rule:nonzero;fill:#141414;fill-opacity:1;" d="M 129.273438 13.835938 C 129.566406 13.964844 129.566406 13.964844 129.824219 14.109375 C 129.574219 15.035156 129.257812 15.863281 128.796875 16.707031 L 128.617188 17.039062 C 127.933594 18.292969 127.160156 19.492188 126.375 20.6875 L 126.074219 21.152344 C 125.535156 21.972656 124.957031 22.753906 124.335938 23.515625 C 124.105469 23.804688 123.90625 24.066406 123.777344 24.414062 C 123.742188 24.742188 123.808594 25.023438 123.890625 25.34375 L 123.632812 25.40625 C 123.332031 25.472656 123.332031 25.472656 123.0625 25.617188 C 122.953125 25.851562 122.953125 25.851562 122.871094 26.140625 L 122.761719 26.476562 L 122.648438 26.851562 L 122.523438 27.25 C 122.394531 27.667969 122.265625 28.085938 122.140625 28.503906 L 122.003906 28.941406 C 121.898438 29.296875 121.789062 29.648438 121.683594 30.003906 C 122.089844 29.902344 122.089844 29.902344 122.285156 29.667969 L 122.480469 29.414062 L 122.699219 29.128906 L 122.933594 28.820312 L 123.171875 28.507812 C 123.691406 27.820312 124.191406 27.121094 124.675781 26.40625 L 124.847656 26.15625 C 125.070312 25.816406 125.261719 25.503906 125.398438 25.117188 C 125.546875 24.796875 125.546875 24.796875 125.886719 24.5 L 126.289062 24.222656 L 126.6875 23.945312 C 127.285156 23.558594 127.285156 23.558594 127.617188 23.425781 C 128.054688 23.46875 128.054688 23.46875 128.445312 23.5625 L 128.582031 23.699219 C 128.644531 24.042969 128.644531 24.042969 128.582031 24.523438 C 128.230469 25.179688 127.785156 25.828125 127.203125 26.304688 L 126.925781 26.304688 L 126.925781 26.714844 C 127.453125 26.640625 127.777344 26.503906 128.203125 26.191406 L 128.527344 25.953125 L 128.859375 25.703125 C 129.078125 25.542969 129.296875 25.382812 129.515625 25.222656 L 129.820312 24.996094 C 130.132812 24.773438 130.457031 24.570312 130.789062 24.386719 L 130.789062 24.933594 C 130.515625 25.152344 130.515625 25.152344 130.136719 25.371094 C 128.605469 26.214844 128.605469 26.214844 127.421875 27.441406 C 127.339844 27.644531 127.261719 27.851562 127.1875 28.058594 C 126.75 29.117188 125.59375 29.992188 124.71875 30.6875 C 124.394531 30.925781 124.0625 31.152344 123.726562 31.371094 L 123.488281 31.535156 C 122.9375 31.882812 122.46875 32.003906 121.820312 32.058594 C 121.859375 31.613281 121.960938 31.367188 122.214844 30.996094 C 122.667969 30.492188 123.203125 30.082031 123.734375 29.664062 C 124.042969 29.417969 124.34375 29.167969 124.640625 28.914062 L 124.878906 28.707031 C 125.03125 28.574219 125.1875 28.441406 125.339844 28.308594 C 125.753906 27.953125 126.125 27.707031 126.648438 27.535156 L 126.511719 27.261719 C 126.035156 27.324219 125.589844 27.386719 125.132812 27.535156 L 124.855469 27.261719 L 125.339844 26.84375 L 125.644531 26.578125 C 125.84375 26.402344 126.050781 26.230469 126.253906 26.0625 C 126.867188 25.550781 127.316406 25.050781 127.753906 24.386719 C 127.195312 24.472656 126.816406 24.730469 126.375 25.070312 C 126.082031 25.394531 125.828125 25.738281 125.570312 26.089844 L 125.355469 26.382812 C 124.914062 26.980469 124.492188 27.589844 124.070312 28.203125 C 123.527344 28.988281 122.964844 29.792969 122.234375 30.414062 C 121.859375 30.527344 121.859375 30.527344 121.542969 30.550781 L 121.40625 30.414062 C 121.324219 29.535156 121.578125 28.828125 121.871094 28.007812 L 122.003906 27.625 C 122.089844 27.382812 122.171875 27.140625 122.257812 26.898438 C 122.390625 26.519531 122.519531 26.136719 122.648438 25.757812 L 122.34375 26.070312 L 121.941406 26.484375 L 121.742188 26.691406 C 121.304688 27.136719 120.894531 27.433594 120.300781 27.675781 C 119.984375 27.648438 119.984375 27.648438 119.75 27.535156 C 119.613281 27.261719 119.613281 27.261719 119.609375 27 L 119.636719 26.6875 L 119.660156 26.382812 C 119.75 26.03125 119.75 26.03125 120.300781 25.070312 L 117.679688 25.070312 C 116.835938 26.871094 116.015625 28.679688 115.222656 30.503906 C 114.582031 31.984375 113.925781 33.460938 113.265625 34.9375 C 112.3125 37.070312 111.375 39.210938 110.453125 41.355469 C 109.757812 42.964844 109.066406 44.574219 108.351562 46.175781 C 108.238281 46.425781 108.125 46.679688 108.015625 46.929688 L 107.8125 47.378906 L 107.640625 47.765625 C 107.476562 48.074219 107.316406 48.269531 107.054688 48.5 L 106.363281 48.222656 C 106.667969 47.199219 107.117188 46.328125 107.640625 45.398438 C 109.316406 42.359375 110.773438 39.230469 112.179688 36.058594 C 112.746094 34.785156 113.324219 33.515625 113.917969 32.253906 C 114.519531 30.984375 115.105469 29.707031 115.679688 28.425781 L 115.878906 27.980469 C 116.308594 27.015625 116.71875 26.046875 117.128906 25.070312 L 112.4375 25.070312 L 112.296875 24.796875 L 117.402344 24.796875 L 117.402344 24.523438 L 117.816406 24.386719 L 117.816406 24.796875 C 118.253906 24.796875 118.691406 24.789062 119.128906 24.78125 L 119.5 24.78125 C 120.027344 24.765625 120.433594 24.746094 120.894531 24.472656 C 121.078125 24.332031 121.261719 24.183594 121.433594 24.027344 C 121.714844 23.8125 121.910156 23.753906 122.261719 23.699219 C 122.769531 23.699219 123.023438 23.777344 123.476562 23.976562 L 123.617188 23.667969 C 124.835938 21.019531 126.078125 18.394531 127.597656 15.902344 L 127.78125 15.597656 C 128.148438 15.015625 128.53125 14.484375 128.996094 13.972656 Z M 128.996094 14.523438 C 127.566406 16.136719 126.535156 18.292969 125.527344 20.183594 L 125.335938 20.539062 C 125.003906 21.175781 124.75 21.773438 124.582031 22.46875 C 125.148438 21.941406 125.5625 21.390625 125.976562 20.738281 L 126.175781 20.433594 C 127.324219 18.625 128.457031 16.78125 129.273438 14.796875 L 129.273438 14.523438 Z M 121.675781 24.703125 C 121.058594 25.214844 120.632812 25.710938 120.300781 26.441406 L 120.300781 26.988281 C 121.015625 26.785156 121.425781 26.34375 121.933594 25.832031 L 122.183594 25.589844 L 122.632812 25.140625 L 122.785156 24.933594 L 122.785156 24.523438 C 122.34375 24.445312 122.058594 24.460938 121.675781 24.703125 M 126.375 27.949219 C 125.351562 28.707031 124.382812 29.546875 123.414062 30.371094 C 123.265625 30.496094 123.113281 30.617188 122.960938 30.738281 C 122.761719 30.898438 122.566406 31.066406 122.371094 31.234375 L 122.371094 31.511719 C 123.042969 31.328125 123.535156 31.035156 124.070312 30.609375 C 124.148438 30.550781 124.226562 30.488281 124.304688 30.429688 C 125.539062 29.492188 125.539062 29.492188 126.40625 28.253906 L 126.511719 27.949219 Z M 126.375 27.949219 "/></g><path style=" stroke:none;fill-rule:nonzero;fill:#1d1d1d;fill-opacity:1;" d="M 128.054688 23.46875 L 128.445312 23.5625 L 128.582031 23.699219 C 128.644531 24.042969 128.644531 24.042969 128.582031 24.523438 C 128.230469 25.179688 127.785156 25.828125 127.203125 26.304688 L 126.925781 26.304688 L 126.925781 26.714844 C 127.453125 26.640625 127.777344 26.503906 128.203125 26.191406 L 128.527344 25.953125 L 128.859375 25.703125 C 129.078125 25.542969 129.296875 25.382812 129.515625 25.222656 L 129.820312 24.996094 C 130.132812 24.773438 130.457031 24.570312 130.789062 24.386719 L 130.789062 24.933594 C 130.515625 25.152344 130.515625 25.152344 130.136719 25.371094 C 128.605469 26.214844 128.605469 26.214844 127.421875 27.441406 C 127.339844 27.644531 127.261719 27.851562 127.1875 28.058594 C 126.75 29.117188 125.59375 29.992188 124.71875 30.6875 C 124.394531 30.925781 124.0625 31.152344 123.726562 31.371094 L 123.488281 31.535156 C 122.9375 31.882812 122.46875 32.003906 121.820312 32.058594 C 121.859375 31.613281 121.960938 31.367188 122.214844 30.996094 C 122.667969 30.492188 123.203125 30.082031 123.734375 29.664062 C 124.042969 29.417969 124.34375 29.167969 124.640625 28.914062 L 124.878906 28.707031 C 125.03125 28.574219 125.1875 28.441406 125.339844 28.308594 C 125.753906 27.953125 126.125 27.707031 126.648438 27.535156 L 126.511719 27.261719 C 126.035156 27.324219 125.589844 27.386719 125.132812 27.535156 L 124.855469 27.261719 L 125.339844 26.84375 L 125.644531 26.578125 C 125.84375 26.402344 126.050781 26.230469 126.253906 26.0625 C 126.867188 25.550781 127.316406 25.050781 127.753906 24.386719 C 127.195312 24.472656 126.816406 24.730469 126.375 25.070312 C 126.082031 25.394531 125.828125 25.738281 125.570312 26.089844 L 125.355469 26.382812 C 124.914062 26.980469 124.492188 27.589844 124.070312 28.203125 C 123.527344 28.988281 122.964844 29.792969 122.234375 30.414062 C 121.859375 30.527344 121.859375 30.527344 121.542969 30.550781 L 121.40625 30.414062 C 121.316406 29.519531 121.589844 28.792969 121.890625 27.957031 L 122.027344 27.554688 C 122.140625 27.226562 122.257812 26.902344 122.371094 26.578125 L 122.648438 26.578125 C 122.335938 27.722656 122.011719 28.863281 121.683594 30.003906 C 122.089844 29.902344 122.089844 29.902344 122.285156 29.667969 L 122.480469 29.414062 L 122.699219 29.128906 L 122.933594 28.820312 L 123.171875 28.507812 C 123.691406 27.820312 124.191406 27.121094 124.675781 26.40625 L 124.847656 26.15625 C 125.070312 25.816406 125.261719 25.503906 125.398438 25.117188 C 125.546875 24.796875 125.546875 24.796875 125.886719 24.5 L 126.289062 24.222656 L 126.6875 23.945312 C 127.507812 23.417969 127.507812 23.417969 128.054688 23.46875 M 126.375 27.949219 C 125.351562 28.707031 124.382812 29.546875 123.414062 30.371094 C 123.265625 30.496094 123.113281 30.617188 122.960938 30.738281 C 122.761719 30.898438 122.566406 31.066406 122.371094 31.234375 L 122.371094 31.511719 C 123.042969 31.328125 123.535156 31.035156 124.070312 30.609375 C 124.148438 30.550781 124.226562 30.488281 124.304688 30.429688 C 125.539062 29.492188 125.539062 29.492188 126.40625 28.253906 L 126.511719 27.949219 Z M 126.375 27.949219 "/><path style=" stroke:none;fill-rule:nonzero;fill:#151515;fill-opacity:1;" d="M 73.933594 23.5625 L 74.347656 23.5625 C 74.253906 24.054688 74.046875 24.410156 73.785156 24.832031 L 73.554688 25.203125 L 73.378906 25.480469 L 73.519531 25.617188 L 73.691406 25.433594 C 74.253906 24.847656 74.828125 24.296875 75.589844 23.976562 C 76.003906 24 76.003906 24 76.277344 24.113281 C 76.363281 24.34375 76.363281 24.34375 76.417969 24.660156 C 76.324219 24.988281 76.324219 24.988281 76.175781 25.335938 L 76.019531 25.699219 C 75.851562 26.054688 75.660156 26.382812 75.449219 26.714844 L 75.449219 26.988281 C 76.453125 26.402344 77.289062 25.789062 78.070312 24.933594 L 78.484375 25.070312 C 77.96875 25.730469 77.398438 26.28125 76.761719 26.828125 L 76.53125 27.027344 C 76.058594 27.425781 75.636719 27.65625 75.035156 27.8125 C 74.820312 27.648438 74.820312 27.648438 74.621094 27.398438 C 74.675781 26.78125 74.964844 26.269531 75.25 25.730469 C 75.59375 25.15625 75.59375 25.15625 75.726562 24.523438 C 75.09375 24.734375 74.578125 25.0625 74.070312 25.480469 C 73.925781 25.660156 73.789062 25.84375 73.65625 26.03125 L 73.378906 26.03125 L 73.269531 26.269531 C 73.097656 26.59375 72.898438 26.867188 72.671875 27.160156 L 72.449219 27.453125 L 72.277344 27.675781 L 71.863281 27.535156 C 72.082031 26.824219 72.378906 26.15625 72.691406 25.480469 L 72.363281 25.824219 C 72.214844 25.972656 72.070312 26.121094 71.921875 26.269531 L 71.707031 26.492188 C 71.203125 27.003906 70.71875 27.359375 70.066406 27.675781 C 69.609375 27.664062 69.609375 27.664062 69.238281 27.535156 C 68.964844 27.125 68.964844 27.125 68.921875 26.664062 C 68.964844 26.136719 69.09375 25.914062 69.378906 25.480469 L 69.054688 25.632812 L 68.21875 26.015625 C 67.859375 26.167969 67.859375 26.167969 67.582031 26.167969 L 67.722656 25.757812 C 68.035156 25.570312 68.351562 25.394531 68.679688 25.234375 C 69.441406 24.847656 70.167969 24.441406 70.875 23.964844 C 71.171875 23.839844 71.171875 23.839844 71.542969 23.867188 L 71.863281 23.976562 C 72.042969 24.257812 72.042969 24.257812 72.136719 24.523438 C 71.910156 24.871094 71.703125 25.144531 71.328125 25.34375 C 70.761719 25.566406 70.421875 25.617188 69.792969 25.617188 L 69.652344 26.988281 C 71.320312 26.296875 72.5 25.039062 73.714844 23.746094 Z M 70.34375 24.933594 L 70.757812 25.070312 C 71.058594 24.882812 71.058594 24.882812 71.308594 24.660156 C 70.882812 24.660156 70.710938 24.734375 70.34375 24.933594 "/><path style=" stroke:none;fill-rule:nonzero;fill:#0f0f0f;fill-opacity:1;" d="M 54.609375 29.867188 L 54.886719 30.003906 C 54.375 30.628906 53.675781 30.902344 52.957031 31.234375 L 53.121094 31.410156 C 53.730469 32.082031 54.085938 32.671875 54.289062 33.550781 C 54.535156 34.9375 54.449219 36.277344 54.335938 37.675781 L 54.292969 38.175781 C 54.265625 38.511719 54.234375 38.847656 54.199219 39.183594 L 54.609375 38.222656 L 54.886719 38.359375 L 54.777344 38.65625 C 54.609375 39.097656 54.441406 39.539062 54.273438 39.976562 L 54.097656 40.441406 L 53.929688 40.886719 L 53.773438 41.300781 C 53.683594 41.550781 53.59375 41.804688 53.507812 42.058594 L 53.09375 42.058594 L 53.140625 41.78125 C 53.21875 41.28125 53.296875 40.777344 53.371094 40.277344 L 53.421875 39.914062 C 53.949219 36.484375 53.949219 36.484375 53.390625 33.085938 C 53.191406 32.652344 53.011719 32.378906 52.644531 32.066406 C 52.144531 31.875 51.695312 31.828125 51.160156 31.785156 C 51.1875 31.527344 51.1875 31.527344 51.300781 31.234375 C 51.582031 31.089844 51.582031 31.089844 51.953125 30.980469 C 52.753906 30.71875 53.492188 30.378906 54.246094 30.011719 Z M 54.609375 29.867188 "/><path style=" stroke:none;fill-rule:nonzero;fill:#252525;fill-opacity:1;" d="M 129.273438 13.835938 C 129.566406 13.964844 129.566406 13.964844 129.824219 14.109375 C 129.574219 15.035156 129.257812 15.863281 128.796875 16.707031 L 128.617188 17.039062 C 127.933594 18.292969 127.160156 19.492188 126.375 20.6875 L 126.214844 20.9375 C 126 21.265625 125.855469 21.488281 125.511719 21.699219 L 125.269531 21.78125 C 125.480469 21.183594 125.804688 20.699219 126.167969 20.183594 C 127.390625 18.394531 128.386719 16.492188 129.273438 14.523438 C 128.535156 15.15625 128.089844 15.953125 127.597656 16.78125 L 127.324219 17.238281 C 126.40625 18.789062 125.539062 20.367188 124.761719 21.992188 L 124.582031 22.332031 L 124.304688 22.46875 C 124.570312 21.601562 124.902344 20.800781 125.3125 19.992188 L 125.492188 19.644531 C 125.996094 18.664062 126.535156 17.707031 127.089844 16.757812 L 127.328125 16.34375 C 127.824219 15.507812 128.34375 14.699219 128.996094 13.972656 Z M 129.273438 13.835938 "/><path style=" stroke:none;fill-rule:nonzero;fill:#080808;fill-opacity:1;" d="M 78.347656 23.976562 L 78.625 24.386719 C 79.242188 24.539062 79.875 24.5625 80.507812 24.597656 L 80.816406 24.617188 C 82.042969 24.679688 83.269531 24.683594 84.496094 24.6875 L 85.28125 24.691406 C 85.984375 24.695312 86.683594 24.699219 87.386719 24.703125 C 88.125 24.703125 88.859375 24.707031 89.597656 24.710938 C 90.988281 24.71875 92.378906 24.726562 93.769531 24.730469 C 95.355469 24.738281 96.9375 24.746094 98.523438 24.753906 C 101.78125 24.769531 105.039062 24.78125 108.296875 24.796875 C 107.933594 25.03125 107.699219 25.074219 107.261719 25.105469 C 107.0625 25.105469 106.867188 25.105469 106.667969 25.105469 L 106.339844 25.105469 C 105.972656 25.105469 105.609375 25.105469 105.242188 25.105469 C 104.980469 25.105469 104.71875 25.105469 104.457031 25.105469 C 103.746094 25.105469 103.035156 25.105469 102.320312 25.101562 C 101.574219 25.101562 100.828125 25.101562 100.082031 25.101562 C 98.828125 25.101562 97.574219 25.101562 96.316406 25.097656 C 94.871094 25.097656 93.425781 25.097656 91.976562 25.097656 C 90.433594 25.097656 88.890625 25.09375 87.347656 25.09375 C 86.902344 25.09375 86.460938 25.09375 86.019531 25.09375 C 85.320312 25.09375 84.621094 25.09375 83.917969 25.089844 C 83.664062 25.089844 83.410156 25.089844 83.152344 25.089844 C 78.886719 25.09375 78.886719 25.09375 78.070312 24.660156 L 77.933594 24.25 Z M 78.347656 23.976562 "/><path style=" stroke:none;fill-rule:nonzero;fill:#222222;fill-opacity:1;" d="M 94.082031 18.359375 L 93.941406 18.632812 C 93.699219 18.714844 93.699219 18.714844 93.375 18.785156 L 93 18.871094 L 92.582031 18.964844 C 88.664062 19.894531 84.78125 21.179688 81.082031 22.757812 L 80.699219 22.921875 C 79.792969 23.316406 78.929688 23.769531 78.070312 24.25 C 78.203125 23.9375 78.308594 23.734375 78.578125 23.515625 C 82.640625 21.132812 87.488281 19.863281 92.011719 18.632812 L 92.496094 18.5 L 92.945312 18.378906 L 93.339844 18.277344 C 93.667969 18.222656 93.667969 18.222656 94.082031 18.359375 "/><path style=" stroke:none;fill-rule:nonzero;fill:#282828;fill-opacity:1;" d="M 75.589844 23.976562 C 75.976562 24.019531 75.976562 24.019531 76.277344 24.113281 C 76.363281 24.34375 76.363281 24.34375 76.417969 24.660156 C 76.324219 24.988281 76.324219 24.988281 76.175781 25.335938 L 76.019531 25.699219 C 75.851562 26.054688 75.660156 26.382812 75.449219 26.714844 L 75.449219 26.988281 C 76.453125 26.402344 77.289062 25.789062 78.070312 24.933594 L 78.484375 25.070312 C 77.96875 25.730469 77.398438 26.28125 76.761719 26.828125 L 76.53125 27.027344 C 76.058594 27.425781 75.636719 27.65625 75.035156 27.8125 C 74.820312 27.648438 74.820312 27.648438 74.621094 27.398438 C 74.675781 26.78125 74.964844 26.269531 75.25 25.730469 C 75.59375 25.15625 75.59375 25.15625 75.726562 24.523438 C 75.25 24.695312 74.878906 24.890625 74.484375 25.207031 L 74.207031 25.070312 C 74.632812 24.625 75.019531 24.230469 75.589844 23.976562 "/><path style=" stroke:none;fill-rule:nonzero;fill:#313131;fill-opacity:1;" d="M 22.316406 18.085938 L 22.59375 18.222656 C 22.207031 18.6875 21.675781 18.90625 21.144531 19.171875 C 19.328125 20.101562 17.585938 21.175781 15.972656 22.421875 L 15.695312 22.605469 L 15.28125 22.605469 C 15.8125 21.894531 16.382812 21.46875 17.144531 21.011719 L 17.484375 20.800781 C 21.027344 18.640625 21.027344 18.640625 22.316406 18.085938 "/><path style=" stroke:none;fill-rule:nonzero;fill:#353435;fill-opacity:1;" d="M 128.71875 14.660156 C 128.71875 15.070312 128.71875 15.070312 128.59375 15.308594 L 128.417969 15.574219 L 127.996094 16.207031 C 126.773438 18.082031 125.6875 20.042969 124.730469 22.0625 L 124.582031 22.332031 L 124.304688 22.46875 C 124.570312 21.601562 124.902344 20.800781 125.3125 19.992188 L 125.492188 19.644531 C 126.003906 18.652344 126.546875 17.679688 127.105469 16.714844 L 127.351562 16.285156 L 127.589844 15.882812 L 127.796875 15.527344 C 128.0625 15.164062 128.355469 14.925781 128.71875 14.660156 "/><path style=" stroke:none;fill-rule:nonzero;fill:#1b1b1b;fill-opacity:1;" d="M 120.714844 17.671875 L 120.855469 17.945312 C 120.695312 18.335938 120.527344 18.722656 120.34375 19.101562 C 120.230469 19.347656 120.117188 19.59375 120 19.839844 L 119.8125 20.246094 C 119.59375 20.726562 119.382812 21.207031 119.175781 21.6875 L 118.839844 22.449219 C 118.734375 22.699219 118.625 22.949219 118.519531 23.199219 L 118.316406 23.660156 L 118.136719 24.074219 L 117.957031 24.386719 L 117.542969 24.523438 C 117.796875 23.710938 118.105469 22.917969 118.46875 22.144531 L 118.613281 21.832031 C 118.765625 21.507812 118.917969 21.183594 119.070312 20.859375 C 119.21875 20.53125 119.371094 20.203125 119.523438 19.878906 C 119.617188 19.675781 119.710938 19.472656 119.808594 19.273438 C 119.988281 18.882812 120.164062 18.496094 120.316406 18.09375 L 120.441406 17.808594 Z M 120.714844 17.671875 "/><path style=" stroke:none;fill-rule:nonzero;fill:#1f1f1f;fill-opacity:1;" d="M 84.558594 21.097656 L 84.558594 21.371094 L 84.1875 21.519531 C 83.71875 21.703125 83.253906 21.886719 82.785156 22.074219 C 82.585938 22.152344 82.386719 22.230469 82.183594 22.308594 C 80.769531 22.863281 79.398438 23.511719 78.070312 24.25 C 78.203125 23.941406 78.308594 23.734375 78.570312 23.519531 C 79.285156 23.09375 80.019531 22.734375 80.78125 22.398438 L 81.144531 22.238281 C 83.757812 21.097656 83.757812 21.097656 84.558594 21.097656 "/><path style=" stroke:none;fill-rule:nonzero;fill:#1d1d1d;fill-opacity:1;" d="M 27.699219 15.617188 L 27.976562 15.753906 C 27.652344 16.121094 27.335938 16.289062 26.886719 16.476562 L 26.480469 16.648438 L 26.054688 16.824219 C 25.015625 17.261719 24 17.707031 23.007812 18.238281 L 22.730469 18.359375 L 22.457031 18.222656 C 22.796875 17.835938 23.152344 17.648438 23.617188 17.429688 L 24.066406 17.214844 L 24.535156 16.996094 L 24.992188 16.777344 C 27.046875 15.808594 27.046875 15.808594 27.699219 15.617188 "/><path style=" stroke:none;fill-rule:nonzero;fill:#343434;fill-opacity:1;" d="M 125.960938 27.8125 L 126.234375 27.949219 C 125.863281 28.441406 125.480469 28.824219 124.996094 29.207031 C 124.5625 29.546875 124.132812 29.890625 123.714844 30.246094 L 123.488281 30.433594 C 123.277344 30.613281 123.070312 30.789062 122.859375 30.964844 C 122.511719 31.234375 122.511719 31.234375 122.097656 31.371094 C 122.5625 30.253906 123.886719 29.472656 124.820312 28.742188 C 125.207031 28.4375 125.582031 28.125 125.960938 27.8125 "/><path style=" stroke:none;fill-rule:nonzero;fill:#434343;fill-opacity:1;" d="M 128.03125 17.535156 L 128.167969 17.808594 C 128.058594 18.046875 128.058594 18.046875 127.878906 18.332031 L 127.683594 18.648438 L 127.46875 18.984375 L 127.257812 19.320312 C 127.117188 19.542969 126.976562 19.761719 126.839844 19.980469 C 126.683594 20.222656 126.535156 20.460938 126.382812 20.703125 L 126.175781 21.03125 C 126.121094 21.117188 126.0625 21.207031 126.003906 21.300781 C 125.789062 21.550781 125.574219 21.65625 125.269531 21.78125 C 125.488281 21.152344 125.832031 20.648438 126.210938 20.105469 C 126.671875 19.433594 127.105469 18.761719 127.472656 18.035156 C 127.617188 17.808594 127.617188 17.808594 128.03125 17.535156 "/><path style=" stroke:none;fill-rule:nonzero;fill:#070707;fill-opacity:1;" d="M 117.679688 24.386719 L 117.957031 24.933594 L 117.128906 25.757812 L 116.988281 25.480469 L 117.128906 25.070312 L 112.4375 25.070312 L 112.296875 24.796875 L 117.402344 24.796875 L 117.402344 24.523438 Z M 117.679688 24.386719 "/><path style=" stroke:none;fill-rule:nonzero;fill:#2b2b2b;fill-opacity:1;" d="M 58.613281 27.535156 L 58.890625 27.675781 C 58.25 28.414062 57.4375 28.832031 56.585938 29.300781 L 56.144531 29.550781 L 55.722656 29.789062 L 55.335938 30.003906 L 55.023438 30.140625 L 54.75 30.003906 C 55.117188 29.609375 55.464844 29.339844 55.941406 29.085938 L 56.304688 28.890625 L 56.679688 28.691406 C 56.929688 28.5625 57.175781 28.429688 57.421875 28.296875 L 57.753906 28.125 C 58.058594 27.949219 58.335938 27.753906 58.613281 27.535156 "/><path style=" stroke:none;fill-rule:nonzero;fill:#343434;fill-opacity:1;" d="M 130.652344 24.386719 L 130.929688 24.523438 L 130.789062 24.933594 C 130.484375 25.15625 130.484375 25.15625 130.09375 25.386719 C 129.425781 25.792969 128.785156 26.238281 128.167969 26.714844 L 127.890625 26.578125 C 128.433594 26.007812 129.019531 25.550781 129.660156 25.097656 C 129.992188 24.859375 130.320312 24.621094 130.652344 24.386719 "/><path style=" stroke:none;fill-rule:nonzero;fill:#252525;fill-opacity:1;" d="M 120.714844 17.671875 L 120.855469 17.945312 C 120.699219 18.421875 120.476562 18.871094 120.265625 19.324219 L 120.097656 19.714844 L 119.929688 20.082031 L 119.773438 20.425781 L 119.613281 20.6875 L 119.199219 20.824219 C 119.410156 20.152344 119.675781 19.507812 119.957031 18.863281 L 120.085938 18.5625 C 120.195312 18.308594 120.316406 18.058594 120.441406 17.808594 Z M 120.714844 17.671875 "/><path style=" stroke:none;fill-rule:nonzero;fill:#383838;fill-opacity:1;" d="M 17.625 20.6875 L 17.902344 20.824219 C 17.261719 21.527344 16.5 22.105469 15.695312 22.605469 L 15.28125 22.605469 C 15.890625 21.738281 16.730469 21.246094 17.625 20.6875 "/><path style=" stroke:none;fill-rule:nonzero;fill:#1c1c1c;fill-opacity:1;" d="M 50.332031 21.234375 L 50.472656 21.507812 C 50.339844 21.960938 50.136719 22.386719 49.953125 22.820312 L 49.800781 23.1875 L 49.652344 23.539062 L 49.519531 23.863281 L 49.367188 24.113281 L 48.953125 24.25 C 49.265625 23.273438 49.601562 22.292969 50.058594 21.371094 Z M 50.332031 21.234375 "/><path style=" stroke:none;fill-rule:nonzero;fill:#464646;fill-opacity:1;" d="M 80.28125 22.605469 L 80.554688 22.742188 C 80.277344 23.042969 80.015625 23.242188 79.648438 23.433594 L 79.371094 23.578125 L 79.082031 23.726562 L 78.789062 23.878906 C 78.550781 24.003906 78.3125 24.125 78.070312 24.25 C 78.207031 23.929688 78.3125 23.730469 78.585938 23.511719 L 78.867188 23.351562 L 79.164062 23.175781 C 79.902344 22.765625 79.902344 22.765625 80.28125 22.605469 "/><path style=" stroke:none;fill-rule:nonzero;fill:#232323;fill-opacity:1;" d="M 117.128906 25.617188 L 117.265625 25.894531 C 117.152344 26.21875 117.027344 26.542969 116.886719 26.859375 L 116.773438 27.128906 C 116.675781 27.363281 116.558594 27.585938 116.4375 27.8125 L 116.023438 27.949219 C 116.109375 27.414062 116.273438 26.964844 116.5 26.476562 L 116.679688 26.074219 L 116.851562 25.757812 Z M 117.128906 25.617188 "/><path style=" stroke:none;fill-rule:nonzero;fill:#323232;fill-opacity:1;" d="M 128.03125 17.535156 L 128.167969 17.808594 C 128.007812 18.117188 127.835938 18.417969 127.652344 18.710938 L 127.5 18.960938 C 127.363281 19.175781 127.214844 19.382812 127.0625 19.589844 L 126.648438 19.726562 C 126.894531 19.050781 127.214844 18.410156 127.617188 17.808594 Z M 128.03125 17.535156 "/><path style=" stroke:none;fill-rule:nonzero;fill:#333333;fill-opacity:1;" d="M 93.667969 18.222656 L 94.082031 18.359375 L 93.941406 18.632812 C 93.554688 18.75 93.554688 18.75 93.070312 18.855469 C 92.914062 18.890625 92.753906 18.925781 92.589844 18.960938 C 92.148438 19.042969 92.148438 19.042969 91.597656 19.042969 L 91.597656 18.769531 C 91.933594 18.671875 92.269531 18.578125 92.605469 18.488281 L 92.894531 18.402344 C 93.148438 18.332031 93.410156 18.277344 93.667969 18.222656 "/><path style=" stroke:none;fill-rule:nonzero;fill:#262626;fill-opacity:1;" d="M 19.695312 19.453125 L 19.972656 19.589844 C 19.585938 20 19.199219 20.304688 18.710938 20.59375 L 18.347656 20.8125 L 18.039062 20.960938 L 17.765625 20.824219 C 18.152344 20.414062 18.539062 20.113281 19.023438 19.824219 L 19.386719 19.601562 Z M 19.695312 19.453125 "/><path style=" stroke:none;fill-rule:nonzero;fill:#333333;fill-opacity:1;" d="M 128.71875 14.660156 C 128.71875 15.070312 128.71875 15.070312 128.558594 15.371094 L 128.339844 15.695312 L 128.128906 16.019531 C 127.882812 16.316406 127.691406 16.4375 127.339844 16.578125 C 127.542969 16.011719 127.808594 15.550781 128.167969 15.070312 C 128.480469 14.8125 128.480469 14.8125 128.71875 14.660156 "/><path style=" stroke:none;fill-rule:nonzero;fill:#212121;fill-opacity:1;" d="M 91.597656 18.90625 L 91.597656 19.179688 C 91.378906 19.25 91.160156 19.316406 90.941406 19.386719 L 90.574219 19.5 C 90.214844 19.589844 90.214844 19.589844 89.664062 19.589844 L 89.664062 19.316406 C 89.882812 19.246094 90.101562 19.179688 90.320312 19.113281 L 90.6875 18.996094 C 91.042969 18.90625 91.042969 18.90625 91.597656 18.90625 "/><path style=" stroke:none;fill-rule:nonzero;fill:#1a1a1a;fill-opacity:1;" d="M 81.9375 21.921875 L 82.210938 22.058594 C 81.941406 22.386719 81.707031 22.511719 81.316406 22.707031 L 80.832031 22.878906 L 80.417969 22.742188 L 80.554688 22.46875 C 80.863281 22.316406 80.863281 22.316406 81.238281 22.167969 L 81.613281 22.015625 Z M 95.597656 17.808594 L 95.875 17.945312 L 95.738281 18.222656 C 95.472656 18.3125 95.472656 18.3125 95.140625 18.382812 L 94.816406 18.457031 C 94.480469 18.496094 94.261719 18.460938 93.941406 18.359375 C 95.019531 17.875 95.019531 17.875 95.597656 17.808594 "/><path style=" stroke:none;fill-rule:nonzero;fill:#424242;fill-opacity:1;" d="M 68.824219 25.207031 L 69.101562 25.34375 C 68.75 25.753906 68.347656 25.949219 67.859375 26.167969 L 67.582031 26.167969 L 67.722656 25.757812 C 67.96875 25.589844 67.96875 25.589844 68.265625 25.449219 L 68.5625 25.300781 Z M 68.824219 25.207031 "/><path style=" stroke:none;fill-rule:nonzero;fill:#717171;fill-opacity:1;" d="M 39.292969 24.796875 L 41.085938 24.796875 L 40.949219 25.070312 C 40.601562 25.128906 40.601562 25.128906 40.179688 25.15625 L 39.757812 25.1875 L 39.429688 25.207031 Z M 39.292969 24.796875 "/><path style=" stroke:none;fill-rule:nonzero;fill:#1f1f1f;fill-opacity:1;" d="M 23.699219 17.398438 L 23.972656 17.535156 C 23.621094 17.941406 23.226562 18.148438 22.730469 18.359375 L 22.457031 18.222656 C 22.808594 17.8125 23.203125 17.609375 23.699219 17.398438 "/><path style=" stroke:none;fill-rule:nonzero;fill:#2d2d2d;fill-opacity:1;" d="M 89.664062 19.453125 L 89.664062 19.726562 C 89.21875 19.902344 88.917969 20.011719 88.441406 19.949219 L 88.148438 19.863281 C 88.679688 19.589844 89.050781 19.453125 89.664062 19.453125 "/><path style=" stroke:none;fill-rule:nonzero;fill:#15100f;fill-opacity:1;" d="M 62.753906 34.386719 L 62.890625 34.796875 C 62.722656 35.226562 62.722656 35.226562 62.484375 35.714844 L 62.25 36.203125 L 62.0625 36.578125 L 61.925781 36.167969 C 62.09375 35.738281 62.09375 35.738281 62.332031 35.25 L 62.566406 34.761719 Z M 62.753906 34.386719 "/><path style=" stroke:none;fill-rule:nonzero;fill:#2f2f2f;fill-opacity:1;" d="M 126.375 18.359375 L 126.511719 18.632812 C 126.375 18.929688 126.375 18.929688 126.175781 19.265625 L 125.976562 19.605469 L 125.820312 19.863281 C 125.742188 19.617188 125.742188 19.617188 125.683594 19.316406 C 125.867188 18.878906 125.867188 18.878906 126.097656 18.496094 Z M 126.375 18.359375 "/><path style=" stroke:none;fill-rule:nonzero;fill:#333333;fill-opacity:1;" d="M 116.574219 26.851562 L 116.714844 27.125 C 116.609375 27.476562 116.609375 27.476562 116.4375 27.8125 L 116.023438 27.949219 C 116.066406 27.632812 116.066406 27.632812 116.160156 27.261719 C 116.378906 27.015625 116.378906 27.015625 116.574219 26.851562 "/><path style=" stroke:none;fill-rule:nonzero;fill:#363636;fill-opacity:1;" d="M 49.367188 23.015625 L 49.644531 23.015625 C 49.570312 23.394531 49.488281 23.746094 49.367188 24.113281 L 48.953125 24.25 Z M 49.367188 23.015625 "/><path style=" stroke:none;fill-rule:nonzero;fill:#0e0e0e;fill-opacity:1;" d="M 24.800781 16.851562 L 25.078125 16.988281 C 24.921875 17.175781 24.921875 17.175781 24.664062 17.398438 C 24.222656 17.5625 24.222656 17.5625 23.835938 17.671875 C 24.492188 17.003906 24.492188 17.003906 24.800781 16.851562 "/><path style=" stroke:none;fill-rule:nonzero;fill:#383838;fill-opacity:1;" d="M 126.097656 20.6875 L 126.097656 21.097656 C 125.753906 21.464844 125.753906 21.464844 125.40625 21.78125 L 125.40625 21.371094 C 125.753906 21.003906 125.753906 21.003906 126.097656 20.6875 "/><path style=" stroke:none;fill-rule:nonzero;fill:#2b2b2b;fill-opacity:1;" d="M 19.695312 19.453125 L 19.972656 19.589844 C 19.496094 20.113281 19.496094 20.113281 19.109375 20.242188 L 18.867188 20.277344 L 19.003906 19.863281 C 19.34375 19.625 19.34375 19.625 19.695312 19.453125 "/><path style=" stroke:none;fill-rule:nonzero;fill:#1e1e1e;fill-opacity:1;" d="M 68.410156 21.371094 L 68.824219 21.644531 L 68.6875 22.195312 L 68.273438 22.058594 Z M 68.410156 21.371094 "/><path style=" stroke:none;fill-rule:nonzero;fill:#130906;fill-opacity:1;" d="M 64.273438 30.960938 L 64.410156 31.371094 C 64.210938 31.808594 64.210938 31.808594 63.996094 32.195312 L 63.859375 31.785156 C 64.054688 31.347656 64.054688 31.347656 64.273438 30.960938 "/><path style=" stroke:none;fill-rule:nonzero;fill:#2d2421;fill-opacity:1;" d="M 63.167969 33.429688 L 63.304688 33.839844 C 63.105469 34.140625 63.105469 34.140625 62.890625 34.386719 C 63.011719 33.734375 63.011719 33.734375 63.167969 33.429688 "/><path style=" stroke:none;fill-rule:nonzero;fill:#130906;fill-opacity:1;" d="M 63.582031 32.46875 L 63.71875 32.878906 C 63.519531 33.179688 63.519531 33.179688 63.304688 33.429688 C 63.425781 32.777344 63.425781 32.777344 63.582031 32.46875 M 64.6875 30.003906 L 64.824219 30.414062 C 64.625 30.714844 64.625 30.714844 64.410156 30.960938 C 64.53125 30.3125 64.53125 30.3125 64.6875 30.003906 "/></g></svg>