<svg width="167" height="35" viewBox="0 0 167 35" fill="none" xmlns="http://www.w3.org/2000/svg">
<g clip-path="url(#clip0_1970_774)">
<path d="M18.7297 3.34868C19.86 3.96326 20.662 4.8643 21.3547 5.9268C21.9433 7.01535 22.2454 8.05701 22.5214 9.25493C22.761 10.182 23.011 10.8539 23.6672 11.5414C24.261 12.0987 24.8964 12.6091 25.5475 13.0935C25.4797 13.3956 25.4016 13.6976 25.3235 13.9997L25.0943 14.2237C24.4277 14.2497 23.761 14.2653 23.0891 14.2706L21.8287 14.2914C21.1672 14.3018 20.5058 14.307 19.8443 14.3174C15.9641 14.2497 15.9641 14.2497 12.3391 15.432C11.0839 16.2758 10.1412 17.4112 9.47454 18.7601C8.93287 20.1508 8.85475 21.557 9.03183 23.031C9.24537 23.8383 9.54745 24.5518 9.93287 25.2862L10.1672 25.7341C10.8287 26.8018 11.7245 27.3487 12.8079 27.9581C13.886 28.5049 14.8391 28.5362 16.0266 28.5258C16.9068 28.4268 17.4433 28.1612 18.1516 27.6456C18.5891 27.281 18.5891 27.281 19.1568 26.6716L19.6672 26.1924C20.1464 26.2758 20.1464 26.2758 20.5683 26.4164L20.4693 26.8487C19.9277 29.4528 19.9745 31.9528 20.5683 34.5466L19.8912 34.7706C19.3183 34.4164 19.3183 34.4164 18.6725 33.9112C17.6256 33.0987 16.8339 32.5987 15.511 32.4008L14.6725 32.3174C12.136 32.0153 9.79746 31.2393 7.67246 29.8018C5.20371 27.8695 3.48495 25.682 2.24016 22.807C1.34433 20.4112 1.18287 17.8383 1.47975 15.3122C1.81308 13.3226 2.61516 11.6299 3.55787 9.8643C3.91204 9.16118 4.05787 8.74451 4.16725 7.94243C4.03704 7.12993 3.886 6.74451 3.37037 6.09347C2.86516 5.61951 2.33391 5.1768 1.78704 4.73931L2.01621 3.83826C4.17766 3.21326 6.14641 3.4216 8.3235 3.90597C9.761 4.1716 10.9381 3.82264 12.3027 3.39555C14.3391 2.7966 16.7089 2.57264 18.7297 3.34868ZM5.18287 13.3226C4.66204 13.7445 4.34954 14.0778 4.05266 14.6768C3.9485 15.6768 3.99537 16.5362 4.30787 17.4997L4.72975 18.0622C5.386 18.3435 5.386 18.3435 6.08912 18.2862C6.62558 18.0362 6.62558 18.0362 6.99537 17.6091C7.24537 16.8591 7.26621 16.2601 7.27662 15.4685L7.29225 14.682C7.27662 14.0049 7.27662 14.0049 6.91725 13.5726C6.52141 13.2706 6.52141 13.2706 5.87558 13.2237L5.18287 13.3226Z" fill="#030303"/>
<path d="M36.4089 10.8381C36.763 10.8173 37.1172 10.8121 37.4714 10.8173H38.1224L38.7995 10.8225L39.487 10.8277C40.0443 10.8277 40.6016 10.8329 41.1641 10.8381C45.8828 22.6663 45.8828 22.6663 47.4557 26.7861L47.7578 27.5725L48.0286 28.2756L48.2526 28.8642C48.4036 29.3538 48.4036 29.3538 48.4036 30.0309H43.6536C43.0026 28.2392 43.0026 28.2392 42.7995 27.6715C42.6432 27.2496 42.4714 26.8329 42.2943 26.4163C41.6484 26.0933 41.0807 26.1402 40.362 26.1194L39.4714 26.0933L38.5339 26.0621L37.5911 26.0361C36.8203 26.01 36.0495 25.9892 35.2786 25.9631L35.1536 26.4058L34.9818 26.9944L34.8151 27.5777C34.5651 28.3329 34.237 29.0673 33.9245 29.8017L28.9453 30.0309C29.3932 28.6819 29.8568 27.3642 30.3776 26.0465L30.5964 25.4944C30.7474 25.1038 30.8984 24.7131 31.0547 24.3277C31.4609 23.2965 31.862 22.2704 32.2682 21.2392L32.513 20.609C33.0599 19.2183 33.5964 17.8277 34.1276 16.4319L34.3359 15.8902C34.6589 15.0413 34.9818 14.1923 35.3047 13.3433L35.6484 12.4371L35.9453 11.6454C36.1849 11.0621 36.1849 11.0621 36.4089 10.8381ZM38.6745 16.2548C38.1849 17.4475 37.7109 18.6506 37.2578 19.8538L37.0286 20.4683C36.8307 21.0152 36.8307 21.0152 36.862 21.6767H40.7109C40.237 19.8069 39.6224 18.0413 38.8984 16.2548H38.6745Z" fill="#020202"/>
<path d="M104.404 10.5671H104.94C106.773 10.5879 108.654 10.7077 110.398 11.291V15.5775L109.169 15.4681C107.529 15.3483 105.893 15.3223 104.247 15.3118L103.487 15.3014H102.768L102.122 15.2962C101.513 15.3171 101.513 15.3171 100.893 15.8066C100.841 16.39 100.841 16.39 100.893 16.9316C102.565 18.0358 104.435 18.4264 106.357 18.9264C107.727 19.3066 108.862 19.6452 109.893 20.6608C110.544 21.4421 110.836 22.2806 111.076 23.2546C111.253 24.4473 111.159 25.4629 110.727 26.5879C110.294 27.4368 109.794 28.0306 109.039 28.6139C107.909 29.3379 106.747 29.8118 105.419 30.0306C104.93 30.0514 104.445 30.0566 103.956 30.0618H103.102L102.211 30.0566L101.336 30.0618C98.0286 30.0566 98.0286 30.0566 96.5964 29.8014L96.3672 29.5775C96.3516 29.2598 96.3464 28.9368 96.3464 28.6191L96.3516 28.0306L96.3568 27.4212V26.8014C96.362 26.2962 96.3672 25.791 96.3672 25.2858L97.2474 25.3379C101.924 25.6348 101.924 25.6348 106.555 25.0618V23.9316C104.904 23.0358 103.221 22.5462 101.419 22.0462C99.9609 21.6243 98.8776 21.2129 97.7682 20.1504L97.4453 19.7702L97.1172 19.39C96.612 18.666 96.388 18.0254 96.2943 17.1452C96.2682 14.9108 96.2682 14.9108 96.7214 13.9004C97.2734 12.9889 97.9609 12.3118 98.8568 11.7389C100.68 10.8379 102.393 10.5671 104.404 10.5671ZM73.2891 7.90039H77.5911V15.5775L79.8516 14.2233C81.2682 13.9316 82.6328 14.0306 84.013 14.4681C85.3099 15.0618 86.3411 15.7754 87.2266 16.9004C87.987 18.0618 88.6224 19.3952 88.7057 20.7962L88.7005 21.3118V22.5306L88.6953 23.1816C88.6953 23.8639 88.6953 24.5462 88.6901 25.2337C88.6901 25.6973 88.6901 26.1608 88.6849 26.6243C88.6849 27.7598 88.6797 28.8952 88.6745 30.0306L84.1484 29.8014L84.1328 27.8275C84.1224 27.1921 84.112 26.5566 84.1016 25.9212C84.0964 25.4837 84.0911 25.041 84.0911 24.6035C84.0859 23.9681 84.0755 23.3379 84.0599 22.7025V22.1087C84.0391 21.1556 83.9661 20.6191 83.5078 19.7598C83.0339 19.1556 83.0339 19.1556 82.3411 18.7389C81.6745 18.5358 81.1589 18.4785 80.4714 18.6139C79.5911 18.8691 79.0443 19.0931 78.3828 19.7441C77.9141 20.5358 77.7891 21.2233 77.7682 22.1348L77.7526 22.666L77.7422 23.2389L77.7266 23.8275C77.7161 24.4473 77.7005 25.0618 77.6901 25.6816L77.6589 26.9421C77.6328 27.9733 77.612 28.9993 77.5911 30.0306H73.2891V7.90039ZM161.07 14.5775C162.456 15.1712 163.664 15.9785 164.612 17.1556C165.523 18.5202 165.841 19.8327 165.951 21.4473C165.977 21.9681 166.008 22.4837 166.034 22.9993C166.185 25.4316 166.513 27.6973 167.195 30.0306C163.852 30.1139 163.852 30.1139 162.445 29.5775L162.216 27.7702L161.763 28.1504L161.154 28.6452L160.56 29.14C159.971 29.5671 159.518 29.8223 158.82 30.0306C157.346 30.1868 155.862 30.1921 154.451 29.6921C153.227 29.1139 152.232 28.3535 151.357 27.3223C150.477 25.8952 149.852 24.541 149.727 22.8639C149.701 21.2493 149.831 19.791 150.451 18.2858C151.143 17.0931 152.034 16.1504 153.164 15.3535C155.607 14.0931 158.419 13.6973 161.07 14.5775ZM156.112 18.7129C155.367 19.1243 154.997 19.6243 154.523 20.3223C154.133 21.1035 154.227 21.9473 154.232 22.8066C154.258 23.5306 154.258 23.5306 154.706 24.2858L155.201 24.8379L155.555 25.2441C155.904 25.5671 155.904 25.5671 156.56 25.7389C157.471 25.8223 158.362 25.8275 159.273 25.7389C160.049 25.3587 160.471 25.0098 161.044 24.3848C161.466 23.6712 161.529 23.1243 161.596 22.2962C161.529 21.3014 161.331 20.5202 160.857 19.6452C160.367 19.0931 159.956 18.8275 159.273 18.5618C158.112 18.2285 157.232 18.2754 156.112 18.7129Z" fill="#030303"/>
<path d="M132.686 14.4786C133.785 14.8744 134.681 15.4474 135.519 16.2546C136.009 16.8588 136.217 17.1244 136.42 17.838C136.54 18.8328 136.551 19.7755 136.42 20.7703C135.988 21.7078 135.389 22.3588 134.571 22.9942C133.191 23.8744 131.707 24.2911 130.077 24.3953C128.853 24.3744 127.665 24.1609 126.467 23.9317C127.03 24.5359 127.504 24.989 128.275 25.2859C130.571 25.7286 132.983 25.4369 135.29 25.2859V29.5776C132.644 30.2182 129.722 30.3432 127.03 29.9005C125.624 29.4578 124.592 28.6244 123.545 27.614C122.608 26.5828 122.092 25.4994 121.712 24.1609C121.545 22.1817 121.519 20.2182 122.321 18.3692C123.155 16.8796 124.285 15.8901 125.696 14.9526C127.759 13.9057 130.467 13.9005 132.686 14.4786ZM126.691 19.6453V20.3224C128.103 20.8328 129.499 20.9161 130.993 20.7703C131.504 20.5932 131.504 20.5932 131.894 20.3224C132.139 19.8953 132.139 19.8953 132.124 19.4161C131.879 19.0255 131.879 19.0255 131.446 18.739C129.65 18.4682 128.217 18.6869 126.691 19.6453ZM66.9256 14.1661L67.5089 14.1609L68.0819 14.1661H68.5975C69.4933 14.2494 70.3735 14.4786 71.2537 14.6765V19.1921L69.785 18.9682C67.9777 18.713 66.436 18.5359 64.686 19.1869C64.1756 19.4213 64.1756 19.4213 63.6756 20.0099C63.2537 20.9578 63.061 21.7651 63.1079 22.8067C63.3267 23.6713 63.3267 23.6713 63.785 24.3849C64.3944 24.963 64.8058 25.2494 65.5975 25.5151C67.6027 25.6401 69.5037 25.4109 71.4777 25.0619V29.5776C68.8319 30.239 66.2277 30.5515 63.561 29.8015C62.0506 29.1401 60.7381 28.1609 59.7121 26.8692C58.9464 25.6505 58.6183 24.5515 58.535 23.114C58.4673 19.5463 58.4673 19.5463 59.2589 18.0619C60.1964 16.7755 61.2642 15.713 62.6287 14.8849C64.0662 14.2546 65.3839 14.1557 66.9256 14.1661Z" fill="#020202"/>
<path d="M111.984 10.6094H116.51V14.901H121.036C121.052 16.3958 121.057 17.7187 120.813 19.1927L116.74 18.9688L116.693 20.7865L116.677 21.349C116.661 22.5365 116.854 23.3385 117.417 24.3854C118.021 24.9635 118.432 25.25 119.224 25.5156C119.656 25.5625 120.083 25.6042 120.516 25.6406L121.714 25.7396V30.0313C119.625 30.1146 117.937 30.1042 116.057 29.125C114.724 28.3125 113.786 27.3594 112.932 26.0573C112.099 24.3698 112.135 22.7187 112.12 20.8646L112.104 19.974C112.094 19.2031 112.083 18.4271 112.078 17.651C112.068 16.8542 112.057 16.0625 112.042 15.2708C112.021 13.7187 112.005 12.1667 111.984 10.6094Z" fill="#010101"/>
<path d="M137.779 7.90039H142.076V30.0306H137.555C137.549 27.1764 137.544 24.3275 137.539 21.4733C137.539 20.1504 137.539 18.8275 137.534 17.5046C137.534 16.2233 137.534 14.9473 137.529 13.6712C137.529 13.1816 137.529 12.6973 137.529 12.2077C137.529 11.5254 137.529 10.8431 137.529 10.166L137.523 9.54622C137.523 9.07227 137.539 8.59831 137.555 8.12956L137.779 7.90039Z" fill="#030303"/>
<path d="M144.117 7.90039H148.419V29.8014C146.836 30.0306 146.836 30.0306 144.117 30.0306V7.90039Z" fill="#020202"/>
<path d="M58.8093 14.2234V18.5151C57.6739 18.739 57.6739 18.739 57.1114 18.8276C56.2156 18.9786 55.5229 19.1245 54.7364 19.588C54.1843 20.2078 54.0437 20.6505 53.8302 21.4474C53.7573 22.1036 53.7468 22.7547 53.7364 23.4109L53.7208 23.963C53.7104 24.5463 53.7 25.1297 53.6895 25.713L53.6635 26.9005C53.6375 27.8692 53.6218 28.838 53.601 29.8015L49.3041 30.0307C48.9031 26.4422 48.601 22.2234 49.7573 18.7338C50.3354 17.4682 51.1166 16.4057 52.2468 15.5776C54.4916 14.338 56.2677 14.1974 58.8093 14.2234Z" fill="#060606"/>
<path d="M90.487 14.4473H94.7839V30.0306C90.7109 30.0306 90.7109 30.0306 90.2578 29.8014L90.487 14.4473Z" fill="black"/>
<path d="M93.6601 7.45276C94.3268 7.77567 94.3268 7.77567 94.7903 8.3538C95.0768 9.03088 95.2174 9.65067 95.2434 10.385C95.082 11.1871 94.7278 11.7757 94.1966 12.4059C93.4882 12.7184 92.8893 12.7392 92.1184 12.708C91.6236 12.6455 91.6236 12.6455 90.9622 12.359C90.4934 11.9684 90.4934 11.9684 90.1966 11.583C89.9622 10.8017 89.9413 10.0569 90.0403 9.25484C90.3216 8.49442 90.3216 8.49442 90.7174 7.90067C91.6653 7.31734 92.5768 7.30171 93.6601 7.45276Z" fill="#050505"/>
<path d="M13.2323 17.0469C13.7844 17.1615 13.7844 17.1615 14.3052 17.5C14.6906 18.0625 14.6906 18.0625 14.7844 18.4948C14.8156 18.9896 14.8052 19.3854 14.6906 19.8698C14.2062 20.4479 14.2062 20.4479 13.5552 20.7708C12.8625 20.7708 12.8625 20.7708 12.201 20.5469C11.6489 20.1823 11.6489 20.1823 11.2948 19.6458C11.2791 18.8542 11.2791 18.8542 11.5187 18.0625C12.076 17.4635 12.4302 17.2031 13.2323 17.0469Z" fill="#0A0A0A"/>
</g>
<defs>
<clipPath id="clip0_1970_774">
<rect width="167" height="35" fill="white"/>
</clipPath>
</defs>
</svg>
